M48
;DRILL file {KiCad (5.0.1-3-g963ef8bb5)} date Saturday, 20 April 2019 at 19:45:47
;FORMAT={-:-/ absolute / inch / decimal}
FMAT,2
INCH,TZ
T1C0.0157
T2C0.0217
T3C0.0276
T4C0.0315
T5C0.0394
T6C0.0400
T7C0.0433
T8C0.0472
T9C0.0512
T10C0.0591
T11C0.2087
%
G90
G05
M72
T1
X3.712Y-3.06
X3.89Y-3.492
X3.9209Y-4.1614
X4.0088Y-3.1168
X4.012Y-3.07
X4.012Y-3.17
X4.0214Y-4.5493
X4.0214Y-5.5993
X4.122Y-3.95
X4.122Y-4.5531
X4.122Y-5.05
X4.612Y-2.82
X4.612Y-3.18
X4.742Y-3.17
X4.762Y-3.27
X4.7693Y-4.6528
X4.862Y-2.52
X4.862Y-2.82
X4.882Y-3.33
X5.14Y-3.42
X5.212Y-3.3902
X5.262Y-3.27
X5.272Y-3.22
X5.272Y-5.65
X5.272Y-6.1
X5.402Y-4.62
X5.442Y-4.62
X5.482Y-2.73
X5.4906Y-3.0485
X5.4906Y-3.12
X5.492Y-2.91
X5.532Y-3.28
X5.532Y-3.38
X5.562Y-3.62
X5.762Y-3.62
T2
X4.622Y-5.6
X4.622Y-5.65
X4.622Y-5.7
X4.622Y-6.05
X4.622Y-6.1
X4.622Y-6.15
T3
X4.922Y-6.1
X5.122Y-6.1
X4.122Y-5.75
X4.322Y-5.75
X4.122Y-6.25
X4.322Y-6.25
X4.122Y-5.5
X4.322Y-5.5
X4.132Y-2.68
X4.332Y-2.68
X4.122Y-6.
X4.322Y-6.
X4.922Y-5.65
X5.122Y-5.65
T4
X4.3236Y-5.1
X4.422Y-5.1
X5.6036Y-4.92
X5.702Y-4.92
X5.6136Y-4.08
X5.712Y-4.08
X4.532Y-2.6316
X4.532Y-2.73
X5.6036Y-5.34
X5.702Y-5.34
T5
X3.8Y-5.55
X3.8Y-5.65
X3.8Y-5.75
X5.592Y-2.62
X5.592Y-2.72
X5.592Y-2.82
X5.592Y-2.92
X5.592Y-3.18
X5.592Y-3.28
X5.592Y-3.38
X5.592Y-3.48
X3.8Y-6.05
X3.8Y-6.15
X3.8Y-6.25
X4.4261Y-3.94
X4.4261Y-4.1172
X4.682Y-3.94
X4.682Y-4.1172
X4.822Y-3.9428
X4.822Y-4.12
X5.078Y-3.9428
X5.078Y-4.12
X5.682Y-4.38
X5.682Y-4.48
X5.682Y-4.58
T6
X3.79Y-2.77
X3.79Y-2.87
X3.79Y-2.97
X3.79Y-3.07
X3.79Y-3.17
X3.79Y-3.27
X3.79Y-3.37
X3.89Y-2.77
X3.89Y-2.87
X3.89Y-2.97
X3.89Y-3.07
X3.89Y-3.17
X3.89Y-3.27
X3.89Y-3.37
X3.8Y-4.3
X3.8Y-4.4
X3.8Y-4.5
X3.9Y-4.3
X3.9Y-4.4
X3.9Y-4.5
T7
X3.8Y-4.9823
X3.8Y-5.0492
X3.8Y-5.1161
X3.8Y-5.1831
X3.8Y-5.25
T8
X4.672Y-5.25
X5.072Y-5.25
X4.472Y-4.4
X4.472Y-4.8
T9
X4.772Y-4.8
X4.9689Y-4.8
T10
X5.622Y-5.95
X5.622Y-6.15
T11
X3.922Y-6.63
X5.502Y-6.64
X5.502Y-2.11
X3.922Y-2.12
T0
M30
