G04 #@! TF.GenerationSoftware,KiCad,Pcbnew,(5.0.1-3-g963ef8bb5)*
G04 #@! TF.CreationDate,2019-04-20T19:45:59+01:00*
G04 #@! TF.ProjectId,flipcontrol,666C6970636F6E74726F6C2E6B696361,rev?*
G04 #@! TF.SameCoordinates,Original*
G04 #@! TF.FileFunction,Paste,Top*
G04 #@! TF.FilePolarity,Positive*
%FSLAX46Y46*%
G04 Gerber Fmt 4.6, Leading zero omitted, Abs format (unit mm)*
G04 Created by KiCad (PCBNEW (5.0.1-3-g963ef8bb5)) date Saturday, 20 April 2019 at 19:45:59*
%MOMM*%
%LPD*%
G01*
G04 APERTURE LIST*
%ADD10R,2.000000X0.900000*%
%ADD11R,0.900000X2.000000*%
%ADD12R,5.000000X5.000000*%
G04 APERTURE END LIST*
D10*
G04 #@! TO.C,MOD1*
X119126000Y-72898000D03*
D11*
X121911000Y-90408000D03*
X123181000Y-90408000D03*
X124451000Y-90408000D03*
X125721000Y-90408000D03*
X126991000Y-90408000D03*
X128261000Y-90408000D03*
X129531000Y-90408000D03*
X130801000Y-90408000D03*
X132071000Y-90408000D03*
X133341000Y-90408000D03*
D10*
X119126000Y-74168000D03*
X119126000Y-75438000D03*
X119126000Y-76708000D03*
X119126000Y-77978000D03*
X119126000Y-79248000D03*
X119126000Y-80518000D03*
X119126000Y-81788000D03*
X119126000Y-83058000D03*
X119126000Y-84328000D03*
X119126000Y-85598000D03*
X119126000Y-86868000D03*
X119126000Y-88138000D03*
X119126000Y-89408000D03*
X136126000Y-72898000D03*
X136126000Y-74168000D03*
X136126000Y-75438000D03*
X136126000Y-76708000D03*
X136126000Y-77978000D03*
X136126000Y-79248000D03*
X136126000Y-80518000D03*
X136126000Y-81788000D03*
X136126000Y-83058000D03*
X136126000Y-84328000D03*
X136126000Y-85598000D03*
X136126000Y-86868000D03*
X136126000Y-88138000D03*
X136126000Y-89408000D03*
D12*
X126626000Y-79398000D03*
G04 #@! TD*
M02*
