G04 #@! TF.GenerationSoftware,KiCad,Pcbnew,(5.0.1-3-g963ef8bb5)*
G04 #@! TF.CreationDate,2019-04-20T19:45:59+01:00*
G04 #@! TF.ProjectId,flipcontrol,666C6970636F6E74726F6C2E6B696361,rev?*
G04 #@! TF.SameCoordinates,Original*
G04 #@! TF.FileFunction,Legend,Top*
G04 #@! TF.FilePolarity,Positive*
%FSLAX46Y46*%
G04 Gerber Fmt 4.6, Leading zero omitted, Abs format (unit mm)*
G04 Created by KiCad (PCBNEW (5.0.1-3-g963ef8bb5)) date Saturday, 20 April 2019 at 19:45:59*
%MOMM*%
%LPD*%
G01*
G04 APERTURE LIST*
%ADD10C,0.300000*%
%ADD11C,0.125000*%
%ADD12C,0.250000*%
%ADD13C,0.120000*%
%ADD14C,0.100000*%
%ADD15C,0.150000*%
%ADD16C,0.200000*%
%ADD17C,0.254000*%
G04 APERTURE END LIST*
D10*
X112122571Y-166302571D02*
X112408285Y-167302571D01*
X112694000Y-166588285D01*
X112979714Y-167302571D01*
X113265428Y-166302571D01*
X113836857Y-167302571D02*
X113836857Y-166302571D01*
X113836857Y-165802571D02*
X113765428Y-165874000D01*
X113836857Y-165945428D01*
X113908285Y-165874000D01*
X113836857Y-165802571D01*
X113836857Y-165945428D01*
X114765428Y-167302571D02*
X114622571Y-167231142D01*
X114551142Y-167088285D01*
X114551142Y-165802571D01*
X115551142Y-167302571D02*
X115408285Y-167231142D01*
X115336857Y-167088285D01*
X115336857Y-165802571D01*
X115908285Y-166302571D02*
X116479714Y-166302571D01*
X116122571Y-167302571D02*
X116122571Y-166016857D01*
X116194000Y-165874000D01*
X116336857Y-165802571D01*
X116479714Y-165802571D01*
X117622571Y-166302571D02*
X117622571Y-167302571D01*
X116979714Y-166302571D02*
X116979714Y-167088285D01*
X117051142Y-167231142D01*
X117194000Y-167302571D01*
X117408285Y-167302571D01*
X117551142Y-167231142D01*
X117622571Y-167159714D01*
X118336857Y-167302571D02*
X118336857Y-166302571D01*
X118336857Y-166588285D02*
X118408285Y-166445428D01*
X118479714Y-166374000D01*
X118622571Y-166302571D01*
X118765428Y-166302571D01*
X119265428Y-166302571D02*
X119265428Y-167302571D01*
X119265428Y-166445428D02*
X119336857Y-166374000D01*
X119479714Y-166302571D01*
X119694000Y-166302571D01*
X119836857Y-166374000D01*
X119908285Y-166516857D01*
X119908285Y-167302571D01*
X121194000Y-167231142D02*
X121051142Y-167302571D01*
X120765428Y-167302571D01*
X120622571Y-167231142D01*
X120551142Y-167088285D01*
X120551142Y-166516857D01*
X120622571Y-166374000D01*
X120765428Y-166302571D01*
X121051142Y-166302571D01*
X121194000Y-166374000D01*
X121265428Y-166516857D01*
X121265428Y-166659714D01*
X120551142Y-166802571D01*
X122122571Y-167302571D02*
X121979714Y-167231142D01*
X121908285Y-167088285D01*
X121908285Y-165802571D01*
X122908285Y-167302571D02*
X122765428Y-167231142D01*
X122694000Y-167088285D01*
X122694000Y-165802571D01*
X123479714Y-167159714D02*
X123551142Y-167231142D01*
X123479714Y-167302571D01*
X123408285Y-167231142D01*
X123479714Y-167159714D01*
X123479714Y-167302571D01*
X124836857Y-167231142D02*
X124694000Y-167302571D01*
X124408285Y-167302571D01*
X124265428Y-167231142D01*
X124194000Y-167159714D01*
X124122571Y-167016857D01*
X124122571Y-166588285D01*
X124194000Y-166445428D01*
X124265428Y-166374000D01*
X124408285Y-166302571D01*
X124694000Y-166302571D01*
X124836857Y-166374000D01*
X125694000Y-167302571D02*
X125551142Y-167231142D01*
X125479714Y-167159714D01*
X125408285Y-167016857D01*
X125408285Y-166588285D01*
X125479714Y-166445428D01*
X125551142Y-166374000D01*
X125694000Y-166302571D01*
X125908285Y-166302571D01*
X126051142Y-166374000D01*
X126122571Y-166445428D01*
X126194000Y-166588285D01*
X126194000Y-167016857D01*
X126122571Y-167159714D01*
X126051142Y-167231142D01*
X125908285Y-167302571D01*
X125694000Y-167302571D01*
X126836857Y-167302571D02*
X126836857Y-166302571D01*
X126836857Y-166445428D02*
X126908285Y-166374000D01*
X127051142Y-166302571D01*
X127265428Y-166302571D01*
X127408285Y-166374000D01*
X127479714Y-166516857D01*
X127479714Y-167302571D01*
X127479714Y-166516857D02*
X127551142Y-166374000D01*
X127694000Y-166302571D01*
X127908285Y-166302571D01*
X128051142Y-166374000D01*
X128122571Y-166516857D01*
X128122571Y-167302571D01*
D11*
X124345619Y-82696857D02*
X124440857Y-83030190D01*
X124536095Y-82792095D01*
X124631333Y-83030190D01*
X124726571Y-82696857D01*
X124917047Y-83030190D02*
X124917047Y-82696857D01*
X124917047Y-82530190D02*
X124893238Y-82554000D01*
X124917047Y-82577809D01*
X124940857Y-82554000D01*
X124917047Y-82530190D01*
X124917047Y-82577809D01*
X125226571Y-83030190D02*
X125178952Y-83006380D01*
X125155142Y-82958761D01*
X125155142Y-82530190D01*
X125488476Y-83030190D02*
X125440857Y-83006380D01*
X125417047Y-82958761D01*
X125417047Y-82530190D01*
X126012285Y-82696857D02*
X126107523Y-83030190D01*
X126202761Y-82792095D01*
X126298000Y-83030190D01*
X126393238Y-82696857D01*
X126798000Y-83030190D02*
X126798000Y-82768285D01*
X126774190Y-82720666D01*
X126726571Y-82696857D01*
X126631333Y-82696857D01*
X126583714Y-82720666D01*
X126798000Y-83006380D02*
X126750380Y-83030190D01*
X126631333Y-83030190D01*
X126583714Y-83006380D01*
X126559904Y-82958761D01*
X126559904Y-82911142D01*
X126583714Y-82863523D01*
X126631333Y-82839714D01*
X126750380Y-82839714D01*
X126798000Y-82815904D01*
X127012285Y-83006380D02*
X127059904Y-83030190D01*
X127155142Y-83030190D01*
X127202761Y-83006380D01*
X127226571Y-82958761D01*
X127226571Y-82934952D01*
X127202761Y-82887333D01*
X127155142Y-82863523D01*
X127083714Y-82863523D01*
X127036095Y-82839714D01*
X127012285Y-82792095D01*
X127012285Y-82768285D01*
X127036095Y-82720666D01*
X127083714Y-82696857D01*
X127155142Y-82696857D01*
X127202761Y-82720666D01*
X127821809Y-83030190D02*
X127821809Y-82530190D01*
X128036095Y-83030190D02*
X128036095Y-82768285D01*
X128012285Y-82720666D01*
X127964666Y-82696857D01*
X127893238Y-82696857D01*
X127845619Y-82720666D01*
X127821809Y-82744476D01*
X128464666Y-83006380D02*
X128417047Y-83030190D01*
X128321809Y-83030190D01*
X128274190Y-83006380D01*
X128250380Y-82958761D01*
X128250380Y-82768285D01*
X128274190Y-82720666D01*
X128321809Y-82696857D01*
X128417047Y-82696857D01*
X128464666Y-82720666D01*
X128488476Y-82768285D01*
X128488476Y-82815904D01*
X128250380Y-82863523D01*
X128702761Y-83030190D02*
X128702761Y-82696857D01*
X128702761Y-82792095D02*
X128726571Y-82744476D01*
X128750380Y-82720666D01*
X128798000Y-82696857D01*
X128845619Y-82696857D01*
X129202761Y-83006380D02*
X129155142Y-83030190D01*
X129059904Y-83030190D01*
X129012285Y-83006380D01*
X128988476Y-82958761D01*
X128988476Y-82768285D01*
X129012285Y-82720666D01*
X129059904Y-82696857D01*
X129155142Y-82696857D01*
X129202761Y-82720666D01*
X129226571Y-82768285D01*
X129226571Y-82815904D01*
X128988476Y-82863523D01*
D12*
X105101047Y-174324095D02*
X105101047Y-173024095D01*
X105101047Y-173519333D02*
X105224857Y-173457428D01*
X105472476Y-173457428D01*
X105596285Y-173519333D01*
X105658190Y-173581238D01*
X105720095Y-173705047D01*
X105720095Y-174076476D01*
X105658190Y-174200285D01*
X105596285Y-174262190D01*
X105472476Y-174324095D01*
X105224857Y-174324095D01*
X105101047Y-174262190D01*
X106834380Y-174324095D02*
X106834380Y-173643142D01*
X106772476Y-173519333D01*
X106648666Y-173457428D01*
X106401047Y-173457428D01*
X106277238Y-173519333D01*
X106834380Y-174262190D02*
X106710571Y-174324095D01*
X106401047Y-174324095D01*
X106277238Y-174262190D01*
X106215333Y-174138380D01*
X106215333Y-174014571D01*
X106277238Y-173890761D01*
X106401047Y-173828857D01*
X106710571Y-173828857D01*
X106834380Y-173766952D01*
X107391523Y-174262190D02*
X107515333Y-174324095D01*
X107762952Y-174324095D01*
X107886761Y-174262190D01*
X107948666Y-174138380D01*
X107948666Y-174076476D01*
X107886761Y-173952666D01*
X107762952Y-173890761D01*
X107577238Y-173890761D01*
X107453428Y-173828857D01*
X107391523Y-173705047D01*
X107391523Y-173643142D01*
X107453428Y-173519333D01*
X107577238Y-173457428D01*
X107762952Y-173457428D01*
X107886761Y-173519333D01*
X109001047Y-174262190D02*
X108877238Y-174324095D01*
X108629619Y-174324095D01*
X108505809Y-174262190D01*
X108443904Y-174138380D01*
X108443904Y-173643142D01*
X108505809Y-173519333D01*
X108629619Y-173457428D01*
X108877238Y-173457428D01*
X109001047Y-173519333D01*
X109062952Y-173643142D01*
X109062952Y-173766952D01*
X108443904Y-173890761D01*
X110177238Y-174324095D02*
X110177238Y-173024095D01*
X110177238Y-174262190D02*
X110053428Y-174324095D01*
X109805809Y-174324095D01*
X109682000Y-174262190D01*
X109620095Y-174200285D01*
X109558190Y-174076476D01*
X109558190Y-173705047D01*
X109620095Y-173581238D01*
X109682000Y-173519333D01*
X109805809Y-173457428D01*
X110053428Y-173457428D01*
X110177238Y-173519333D01*
X111972476Y-174324095D02*
X111848666Y-174262190D01*
X111786761Y-174200285D01*
X111724857Y-174076476D01*
X111724857Y-173705047D01*
X111786761Y-173581238D01*
X111848666Y-173519333D01*
X111972476Y-173457428D01*
X112158190Y-173457428D01*
X112282000Y-173519333D01*
X112343904Y-173581238D01*
X112405809Y-173705047D01*
X112405809Y-174076476D01*
X112343904Y-174200285D01*
X112282000Y-174262190D01*
X112158190Y-174324095D01*
X111972476Y-174324095D01*
X112962952Y-173457428D02*
X112962952Y-174324095D01*
X112962952Y-173581238D02*
X113024857Y-173519333D01*
X113148666Y-173457428D01*
X113334380Y-173457428D01*
X113458190Y-173519333D01*
X113520095Y-173643142D01*
X113520095Y-174324095D01*
X115686761Y-174324095D02*
X115686761Y-173643142D01*
X115624857Y-173519333D01*
X115501047Y-173457428D01*
X115253428Y-173457428D01*
X115129619Y-173519333D01*
X115686761Y-174262190D02*
X115562952Y-174324095D01*
X115253428Y-174324095D01*
X115129619Y-174262190D01*
X115067714Y-174138380D01*
X115067714Y-174014571D01*
X115129619Y-173890761D01*
X115253428Y-173828857D01*
X115562952Y-173828857D01*
X115686761Y-173766952D01*
X117853428Y-174324095D02*
X117853428Y-173024095D01*
X117853428Y-174262190D02*
X117729619Y-174324095D01*
X117482000Y-174324095D01*
X117358190Y-174262190D01*
X117296285Y-174200285D01*
X117234380Y-174076476D01*
X117234380Y-173705047D01*
X117296285Y-173581238D01*
X117358190Y-173519333D01*
X117482000Y-173457428D01*
X117729619Y-173457428D01*
X117853428Y-173519333D01*
X118967714Y-174262190D02*
X118843904Y-174324095D01*
X118596285Y-174324095D01*
X118472476Y-174262190D01*
X118410571Y-174138380D01*
X118410571Y-173643142D01*
X118472476Y-173519333D01*
X118596285Y-173457428D01*
X118843904Y-173457428D01*
X118967714Y-173519333D01*
X119029619Y-173643142D01*
X119029619Y-173766952D01*
X118410571Y-173890761D01*
X119524857Y-174262190D02*
X119648666Y-174324095D01*
X119896285Y-174324095D01*
X120020095Y-174262190D01*
X120082000Y-174138380D01*
X120082000Y-174076476D01*
X120020095Y-173952666D01*
X119896285Y-173890761D01*
X119710571Y-173890761D01*
X119586761Y-173828857D01*
X119524857Y-173705047D01*
X119524857Y-173643142D01*
X119586761Y-173519333D01*
X119710571Y-173457428D01*
X119896285Y-173457428D01*
X120020095Y-173519333D01*
X120639142Y-174324095D02*
X120639142Y-173457428D01*
X120639142Y-173024095D02*
X120577238Y-173086000D01*
X120639142Y-173147904D01*
X120701047Y-173086000D01*
X120639142Y-173024095D01*
X120639142Y-173147904D01*
X121815333Y-173457428D02*
X121815333Y-174509809D01*
X121753428Y-174633619D01*
X121691523Y-174695523D01*
X121567714Y-174757428D01*
X121382000Y-174757428D01*
X121258190Y-174695523D01*
X121815333Y-174262190D02*
X121691523Y-174324095D01*
X121443904Y-174324095D01*
X121320095Y-174262190D01*
X121258190Y-174200285D01*
X121196285Y-174076476D01*
X121196285Y-173705047D01*
X121258190Y-173581238D01*
X121320095Y-173519333D01*
X121443904Y-173457428D01*
X121691523Y-173457428D01*
X121815333Y-173519333D01*
X122434380Y-173457428D02*
X122434380Y-174324095D01*
X122434380Y-173581238D02*
X122496285Y-173519333D01*
X122620095Y-173457428D01*
X122805809Y-173457428D01*
X122929619Y-173519333D01*
X122991523Y-173643142D01*
X122991523Y-174324095D01*
X124601047Y-174324095D02*
X124601047Y-173024095D01*
X124601047Y-173519333D02*
X124724857Y-173457428D01*
X124972476Y-173457428D01*
X125096285Y-173519333D01*
X125158190Y-173581238D01*
X125220095Y-173705047D01*
X125220095Y-174076476D01*
X125158190Y-174200285D01*
X125096285Y-174262190D01*
X124972476Y-174324095D01*
X124724857Y-174324095D01*
X124601047Y-174262190D01*
X125653428Y-173457428D02*
X125962952Y-174324095D01*
X126272476Y-173457428D02*
X125962952Y-174324095D01*
X125839142Y-174633619D01*
X125777238Y-174695523D01*
X125653428Y-174757428D01*
X128315333Y-174324095D02*
X128315333Y-173024095D01*
X128315333Y-174262190D02*
X128191523Y-174324095D01*
X127943904Y-174324095D01*
X127820095Y-174262190D01*
X127758190Y-174200285D01*
X127696285Y-174076476D01*
X127696285Y-173705047D01*
X127758190Y-173581238D01*
X127820095Y-173519333D01*
X127943904Y-173457428D01*
X128191523Y-173457428D01*
X128315333Y-173519333D01*
X129491523Y-174324095D02*
X129491523Y-173643142D01*
X129429619Y-173519333D01*
X129305809Y-173457428D01*
X129058190Y-173457428D01*
X128934380Y-173519333D01*
X129491523Y-174262190D02*
X129367714Y-174324095D01*
X129058190Y-174324095D01*
X128934380Y-174262190D01*
X128872476Y-174138380D01*
X128872476Y-174014571D01*
X128934380Y-173890761D01*
X129058190Y-173828857D01*
X129367714Y-173828857D01*
X129491523Y-173766952D01*
X130110571Y-174324095D02*
X130110571Y-173457428D01*
X130110571Y-173581238D02*
X130172476Y-173519333D01*
X130296285Y-173457428D01*
X130482000Y-173457428D01*
X130605809Y-173519333D01*
X130667714Y-173643142D01*
X130667714Y-174324095D01*
X130667714Y-173643142D02*
X130729619Y-173519333D01*
X130853428Y-173457428D01*
X131039142Y-173457428D01*
X131162952Y-173519333D01*
X131224857Y-173643142D01*
X131224857Y-174324095D01*
X132029619Y-174324095D02*
X131905809Y-174262190D01*
X131843904Y-174200285D01*
X131782000Y-174076476D01*
X131782000Y-173705047D01*
X131843904Y-173581238D01*
X131905809Y-173519333D01*
X132029619Y-173457428D01*
X132215333Y-173457428D01*
X132339142Y-173519333D01*
X132401047Y-173581238D01*
X132462952Y-173705047D01*
X132462952Y-174076476D01*
X132401047Y-174200285D01*
X132339142Y-174262190D01*
X132215333Y-174324095D01*
X132029619Y-174324095D01*
X132896285Y-173457428D02*
X133143904Y-174324095D01*
X133391523Y-173705047D01*
X133639142Y-174324095D01*
X133886761Y-173457428D01*
D10*
X108479714Y-55050571D02*
X109051142Y-55050571D01*
X108693999Y-56050571D02*
X108693999Y-54764857D01*
X108765428Y-54622000D01*
X108908285Y-54550571D01*
X109051142Y-54550571D01*
X109765428Y-56050571D02*
X109622571Y-55979142D01*
X109551142Y-55907714D01*
X109479714Y-55764857D01*
X109479714Y-55336285D01*
X109551142Y-55193428D01*
X109622571Y-55122000D01*
X109765428Y-55050571D01*
X109979714Y-55050571D01*
X110122571Y-55122000D01*
X110193999Y-55193428D01*
X110265428Y-55336285D01*
X110265428Y-55764857D01*
X110193999Y-55907714D01*
X110122571Y-55979142D01*
X109979714Y-56050571D01*
X109765428Y-56050571D01*
X110908285Y-56050571D02*
X110908285Y-55050571D01*
X110908285Y-55336285D02*
X110979714Y-55193428D01*
X111051142Y-55122000D01*
X111193999Y-55050571D01*
X111336857Y-55050571D01*
X112979714Y-56050571D02*
X112979714Y-54550571D01*
X112979714Y-55264857D02*
X113836857Y-55264857D01*
X113836857Y-56050571D02*
X113836857Y-54550571D01*
X115193999Y-56050571D02*
X115193999Y-55264857D01*
X115122571Y-55122000D01*
X114979714Y-55050571D01*
X114693999Y-55050571D01*
X114551142Y-55122000D01*
X115193999Y-55979142D02*
X115051142Y-56050571D01*
X114693999Y-56050571D01*
X114551142Y-55979142D01*
X114479714Y-55836285D01*
X114479714Y-55693428D01*
X114551142Y-55550571D01*
X114693999Y-55479142D01*
X115051142Y-55479142D01*
X115193999Y-55407714D01*
X115908285Y-55050571D02*
X115908285Y-56050571D01*
X115908285Y-55193428D02*
X115979714Y-55122000D01*
X116122571Y-55050571D01*
X116336857Y-55050571D01*
X116479714Y-55122000D01*
X116551142Y-55264857D01*
X116551142Y-56050571D01*
X117479714Y-56050571D02*
X117336857Y-55979142D01*
X117265428Y-55907714D01*
X117193999Y-55764857D01*
X117193999Y-55336285D01*
X117265428Y-55193428D01*
X117336857Y-55122000D01*
X117479714Y-55050571D01*
X117693999Y-55050571D01*
X117836857Y-55122000D01*
X117908285Y-55193428D01*
X117979714Y-55336285D01*
X117979714Y-55764857D01*
X117908285Y-55907714D01*
X117836857Y-55979142D01*
X117693999Y-56050571D01*
X117479714Y-56050571D01*
X118479714Y-55050571D02*
X118836857Y-56050571D01*
X119193999Y-55050571D01*
X120336857Y-55979142D02*
X120193999Y-56050571D01*
X119908285Y-56050571D01*
X119765428Y-55979142D01*
X119693999Y-55836285D01*
X119693999Y-55264857D01*
X119765428Y-55122000D01*
X119908285Y-55050571D01*
X120193999Y-55050571D01*
X120336857Y-55122000D01*
X120408285Y-55264857D01*
X120408285Y-55407714D01*
X119693999Y-55550571D01*
X121051142Y-56050571D02*
X121051142Y-55050571D01*
X121051142Y-55336285D02*
X121122571Y-55193428D01*
X121193999Y-55122000D01*
X121336857Y-55050571D01*
X121479714Y-55050571D01*
X123122571Y-56050571D02*
X123122571Y-54550571D01*
X123479714Y-54550571D01*
X123694000Y-54622000D01*
X123836857Y-54764857D01*
X123908285Y-54907714D01*
X123979714Y-55193428D01*
X123979714Y-55407714D01*
X123908285Y-55693428D01*
X123836857Y-55836285D01*
X123694000Y-55979142D01*
X123479714Y-56050571D01*
X123122571Y-56050571D01*
X124622571Y-56050571D02*
X124622571Y-55050571D01*
X124622571Y-54550571D02*
X124551142Y-54622000D01*
X124622571Y-54693428D01*
X124694000Y-54622000D01*
X124622571Y-54550571D01*
X124622571Y-54693428D01*
X125265428Y-55979142D02*
X125408285Y-56050571D01*
X125694000Y-56050571D01*
X125836857Y-55979142D01*
X125908285Y-55836285D01*
X125908285Y-55764857D01*
X125836857Y-55622000D01*
X125694000Y-55550571D01*
X125479714Y-55550571D01*
X125336857Y-55479142D01*
X125265428Y-55336285D01*
X125265428Y-55264857D01*
X125336857Y-55122000D01*
X125479714Y-55050571D01*
X125694000Y-55050571D01*
X125836857Y-55122000D01*
X126551142Y-55050571D02*
X126551142Y-56550571D01*
X126551142Y-55122000D02*
X126694000Y-55050571D01*
X126979714Y-55050571D01*
X127122571Y-55122000D01*
X127194000Y-55193428D01*
X127265428Y-55336285D01*
X127265428Y-55764857D01*
X127194000Y-55907714D01*
X127122571Y-55979142D01*
X126979714Y-56050571D01*
X126694000Y-56050571D01*
X126551142Y-55979142D01*
X128122571Y-56050571D02*
X127979714Y-55979142D01*
X127908285Y-55836285D01*
X127908285Y-54550571D01*
X129336857Y-56050571D02*
X129336857Y-55264857D01*
X129265428Y-55122000D01*
X129122571Y-55050571D01*
X128836857Y-55050571D01*
X128694000Y-55122000D01*
X129336857Y-55979142D02*
X129194000Y-56050571D01*
X128836857Y-56050571D01*
X128694000Y-55979142D01*
X128622571Y-55836285D01*
X128622571Y-55693428D01*
X128694000Y-55550571D01*
X128836857Y-55479142D01*
X129194000Y-55479142D01*
X129336857Y-55407714D01*
X129908285Y-55050571D02*
X130265428Y-56050571D01*
X130622571Y-55050571D02*
X130265428Y-56050571D01*
X130122571Y-56407714D01*
X130051142Y-56479142D01*
X129908285Y-56550571D01*
X131122571Y-55979142D02*
X131265428Y-56050571D01*
X131551142Y-56050571D01*
X131694000Y-55979142D01*
X131765428Y-55836285D01*
X131765428Y-55764857D01*
X131694000Y-55622000D01*
X131551142Y-55550571D01*
X131336857Y-55550571D01*
X131194000Y-55479142D01*
X131122571Y-55336285D01*
X131122571Y-55264857D01*
X131194000Y-55122000D01*
X131336857Y-55050571D01*
X131551142Y-55050571D01*
X131694000Y-55122000D01*
X145788571Y-175430571D02*
X145788571Y-174430571D01*
X145788571Y-174716285D02*
X145860000Y-174573428D01*
X145931428Y-174502000D01*
X146074285Y-174430571D01*
X146217142Y-174430571D01*
X147502857Y-175430571D02*
X146645714Y-175430571D01*
X147074285Y-175430571D02*
X147074285Y-173930571D01*
X146931428Y-174144857D01*
X146788571Y-174287714D01*
X146645714Y-174359142D01*
X110007428Y-163516571D02*
X110364571Y-165016571D01*
X110650285Y-163945142D01*
X110936000Y-165016571D01*
X111293142Y-163516571D01*
X111864571Y-165016571D02*
X111864571Y-164016571D01*
X111864571Y-163516571D02*
X111793142Y-163588000D01*
X111864571Y-163659428D01*
X111936000Y-163588000D01*
X111864571Y-163516571D01*
X111864571Y-163659428D01*
X112793142Y-165016571D02*
X112650285Y-164945142D01*
X112578857Y-164802285D01*
X112578857Y-163516571D01*
X113578857Y-165016571D02*
X113436000Y-164945142D01*
X113364571Y-164802285D01*
X113364571Y-163516571D01*
X115793142Y-164230857D02*
X115293142Y-164230857D01*
X115293142Y-165016571D02*
X115293142Y-163516571D01*
X116007428Y-163516571D01*
X117221714Y-164016571D02*
X117221714Y-165016571D01*
X116578857Y-164016571D02*
X116578857Y-164802285D01*
X116650285Y-164945142D01*
X116793142Y-165016571D01*
X117007428Y-165016571D01*
X117150285Y-164945142D01*
X117221714Y-164873714D01*
X117936000Y-165016571D02*
X117936000Y-164016571D01*
X117936000Y-164302285D02*
X118007428Y-164159428D01*
X118078857Y-164088000D01*
X118221714Y-164016571D01*
X118364571Y-164016571D01*
X118864571Y-164016571D02*
X118864571Y-165016571D01*
X118864571Y-164159428D02*
X118936000Y-164088000D01*
X119078857Y-164016571D01*
X119293142Y-164016571D01*
X119436000Y-164088000D01*
X119507428Y-164230857D01*
X119507428Y-165016571D01*
X120793142Y-164945142D02*
X120650285Y-165016571D01*
X120364571Y-165016571D01*
X120221714Y-164945142D01*
X120150285Y-164802285D01*
X120150285Y-164230857D01*
X120221714Y-164088000D01*
X120364571Y-164016571D01*
X120650285Y-164016571D01*
X120793142Y-164088000D01*
X120864571Y-164230857D01*
X120864571Y-164373714D01*
X120150285Y-164516571D01*
X121721714Y-165016571D02*
X121578857Y-164945142D01*
X121507428Y-164802285D01*
X121507428Y-163516571D01*
X122507428Y-165016571D02*
X122364571Y-164945142D01*
X122293142Y-164802285D01*
X122293142Y-163516571D01*
X124150285Y-163659428D02*
X124221714Y-163588000D01*
X124364571Y-163516571D01*
X124721714Y-163516571D01*
X124864571Y-163588000D01*
X124936000Y-163659428D01*
X125007428Y-163802285D01*
X125007428Y-163945142D01*
X124936000Y-164159428D01*
X124078857Y-165016571D01*
X125007428Y-165016571D01*
X125936000Y-163516571D02*
X126078857Y-163516571D01*
X126221714Y-163588000D01*
X126293142Y-163659428D01*
X126364571Y-163802285D01*
X126436000Y-164088000D01*
X126436000Y-164445142D01*
X126364571Y-164730857D01*
X126293142Y-164873714D01*
X126221714Y-164945142D01*
X126078857Y-165016571D01*
X125936000Y-165016571D01*
X125793142Y-164945142D01*
X125721714Y-164873714D01*
X125650285Y-164730857D01*
X125578857Y-164445142D01*
X125578857Y-164088000D01*
X125650285Y-163802285D01*
X125721714Y-163659428D01*
X125793142Y-163588000D01*
X125936000Y-163516571D01*
X127864571Y-165016571D02*
X127007428Y-165016571D01*
X127436000Y-165016571D02*
X127436000Y-163516571D01*
X127293142Y-163730857D01*
X127150285Y-163873714D01*
X127007428Y-163945142D01*
X128578857Y-165016571D02*
X128864571Y-165016571D01*
X129007428Y-164945142D01*
X129078857Y-164873714D01*
X129221714Y-164659428D01*
X129293142Y-164373714D01*
X129293142Y-163802285D01*
X129221714Y-163659428D01*
X129150285Y-163588000D01*
X129007428Y-163516571D01*
X128721714Y-163516571D01*
X128578857Y-163588000D01*
X128507428Y-163659428D01*
X128436000Y-163802285D01*
X128436000Y-164159428D01*
X128507428Y-164302285D01*
X128578857Y-164373714D01*
X128721714Y-164445142D01*
X129007428Y-164445142D01*
X129150285Y-164373714D01*
X129221714Y-164302285D01*
X129293142Y-164159428D01*
X110797142Y-52216857D02*
X110297142Y-52216857D01*
X110297142Y-53002571D02*
X110297142Y-51502571D01*
X111011428Y-51502571D01*
X111797142Y-53002571D02*
X111654285Y-52931142D01*
X111582857Y-52788285D01*
X111582857Y-51502571D01*
X112368571Y-53002571D02*
X112368571Y-52002571D01*
X112368571Y-51502571D02*
X112297142Y-51574000D01*
X112368571Y-51645428D01*
X112440000Y-51574000D01*
X112368571Y-51502571D01*
X112368571Y-51645428D01*
X113082857Y-52002571D02*
X113082857Y-53502571D01*
X113082857Y-52074000D02*
X113225714Y-52002571D01*
X113511428Y-52002571D01*
X113654285Y-52074000D01*
X113725714Y-52145428D01*
X113797142Y-52288285D01*
X113797142Y-52716857D01*
X113725714Y-52859714D01*
X113654285Y-52931142D01*
X113511428Y-53002571D01*
X113225714Y-53002571D01*
X113082857Y-52931142D01*
X115082857Y-53002571D02*
X115082857Y-51502571D01*
X115082857Y-52931142D02*
X114940000Y-53002571D01*
X114654285Y-53002571D01*
X114511428Y-52931142D01*
X114440000Y-52859714D01*
X114368571Y-52716857D01*
X114368571Y-52288285D01*
X114440000Y-52145428D01*
X114511428Y-52074000D01*
X114654285Y-52002571D01*
X114940000Y-52002571D01*
X115082857Y-52074000D01*
X116011428Y-53002571D02*
X115868571Y-52931142D01*
X115797142Y-52859714D01*
X115725714Y-52716857D01*
X115725714Y-52288285D01*
X115797142Y-52145428D01*
X115868571Y-52074000D01*
X116011428Y-52002571D01*
X116225714Y-52002571D01*
X116368571Y-52074000D01*
X116440000Y-52145428D01*
X116511428Y-52288285D01*
X116511428Y-52716857D01*
X116440000Y-52859714D01*
X116368571Y-52931142D01*
X116225714Y-53002571D01*
X116011428Y-53002571D01*
X116940000Y-52002571D02*
X117511428Y-52002571D01*
X117154285Y-51502571D02*
X117154285Y-52788285D01*
X117225714Y-52931142D01*
X117368571Y-53002571D01*
X117511428Y-53002571D01*
X120011428Y-52859714D02*
X119940000Y-52931142D01*
X119725714Y-53002571D01*
X119582857Y-53002571D01*
X119368571Y-52931142D01*
X119225714Y-52788285D01*
X119154285Y-52645428D01*
X119082857Y-52359714D01*
X119082857Y-52145428D01*
X119154285Y-51859714D01*
X119225714Y-51716857D01*
X119368571Y-51574000D01*
X119582857Y-51502571D01*
X119725714Y-51502571D01*
X119940000Y-51574000D01*
X120011428Y-51645428D01*
X120868571Y-53002571D02*
X120725714Y-52931142D01*
X120654285Y-52859714D01*
X120582857Y-52716857D01*
X120582857Y-52288285D01*
X120654285Y-52145428D01*
X120725714Y-52074000D01*
X120868571Y-52002571D01*
X121082857Y-52002571D01*
X121225714Y-52074000D01*
X121297142Y-52145428D01*
X121368571Y-52288285D01*
X121368571Y-52716857D01*
X121297142Y-52859714D01*
X121225714Y-52931142D01*
X121082857Y-53002571D01*
X120868571Y-53002571D01*
X122011428Y-52002571D02*
X122011428Y-53002571D01*
X122011428Y-52145428D02*
X122082857Y-52074000D01*
X122225714Y-52002571D01*
X122440000Y-52002571D01*
X122582857Y-52074000D01*
X122654285Y-52216857D01*
X122654285Y-53002571D01*
X123154285Y-52002571D02*
X123725714Y-52002571D01*
X123368571Y-51502571D02*
X123368571Y-52788285D01*
X123440000Y-52931142D01*
X123582857Y-53002571D01*
X123725714Y-53002571D01*
X124225714Y-53002571D02*
X124225714Y-52002571D01*
X124225714Y-52288285D02*
X124297142Y-52145428D01*
X124368571Y-52074000D01*
X124511428Y-52002571D01*
X124654285Y-52002571D01*
X125368571Y-53002571D02*
X125225714Y-52931142D01*
X125154285Y-52859714D01*
X125082857Y-52716857D01*
X125082857Y-52288285D01*
X125154285Y-52145428D01*
X125225714Y-52074000D01*
X125368571Y-52002571D01*
X125582857Y-52002571D01*
X125725714Y-52074000D01*
X125797142Y-52145428D01*
X125868571Y-52288285D01*
X125868571Y-52716857D01*
X125797142Y-52859714D01*
X125725714Y-52931142D01*
X125582857Y-53002571D01*
X125368571Y-53002571D01*
X126725714Y-53002571D02*
X126582857Y-52931142D01*
X126511428Y-52788285D01*
X126511428Y-51502571D01*
X127511428Y-53002571D02*
X127368571Y-52931142D01*
X127297142Y-52788285D01*
X127297142Y-51502571D01*
X128654285Y-52931142D02*
X128511428Y-53002571D01*
X128225714Y-53002571D01*
X128082857Y-52931142D01*
X128011428Y-52788285D01*
X128011428Y-52216857D01*
X128082857Y-52074000D01*
X128225714Y-52002571D01*
X128511428Y-52002571D01*
X128654285Y-52074000D01*
X128725714Y-52216857D01*
X128725714Y-52359714D01*
X128011428Y-52502571D01*
X129368571Y-53002571D02*
X129368571Y-52002571D01*
X129368571Y-52288285D02*
X129440000Y-52145428D01*
X129511428Y-52074000D01*
X129654285Y-52002571D01*
X129797142Y-52002571D01*
X123857428Y-107866571D02*
X123357428Y-107152285D01*
X123000285Y-107866571D02*
X123000285Y-106366571D01*
X123571714Y-106366571D01*
X123714571Y-106438000D01*
X123786000Y-106509428D01*
X123857428Y-106652285D01*
X123857428Y-106866571D01*
X123786000Y-107009428D01*
X123714571Y-107080857D01*
X123571714Y-107152285D01*
X123000285Y-107152285D01*
X124500285Y-107080857D02*
X125000285Y-107080857D01*
X125214571Y-107866571D02*
X124500285Y-107866571D01*
X124500285Y-106366571D01*
X125214571Y-106366571D01*
X125786000Y-107795142D02*
X126000285Y-107866571D01*
X126357428Y-107866571D01*
X126500285Y-107795142D01*
X126571714Y-107723714D01*
X126643142Y-107580857D01*
X126643142Y-107438000D01*
X126571714Y-107295142D01*
X126500285Y-107223714D01*
X126357428Y-107152285D01*
X126071714Y-107080857D01*
X125928857Y-107009428D01*
X125857428Y-106938000D01*
X125786000Y-106795142D01*
X125786000Y-106652285D01*
X125857428Y-106509428D01*
X125928857Y-106438000D01*
X126071714Y-106366571D01*
X126428857Y-106366571D01*
X126643142Y-106438000D01*
X127286000Y-107080857D02*
X127786000Y-107080857D01*
X128000285Y-107866571D02*
X127286000Y-107866571D01*
X127286000Y-106366571D01*
X128000285Y-106366571D01*
X128428857Y-106366571D02*
X129286000Y-106366571D01*
X128857428Y-107866571D02*
X128857428Y-106366571D01*
X110947428Y-107866571D02*
X110947428Y-106366571D01*
X111518857Y-106366571D01*
X111661714Y-106438000D01*
X111733142Y-106509428D01*
X111804571Y-106652285D01*
X111804571Y-106866571D01*
X111733142Y-107009428D01*
X111661714Y-107080857D01*
X111518857Y-107152285D01*
X110947428Y-107152285D01*
X113304571Y-107866571D02*
X112804571Y-107152285D01*
X112447428Y-107866571D02*
X112447428Y-106366571D01*
X113018857Y-106366571D01*
X113161714Y-106438000D01*
X113233142Y-106509428D01*
X113304571Y-106652285D01*
X113304571Y-106866571D01*
X113233142Y-107009428D01*
X113161714Y-107080857D01*
X113018857Y-107152285D01*
X112447428Y-107152285D01*
X114233142Y-106366571D02*
X114518857Y-106366571D01*
X114661714Y-106438000D01*
X114804571Y-106580857D01*
X114876000Y-106866571D01*
X114876000Y-107366571D01*
X114804571Y-107652285D01*
X114661714Y-107795142D01*
X114518857Y-107866571D01*
X114233142Y-107866571D01*
X114090285Y-107795142D01*
X113947428Y-107652285D01*
X113876000Y-107366571D01*
X113876000Y-106866571D01*
X113947428Y-106580857D01*
X114090285Y-106438000D01*
X114233142Y-106366571D01*
X116304571Y-106438000D02*
X116161714Y-106366571D01*
X115947428Y-106366571D01*
X115733142Y-106438000D01*
X115590285Y-106580857D01*
X115518857Y-106723714D01*
X115447428Y-107009428D01*
X115447428Y-107223714D01*
X115518857Y-107509428D01*
X115590285Y-107652285D01*
X115733142Y-107795142D01*
X115947428Y-107866571D01*
X116090285Y-107866571D01*
X116304571Y-107795142D01*
X116376000Y-107723714D01*
X116376000Y-107223714D01*
X116090285Y-107223714D01*
X117876000Y-107866571D02*
X117376000Y-107152285D01*
X117018857Y-107866571D02*
X117018857Y-106366571D01*
X117590285Y-106366571D01*
X117733142Y-106438000D01*
X117804571Y-106509428D01*
X117876000Y-106652285D01*
X117876000Y-106866571D01*
X117804571Y-107009428D01*
X117733142Y-107080857D01*
X117590285Y-107152285D01*
X117018857Y-107152285D01*
X118447428Y-107438000D02*
X119161714Y-107438000D01*
X118304571Y-107866571D02*
X118804571Y-106366571D01*
X119304571Y-107866571D01*
X119804571Y-107866571D02*
X119804571Y-106366571D01*
X120304571Y-107438000D01*
X120804571Y-106366571D01*
X120804571Y-107866571D01*
D11*
X114972190Y-160246190D02*
X114972190Y-159746190D01*
X115257904Y-160246190D01*
X115257904Y-159746190D01*
X115567428Y-160246190D02*
X115519809Y-160222380D01*
X115496000Y-160198571D01*
X115472190Y-160150952D01*
X115472190Y-160008095D01*
X115496000Y-159960476D01*
X115519809Y-159936666D01*
X115567428Y-159912857D01*
X115638857Y-159912857D01*
X115686476Y-159936666D01*
X115710285Y-159960476D01*
X115734095Y-160008095D01*
X115734095Y-160150952D01*
X115710285Y-160198571D01*
X115686476Y-160222380D01*
X115638857Y-160246190D01*
X115567428Y-160246190D01*
X115876952Y-159912857D02*
X116067428Y-159912857D01*
X115948380Y-159746190D02*
X115948380Y-160174761D01*
X115972190Y-160222380D01*
X116019809Y-160246190D01*
X116067428Y-160246190D01*
X116424571Y-160222380D02*
X116376952Y-160246190D01*
X116281714Y-160246190D01*
X116234095Y-160222380D01*
X116210285Y-160174761D01*
X116210285Y-159984285D01*
X116234095Y-159936666D01*
X116281714Y-159912857D01*
X116376952Y-159912857D01*
X116424571Y-159936666D01*
X116448380Y-159984285D01*
X116448380Y-160031904D01*
X116210285Y-160079523D01*
X116662666Y-160198571D02*
X116686476Y-160222380D01*
X116662666Y-160246190D01*
X116638857Y-160222380D01*
X116662666Y-160198571D01*
X116662666Y-160246190D01*
X116662666Y-159936666D02*
X116686476Y-159960476D01*
X116662666Y-159984285D01*
X116638857Y-159960476D01*
X116662666Y-159936666D01*
X116662666Y-159984285D01*
X117210285Y-159746190D02*
X117496000Y-159746190D01*
X117353142Y-160246190D02*
X117353142Y-159746190D01*
X117662666Y-160246190D02*
X117662666Y-159746190D01*
X117876952Y-160246190D02*
X117876952Y-159984285D01*
X117853142Y-159936666D01*
X117805523Y-159912857D01*
X117734095Y-159912857D01*
X117686476Y-159936666D01*
X117662666Y-159960476D01*
X118115047Y-160246190D02*
X118115047Y-159912857D01*
X118115047Y-159746190D02*
X118091238Y-159770000D01*
X118115047Y-159793809D01*
X118138857Y-159770000D01*
X118115047Y-159746190D01*
X118115047Y-159793809D01*
X118329333Y-160222380D02*
X118376952Y-160246190D01*
X118472190Y-160246190D01*
X118519809Y-160222380D01*
X118543619Y-160174761D01*
X118543619Y-160150952D01*
X118519809Y-160103333D01*
X118472190Y-160079523D01*
X118400761Y-160079523D01*
X118353142Y-160055714D01*
X118329333Y-160008095D01*
X118329333Y-159984285D01*
X118353142Y-159936666D01*
X118400761Y-159912857D01*
X118472190Y-159912857D01*
X118519809Y-159936666D01*
X119138857Y-160246190D02*
X119138857Y-159746190D01*
X119138857Y-159936666D02*
X119186476Y-159912857D01*
X119281714Y-159912857D01*
X119329333Y-159936666D01*
X119353142Y-159960476D01*
X119376952Y-160008095D01*
X119376952Y-160150952D01*
X119353142Y-160198571D01*
X119329333Y-160222380D01*
X119281714Y-160246190D01*
X119186476Y-160246190D01*
X119138857Y-160222380D01*
X119662666Y-160246190D02*
X119615047Y-160222380D01*
X119591238Y-160198571D01*
X119567428Y-160150952D01*
X119567428Y-160008095D01*
X119591238Y-159960476D01*
X119615047Y-159936666D01*
X119662666Y-159912857D01*
X119734095Y-159912857D01*
X119781714Y-159936666D01*
X119805523Y-159960476D01*
X119829333Y-160008095D01*
X119829333Y-160150952D01*
X119805523Y-160198571D01*
X119781714Y-160222380D01*
X119734095Y-160246190D01*
X119662666Y-160246190D01*
X120257904Y-160246190D02*
X120257904Y-159984285D01*
X120234095Y-159936666D01*
X120186476Y-159912857D01*
X120091238Y-159912857D01*
X120043619Y-159936666D01*
X120257904Y-160222380D02*
X120210285Y-160246190D01*
X120091238Y-160246190D01*
X120043619Y-160222380D01*
X120019809Y-160174761D01*
X120019809Y-160127142D01*
X120043619Y-160079523D01*
X120091238Y-160055714D01*
X120210285Y-160055714D01*
X120257904Y-160031904D01*
X120496000Y-160246190D02*
X120496000Y-159912857D01*
X120496000Y-160008095D02*
X120519809Y-159960476D01*
X120543619Y-159936666D01*
X120591238Y-159912857D01*
X120638857Y-159912857D01*
X121019809Y-160246190D02*
X121019809Y-159746190D01*
X121019809Y-160222380D02*
X120972190Y-160246190D01*
X120876952Y-160246190D01*
X120829333Y-160222380D01*
X120805523Y-160198571D01*
X120781714Y-160150952D01*
X120781714Y-160008095D01*
X120805523Y-159960476D01*
X120829333Y-159936666D01*
X120876952Y-159912857D01*
X120972190Y-159912857D01*
X121019809Y-159936666D01*
X121638857Y-160246190D02*
X121638857Y-159746190D01*
X121853142Y-160246190D02*
X121853142Y-159984285D01*
X121829333Y-159936666D01*
X121781714Y-159912857D01*
X121710285Y-159912857D01*
X121662666Y-159936666D01*
X121638857Y-159960476D01*
X122305523Y-160246190D02*
X122305523Y-159984285D01*
X122281714Y-159936666D01*
X122234095Y-159912857D01*
X122138857Y-159912857D01*
X122091238Y-159936666D01*
X122305523Y-160222380D02*
X122257904Y-160246190D01*
X122138857Y-160246190D01*
X122091238Y-160222380D01*
X122067428Y-160174761D01*
X122067428Y-160127142D01*
X122091238Y-160079523D01*
X122138857Y-160055714D01*
X122257904Y-160055714D01*
X122305523Y-160031904D01*
X122519809Y-160222380D02*
X122567428Y-160246190D01*
X122662666Y-160246190D01*
X122710285Y-160222380D01*
X122734095Y-160174761D01*
X122734095Y-160150952D01*
X122710285Y-160103333D01*
X122662666Y-160079523D01*
X122591238Y-160079523D01*
X122543619Y-160055714D01*
X122519809Y-160008095D01*
X122519809Y-159984285D01*
X122543619Y-159936666D01*
X122591238Y-159912857D01*
X122662666Y-159912857D01*
X122710285Y-159936666D01*
X123591238Y-160246190D02*
X123305523Y-160246190D01*
X123448380Y-160246190D02*
X123448380Y-159746190D01*
X123400761Y-159817619D01*
X123353142Y-159865238D01*
X123305523Y-159889047D01*
X123876952Y-159960476D02*
X123829333Y-159936666D01*
X123805523Y-159912857D01*
X123781714Y-159865238D01*
X123781714Y-159841428D01*
X123805523Y-159793809D01*
X123829333Y-159770000D01*
X123876952Y-159746190D01*
X123972190Y-159746190D01*
X124019809Y-159770000D01*
X124043619Y-159793809D01*
X124067428Y-159841428D01*
X124067428Y-159865238D01*
X124043619Y-159912857D01*
X124019809Y-159936666D01*
X123972190Y-159960476D01*
X123876952Y-159960476D01*
X123829333Y-159984285D01*
X123805523Y-160008095D01*
X123781714Y-160055714D01*
X123781714Y-160150952D01*
X123805523Y-160198571D01*
X123829333Y-160222380D01*
X123876952Y-160246190D01*
X123972190Y-160246190D01*
X124019809Y-160222380D01*
X124043619Y-160198571D01*
X124067428Y-160150952D01*
X124067428Y-160055714D01*
X124043619Y-160008095D01*
X124019809Y-159984285D01*
X123972190Y-159960476D01*
X124210285Y-159746190D02*
X124376952Y-160246190D01*
X124543619Y-159746190D01*
X124734095Y-160222380D02*
X124734095Y-160246190D01*
X124710285Y-160293809D01*
X124686476Y-160317619D01*
X125567428Y-159746190D02*
X125329333Y-159746190D01*
X125305523Y-159984285D01*
X125329333Y-159960476D01*
X125376952Y-159936666D01*
X125496000Y-159936666D01*
X125543619Y-159960476D01*
X125567428Y-159984285D01*
X125591238Y-160031904D01*
X125591238Y-160150952D01*
X125567428Y-160198571D01*
X125543619Y-160222380D01*
X125496000Y-160246190D01*
X125376952Y-160246190D01*
X125329333Y-160222380D01*
X125305523Y-160198571D01*
X125734095Y-159746190D02*
X125900761Y-160246190D01*
X126067428Y-159746190D01*
X126829333Y-160246190D02*
X126829333Y-159984285D01*
X126805523Y-159936666D01*
X126757904Y-159912857D01*
X126662666Y-159912857D01*
X126615047Y-159936666D01*
X126829333Y-160222380D02*
X126781714Y-160246190D01*
X126662666Y-160246190D01*
X126615047Y-160222380D01*
X126591238Y-160174761D01*
X126591238Y-160127142D01*
X126615047Y-160079523D01*
X126662666Y-160055714D01*
X126781714Y-160055714D01*
X126829333Y-160031904D01*
X127067428Y-159912857D02*
X127067428Y-160246190D01*
X127067428Y-159960476D02*
X127091238Y-159936666D01*
X127138857Y-159912857D01*
X127210285Y-159912857D01*
X127257904Y-159936666D01*
X127281714Y-159984285D01*
X127281714Y-160246190D01*
X127734095Y-160246190D02*
X127734095Y-159746190D01*
X127734095Y-160222380D02*
X127686476Y-160246190D01*
X127591238Y-160246190D01*
X127543619Y-160222380D01*
X127519809Y-160198571D01*
X127495999Y-160150952D01*
X127495999Y-160008095D01*
X127519809Y-159960476D01*
X127543619Y-159936666D01*
X127591238Y-159912857D01*
X127686476Y-159912857D01*
X127734095Y-159936666D01*
X128305523Y-159746190D02*
X128615047Y-159746190D01*
X128448380Y-159936666D01*
X128519809Y-159936666D01*
X128567428Y-159960476D01*
X128591238Y-159984285D01*
X128615047Y-160031904D01*
X128615047Y-160150952D01*
X128591238Y-160198571D01*
X128567428Y-160222380D01*
X128519809Y-160246190D01*
X128376952Y-160246190D01*
X128329333Y-160222380D01*
X128305523Y-160198571D01*
X128829333Y-160198571D02*
X128853142Y-160222380D01*
X128829333Y-160246190D01*
X128805523Y-160222380D01*
X128829333Y-160198571D01*
X128829333Y-160246190D01*
X129019809Y-159746190D02*
X129329333Y-159746190D01*
X129162666Y-159936666D01*
X129234095Y-159936666D01*
X129281714Y-159960476D01*
X129305523Y-159984285D01*
X129329333Y-160031904D01*
X129329333Y-160150952D01*
X129305523Y-160198571D01*
X129281714Y-160222380D01*
X129234095Y-160246190D01*
X129091238Y-160246190D01*
X129043619Y-160222380D01*
X129019809Y-160198571D01*
X129472190Y-159746190D02*
X129638857Y-160246190D01*
X129805523Y-159746190D01*
X130353142Y-160246190D02*
X130353142Y-159912857D01*
X130353142Y-160008095D02*
X130376952Y-159960476D01*
X130400761Y-159936666D01*
X130448380Y-159912857D01*
X130495999Y-159912857D01*
X130876952Y-160246190D02*
X130876952Y-159984285D01*
X130853142Y-159936666D01*
X130805523Y-159912857D01*
X130710285Y-159912857D01*
X130662666Y-159936666D01*
X130876952Y-160222380D02*
X130829333Y-160246190D01*
X130710285Y-160246190D01*
X130662666Y-160222380D01*
X130638857Y-160174761D01*
X130638857Y-160127142D01*
X130662666Y-160079523D01*
X130710285Y-160055714D01*
X130829333Y-160055714D01*
X130876952Y-160031904D01*
X131115047Y-160246190D02*
X131115047Y-159912857D01*
X131115047Y-159746190D02*
X131091238Y-159770000D01*
X131115047Y-159793809D01*
X131138857Y-159770000D01*
X131115047Y-159746190D01*
X131115047Y-159793809D01*
X131424571Y-160246190D02*
X131376952Y-160222380D01*
X131353142Y-160174761D01*
X131353142Y-159746190D01*
X131591238Y-160222380D02*
X131638857Y-160246190D01*
X131734095Y-160246190D01*
X131781714Y-160222380D01*
X131805523Y-160174761D01*
X131805523Y-160150952D01*
X131781714Y-160103333D01*
X131734095Y-160079523D01*
X131662666Y-160079523D01*
X131615047Y-160055714D01*
X131591238Y-160008095D01*
X131591238Y-159984285D01*
X131615047Y-159936666D01*
X131662666Y-159912857D01*
X131734095Y-159912857D01*
X131781714Y-159936666D01*
X132019809Y-160198571D02*
X132043619Y-160222380D01*
X132019809Y-160246190D01*
X131995999Y-160222380D01*
X132019809Y-160198571D01*
X132019809Y-160246190D01*
X132019809Y-160055714D02*
X131995999Y-159770000D01*
X132019809Y-159746190D01*
X132043619Y-159770000D01*
X132019809Y-160055714D01*
X132019809Y-159746190D01*
D10*
X137890571Y-156566857D02*
X137890571Y-157424000D01*
X137890571Y-156995428D02*
X136390571Y-156995428D01*
X136604857Y-157138285D01*
X136747714Y-157281142D01*
X136819142Y-157424000D01*
X137033428Y-155709714D02*
X136962000Y-155852571D01*
X136890571Y-155924000D01*
X136747714Y-155995428D01*
X136676285Y-155995428D01*
X136533428Y-155924000D01*
X136462000Y-155852571D01*
X136390571Y-155709714D01*
X136390571Y-155424000D01*
X136462000Y-155281142D01*
X136533428Y-155209714D01*
X136676285Y-155138285D01*
X136747714Y-155138285D01*
X136890571Y-155209714D01*
X136962000Y-155281142D01*
X137033428Y-155424000D01*
X137033428Y-155709714D01*
X137104857Y-155852571D01*
X137176285Y-155924000D01*
X137319142Y-155995428D01*
X137604857Y-155995428D01*
X137747714Y-155924000D01*
X137819142Y-155852571D01*
X137890571Y-155709714D01*
X137890571Y-155424000D01*
X137819142Y-155281142D01*
X137747714Y-155209714D01*
X137604857Y-155138285D01*
X137319142Y-155138285D01*
X137176285Y-155209714D01*
X137104857Y-155281142D01*
X137033428Y-155424000D01*
X136390571Y-154709714D02*
X137890571Y-154209714D01*
X136390571Y-153709714D01*
X137890571Y-152066857D02*
X136390571Y-152066857D01*
X137890571Y-151352571D02*
X136390571Y-151352571D01*
X137890571Y-150495428D01*
X136390571Y-150495428D01*
X138672571Y-156571142D02*
X139815428Y-156571142D01*
X138672571Y-150983142D02*
X139815428Y-150983142D01*
X139244000Y-151554571D02*
X139244000Y-150411714D01*
D13*
G04 #@! TO.C,D2*
X119830000Y-131910000D02*
X119830000Y-131430000D01*
X119830000Y-131430000D02*
X127670000Y-131430000D01*
X127670000Y-131430000D02*
X127670000Y-131910000D01*
X119830000Y-134790000D02*
X119830000Y-135270000D01*
X119830000Y-135270000D02*
X127670000Y-135270000D01*
X127670000Y-135270000D02*
X127670000Y-134790000D01*
X121090000Y-131430000D02*
X121090000Y-135270000D01*
X121210000Y-131430000D02*
X121210000Y-135270000D01*
X120970000Y-131430000D02*
X120970000Y-135270000D01*
G04 #@! TO.C,L1*
X128180000Y-121920000D02*
G75*
G03X128180000Y-121920000I-4470000J0D01*
G01*
G04 #@! TO.C,J5*
X102211000Y-65008000D02*
X102211000Y-90948000D01*
X102211000Y-90948000D02*
X92861000Y-90948000D01*
X92861000Y-90948000D02*
X92861000Y-65008000D01*
X92861000Y-65008000D02*
X102211000Y-65008000D01*
X92611000Y-64758000D02*
X92611000Y-67298000D01*
X92611000Y-64758000D02*
X95151000Y-64758000D01*
G04 #@! TO.C,J2*
X140708000Y-79442000D02*
X142038000Y-79442000D01*
X140708000Y-80772000D02*
X140708000Y-79442000D01*
X140708000Y-82042000D02*
X143368000Y-82042000D01*
X143368000Y-82042000D02*
X143368000Y-89722000D01*
X140708000Y-82042000D02*
X140708000Y-89722000D01*
X140708000Y-89722000D02*
X143368000Y-89722000D01*
D14*
G04 #@! TO.C,MOD1*
X136656000Y-66983000D02*
X136656000Y-65363000D01*
X136656000Y-65363000D02*
X135016000Y-65363000D01*
X118586000Y-66993000D02*
X118586000Y-65363000D01*
X118586000Y-65363000D02*
X120216000Y-65363000D01*
X136706000Y-89963000D02*
X136706000Y-91003000D01*
X136706000Y-91003000D02*
X134006000Y-91003000D01*
X118556000Y-89933000D02*
X118556000Y-90983000D01*
X118556000Y-90983000D02*
X121206000Y-90983000D01*
D13*
G04 #@! TO.C,C5*
X141027225Y-133911000D02*
X141027225Y-134411000D01*
X140777225Y-134161000D02*
X141277225Y-134161000D01*
X146183000Y-135352000D02*
X146183000Y-135920000D01*
X146143000Y-135118000D02*
X146143000Y-136154000D01*
X146103000Y-134959000D02*
X146103000Y-136313000D01*
X146063000Y-134831000D02*
X146063000Y-136441000D01*
X146023000Y-134721000D02*
X146023000Y-136551000D01*
X145983000Y-134625000D02*
X145983000Y-136647000D01*
X145943000Y-134538000D02*
X145943000Y-136734000D01*
X145903000Y-134458000D02*
X145903000Y-136814000D01*
X145863000Y-136676000D02*
X145863000Y-136887000D01*
X145863000Y-134385000D02*
X145863000Y-134596000D01*
X145823000Y-136676000D02*
X145823000Y-136955000D01*
X145823000Y-134317000D02*
X145823000Y-134596000D01*
X145783000Y-136676000D02*
X145783000Y-137019000D01*
X145783000Y-134253000D02*
X145783000Y-134596000D01*
X145743000Y-136676000D02*
X145743000Y-137079000D01*
X145743000Y-134193000D02*
X145743000Y-134596000D01*
X145703000Y-136676000D02*
X145703000Y-137136000D01*
X145703000Y-134136000D02*
X145703000Y-134596000D01*
X145663000Y-136676000D02*
X145663000Y-137190000D01*
X145663000Y-134082000D02*
X145663000Y-134596000D01*
X145623000Y-136676000D02*
X145623000Y-137241000D01*
X145623000Y-134031000D02*
X145623000Y-134596000D01*
X145583000Y-136676000D02*
X145583000Y-137289000D01*
X145583000Y-133983000D02*
X145583000Y-134596000D01*
X145543000Y-136676000D02*
X145543000Y-137335000D01*
X145543000Y-133937000D02*
X145543000Y-134596000D01*
X145503000Y-136676000D02*
X145503000Y-137379000D01*
X145503000Y-133893000D02*
X145503000Y-134596000D01*
X145463000Y-136676000D02*
X145463000Y-137421000D01*
X145463000Y-133851000D02*
X145463000Y-134596000D01*
X145423000Y-136676000D02*
X145423000Y-137462000D01*
X145423000Y-133810000D02*
X145423000Y-134596000D01*
X145383000Y-136676000D02*
X145383000Y-137500000D01*
X145383000Y-133772000D02*
X145383000Y-134596000D01*
X145343000Y-136676000D02*
X145343000Y-137537000D01*
X145343000Y-133735000D02*
X145343000Y-134596000D01*
X145303000Y-136676000D02*
X145303000Y-137573000D01*
X145303000Y-133699000D02*
X145303000Y-134596000D01*
X145263000Y-136676000D02*
X145263000Y-137607000D01*
X145263000Y-133665000D02*
X145263000Y-134596000D01*
X145223000Y-136676000D02*
X145223000Y-137640000D01*
X145223000Y-133632000D02*
X145223000Y-134596000D01*
X145183000Y-136676000D02*
X145183000Y-137671000D01*
X145183000Y-133601000D02*
X145183000Y-134596000D01*
X145143000Y-136676000D02*
X145143000Y-137701000D01*
X145143000Y-133571000D02*
X145143000Y-134596000D01*
X145103000Y-136676000D02*
X145103000Y-137731000D01*
X145103000Y-133541000D02*
X145103000Y-134596000D01*
X145063000Y-136676000D02*
X145063000Y-137758000D01*
X145063000Y-133514000D02*
X145063000Y-134596000D01*
X145023000Y-136676000D02*
X145023000Y-137785000D01*
X145023000Y-133487000D02*
X145023000Y-134596000D01*
X144983000Y-136676000D02*
X144983000Y-137811000D01*
X144983000Y-133461000D02*
X144983000Y-134596000D01*
X144943000Y-136676000D02*
X144943000Y-137836000D01*
X144943000Y-133436000D02*
X144943000Y-134596000D01*
X144903000Y-136676000D02*
X144903000Y-137860000D01*
X144903000Y-133412000D02*
X144903000Y-134596000D01*
X144863000Y-136676000D02*
X144863000Y-137883000D01*
X144863000Y-133389000D02*
X144863000Y-134596000D01*
X144823000Y-136676000D02*
X144823000Y-137904000D01*
X144823000Y-133368000D02*
X144823000Y-134596000D01*
X144783000Y-136676000D02*
X144783000Y-137926000D01*
X144783000Y-133346000D02*
X144783000Y-134596000D01*
X144743000Y-136676000D02*
X144743000Y-137946000D01*
X144743000Y-133326000D02*
X144743000Y-134596000D01*
X144703000Y-136676000D02*
X144703000Y-137965000D01*
X144703000Y-133307000D02*
X144703000Y-134596000D01*
X144663000Y-136676000D02*
X144663000Y-137984000D01*
X144663000Y-133288000D02*
X144663000Y-134596000D01*
X144623000Y-136676000D02*
X144623000Y-138001000D01*
X144623000Y-133271000D02*
X144623000Y-134596000D01*
X144583000Y-136676000D02*
X144583000Y-138018000D01*
X144583000Y-133254000D02*
X144583000Y-134596000D01*
X144543000Y-136676000D02*
X144543000Y-138034000D01*
X144543000Y-133238000D02*
X144543000Y-134596000D01*
X144503000Y-136676000D02*
X144503000Y-138050000D01*
X144503000Y-133222000D02*
X144503000Y-134596000D01*
X144463000Y-136676000D02*
X144463000Y-138064000D01*
X144463000Y-133208000D02*
X144463000Y-134596000D01*
X144423000Y-136676000D02*
X144423000Y-138078000D01*
X144423000Y-133194000D02*
X144423000Y-134596000D01*
X144383000Y-136676000D02*
X144383000Y-138091000D01*
X144383000Y-133181000D02*
X144383000Y-134596000D01*
X144343000Y-136676000D02*
X144343000Y-138104000D01*
X144343000Y-133168000D02*
X144343000Y-134596000D01*
X144303000Y-136676000D02*
X144303000Y-138116000D01*
X144303000Y-133156000D02*
X144303000Y-134596000D01*
X144262000Y-136676000D02*
X144262000Y-138127000D01*
X144262000Y-133145000D02*
X144262000Y-134596000D01*
X144222000Y-136676000D02*
X144222000Y-138137000D01*
X144222000Y-133135000D02*
X144222000Y-134596000D01*
X144182000Y-136676000D02*
X144182000Y-138147000D01*
X144182000Y-133125000D02*
X144182000Y-134596000D01*
X144142000Y-136676000D02*
X144142000Y-138156000D01*
X144142000Y-133116000D02*
X144142000Y-134596000D01*
X144102000Y-136676000D02*
X144102000Y-138164000D01*
X144102000Y-133108000D02*
X144102000Y-134596000D01*
X144062000Y-136676000D02*
X144062000Y-138172000D01*
X144062000Y-133100000D02*
X144062000Y-134596000D01*
X144022000Y-136676000D02*
X144022000Y-138179000D01*
X144022000Y-133093000D02*
X144022000Y-134596000D01*
X143982000Y-136676000D02*
X143982000Y-138186000D01*
X143982000Y-133086000D02*
X143982000Y-134596000D01*
X143942000Y-136676000D02*
X143942000Y-138192000D01*
X143942000Y-133080000D02*
X143942000Y-134596000D01*
X143902000Y-136676000D02*
X143902000Y-138197000D01*
X143902000Y-133075000D02*
X143902000Y-134596000D01*
X143862000Y-136676000D02*
X143862000Y-138201000D01*
X143862000Y-133071000D02*
X143862000Y-134596000D01*
X143822000Y-136676000D02*
X143822000Y-138205000D01*
X143822000Y-133067000D02*
X143822000Y-134596000D01*
X143782000Y-133063000D02*
X143782000Y-138209000D01*
X143742000Y-133060000D02*
X143742000Y-138212000D01*
X143702000Y-133058000D02*
X143702000Y-138214000D01*
X143662000Y-133057000D02*
X143662000Y-138215000D01*
X143622000Y-133056000D02*
X143622000Y-138216000D01*
X143582000Y-133056000D02*
X143582000Y-138216000D01*
X146202000Y-135636000D02*
G75*
G03X146202000Y-135636000I-2620000J0D01*
G01*
G04 #@! TO.C,C4*
X146456000Y-103632000D02*
G75*
G03X146456000Y-103632000I-2620000J0D01*
G01*
X143836000Y-101052000D02*
X143836000Y-106212000D01*
X143876000Y-101052000D02*
X143876000Y-106212000D01*
X143916000Y-101053000D02*
X143916000Y-106211000D01*
X143956000Y-101054000D02*
X143956000Y-106210000D01*
X143996000Y-101056000D02*
X143996000Y-106208000D01*
X144036000Y-101059000D02*
X144036000Y-106205000D01*
X144076000Y-101063000D02*
X144076000Y-102592000D01*
X144076000Y-104672000D02*
X144076000Y-106201000D01*
X144116000Y-101067000D02*
X144116000Y-102592000D01*
X144116000Y-104672000D02*
X144116000Y-106197000D01*
X144156000Y-101071000D02*
X144156000Y-102592000D01*
X144156000Y-104672000D02*
X144156000Y-106193000D01*
X144196000Y-101076000D02*
X144196000Y-102592000D01*
X144196000Y-104672000D02*
X144196000Y-106188000D01*
X144236000Y-101082000D02*
X144236000Y-102592000D01*
X144236000Y-104672000D02*
X144236000Y-106182000D01*
X144276000Y-101089000D02*
X144276000Y-102592000D01*
X144276000Y-104672000D02*
X144276000Y-106175000D01*
X144316000Y-101096000D02*
X144316000Y-102592000D01*
X144316000Y-104672000D02*
X144316000Y-106168000D01*
X144356000Y-101104000D02*
X144356000Y-102592000D01*
X144356000Y-104672000D02*
X144356000Y-106160000D01*
X144396000Y-101112000D02*
X144396000Y-102592000D01*
X144396000Y-104672000D02*
X144396000Y-106152000D01*
X144436000Y-101121000D02*
X144436000Y-102592000D01*
X144436000Y-104672000D02*
X144436000Y-106143000D01*
X144476000Y-101131000D02*
X144476000Y-102592000D01*
X144476000Y-104672000D02*
X144476000Y-106133000D01*
X144516000Y-101141000D02*
X144516000Y-102592000D01*
X144516000Y-104672000D02*
X144516000Y-106123000D01*
X144557000Y-101152000D02*
X144557000Y-102592000D01*
X144557000Y-104672000D02*
X144557000Y-106112000D01*
X144597000Y-101164000D02*
X144597000Y-102592000D01*
X144597000Y-104672000D02*
X144597000Y-106100000D01*
X144637000Y-101177000D02*
X144637000Y-102592000D01*
X144637000Y-104672000D02*
X144637000Y-106087000D01*
X144677000Y-101190000D02*
X144677000Y-102592000D01*
X144677000Y-104672000D02*
X144677000Y-106074000D01*
X144717000Y-101204000D02*
X144717000Y-102592000D01*
X144717000Y-104672000D02*
X144717000Y-106060000D01*
X144757000Y-101218000D02*
X144757000Y-102592000D01*
X144757000Y-104672000D02*
X144757000Y-106046000D01*
X144797000Y-101234000D02*
X144797000Y-102592000D01*
X144797000Y-104672000D02*
X144797000Y-106030000D01*
X144837000Y-101250000D02*
X144837000Y-102592000D01*
X144837000Y-104672000D02*
X144837000Y-106014000D01*
X144877000Y-101267000D02*
X144877000Y-102592000D01*
X144877000Y-104672000D02*
X144877000Y-105997000D01*
X144917000Y-101284000D02*
X144917000Y-102592000D01*
X144917000Y-104672000D02*
X144917000Y-105980000D01*
X144957000Y-101303000D02*
X144957000Y-102592000D01*
X144957000Y-104672000D02*
X144957000Y-105961000D01*
X144997000Y-101322000D02*
X144997000Y-102592000D01*
X144997000Y-104672000D02*
X144997000Y-105942000D01*
X145037000Y-101342000D02*
X145037000Y-102592000D01*
X145037000Y-104672000D02*
X145037000Y-105922000D01*
X145077000Y-101364000D02*
X145077000Y-102592000D01*
X145077000Y-104672000D02*
X145077000Y-105900000D01*
X145117000Y-101385000D02*
X145117000Y-102592000D01*
X145117000Y-104672000D02*
X145117000Y-105879000D01*
X145157000Y-101408000D02*
X145157000Y-102592000D01*
X145157000Y-104672000D02*
X145157000Y-105856000D01*
X145197000Y-101432000D02*
X145197000Y-102592000D01*
X145197000Y-104672000D02*
X145197000Y-105832000D01*
X145237000Y-101457000D02*
X145237000Y-102592000D01*
X145237000Y-104672000D02*
X145237000Y-105807000D01*
X145277000Y-101483000D02*
X145277000Y-102592000D01*
X145277000Y-104672000D02*
X145277000Y-105781000D01*
X145317000Y-101510000D02*
X145317000Y-102592000D01*
X145317000Y-104672000D02*
X145317000Y-105754000D01*
X145357000Y-101537000D02*
X145357000Y-102592000D01*
X145357000Y-104672000D02*
X145357000Y-105727000D01*
X145397000Y-101567000D02*
X145397000Y-102592000D01*
X145397000Y-104672000D02*
X145397000Y-105697000D01*
X145437000Y-101597000D02*
X145437000Y-102592000D01*
X145437000Y-104672000D02*
X145437000Y-105667000D01*
X145477000Y-101628000D02*
X145477000Y-102592000D01*
X145477000Y-104672000D02*
X145477000Y-105636000D01*
X145517000Y-101661000D02*
X145517000Y-102592000D01*
X145517000Y-104672000D02*
X145517000Y-105603000D01*
X145557000Y-101695000D02*
X145557000Y-102592000D01*
X145557000Y-104672000D02*
X145557000Y-105569000D01*
X145597000Y-101731000D02*
X145597000Y-102592000D01*
X145597000Y-104672000D02*
X145597000Y-105533000D01*
X145637000Y-101768000D02*
X145637000Y-102592000D01*
X145637000Y-104672000D02*
X145637000Y-105496000D01*
X145677000Y-101806000D02*
X145677000Y-102592000D01*
X145677000Y-104672000D02*
X145677000Y-105458000D01*
X145717000Y-101847000D02*
X145717000Y-102592000D01*
X145717000Y-104672000D02*
X145717000Y-105417000D01*
X145757000Y-101889000D02*
X145757000Y-102592000D01*
X145757000Y-104672000D02*
X145757000Y-105375000D01*
X145797000Y-101933000D02*
X145797000Y-102592000D01*
X145797000Y-104672000D02*
X145797000Y-105331000D01*
X145837000Y-101979000D02*
X145837000Y-102592000D01*
X145837000Y-104672000D02*
X145837000Y-105285000D01*
X145877000Y-102027000D02*
X145877000Y-102592000D01*
X145877000Y-104672000D02*
X145877000Y-105237000D01*
X145917000Y-102078000D02*
X145917000Y-102592000D01*
X145917000Y-104672000D02*
X145917000Y-105186000D01*
X145957000Y-102132000D02*
X145957000Y-102592000D01*
X145957000Y-104672000D02*
X145957000Y-105132000D01*
X145997000Y-102189000D02*
X145997000Y-102592000D01*
X145997000Y-104672000D02*
X145997000Y-105075000D01*
X146037000Y-102249000D02*
X146037000Y-102592000D01*
X146037000Y-104672000D02*
X146037000Y-105015000D01*
X146077000Y-102313000D02*
X146077000Y-102592000D01*
X146077000Y-104672000D02*
X146077000Y-104951000D01*
X146117000Y-102381000D02*
X146117000Y-102592000D01*
X146117000Y-104672000D02*
X146117000Y-104883000D01*
X146157000Y-102454000D02*
X146157000Y-104810000D01*
X146197000Y-102534000D02*
X146197000Y-104730000D01*
X146237000Y-102621000D02*
X146237000Y-104643000D01*
X146277000Y-102717000D02*
X146277000Y-104547000D01*
X146317000Y-102827000D02*
X146317000Y-104437000D01*
X146357000Y-102955000D02*
X146357000Y-104309000D01*
X146397000Y-103114000D02*
X146397000Y-104150000D01*
X146437000Y-103348000D02*
X146437000Y-103916000D01*
X141031225Y-102157000D02*
X141531225Y-102157000D01*
X141281225Y-101907000D02*
X141281225Y-102407000D01*
G04 #@! TO.C,C3*
X141027225Y-123243000D02*
X141027225Y-123743000D01*
X140777225Y-123493000D02*
X141277225Y-123493000D01*
X146183000Y-124684000D02*
X146183000Y-125252000D01*
X146143000Y-124450000D02*
X146143000Y-125486000D01*
X146103000Y-124291000D02*
X146103000Y-125645000D01*
X146063000Y-124163000D02*
X146063000Y-125773000D01*
X146023000Y-124053000D02*
X146023000Y-125883000D01*
X145983000Y-123957000D02*
X145983000Y-125979000D01*
X145943000Y-123870000D02*
X145943000Y-126066000D01*
X145903000Y-123790000D02*
X145903000Y-126146000D01*
X145863000Y-126008000D02*
X145863000Y-126219000D01*
X145863000Y-123717000D02*
X145863000Y-123928000D01*
X145823000Y-126008000D02*
X145823000Y-126287000D01*
X145823000Y-123649000D02*
X145823000Y-123928000D01*
X145783000Y-126008000D02*
X145783000Y-126351000D01*
X145783000Y-123585000D02*
X145783000Y-123928000D01*
X145743000Y-126008000D02*
X145743000Y-126411000D01*
X145743000Y-123525000D02*
X145743000Y-123928000D01*
X145703000Y-126008000D02*
X145703000Y-126468000D01*
X145703000Y-123468000D02*
X145703000Y-123928000D01*
X145663000Y-126008000D02*
X145663000Y-126522000D01*
X145663000Y-123414000D02*
X145663000Y-123928000D01*
X145623000Y-126008000D02*
X145623000Y-126573000D01*
X145623000Y-123363000D02*
X145623000Y-123928000D01*
X145583000Y-126008000D02*
X145583000Y-126621000D01*
X145583000Y-123315000D02*
X145583000Y-123928000D01*
X145543000Y-126008000D02*
X145543000Y-126667000D01*
X145543000Y-123269000D02*
X145543000Y-123928000D01*
X145503000Y-126008000D02*
X145503000Y-126711000D01*
X145503000Y-123225000D02*
X145503000Y-123928000D01*
X145463000Y-126008000D02*
X145463000Y-126753000D01*
X145463000Y-123183000D02*
X145463000Y-123928000D01*
X145423000Y-126008000D02*
X145423000Y-126794000D01*
X145423000Y-123142000D02*
X145423000Y-123928000D01*
X145383000Y-126008000D02*
X145383000Y-126832000D01*
X145383000Y-123104000D02*
X145383000Y-123928000D01*
X145343000Y-126008000D02*
X145343000Y-126869000D01*
X145343000Y-123067000D02*
X145343000Y-123928000D01*
X145303000Y-126008000D02*
X145303000Y-126905000D01*
X145303000Y-123031000D02*
X145303000Y-123928000D01*
X145263000Y-126008000D02*
X145263000Y-126939000D01*
X145263000Y-122997000D02*
X145263000Y-123928000D01*
X145223000Y-126008000D02*
X145223000Y-126972000D01*
X145223000Y-122964000D02*
X145223000Y-123928000D01*
X145183000Y-126008000D02*
X145183000Y-127003000D01*
X145183000Y-122933000D02*
X145183000Y-123928000D01*
X145143000Y-126008000D02*
X145143000Y-127033000D01*
X145143000Y-122903000D02*
X145143000Y-123928000D01*
X145103000Y-126008000D02*
X145103000Y-127063000D01*
X145103000Y-122873000D02*
X145103000Y-123928000D01*
X145063000Y-126008000D02*
X145063000Y-127090000D01*
X145063000Y-122846000D02*
X145063000Y-123928000D01*
X145023000Y-126008000D02*
X145023000Y-127117000D01*
X145023000Y-122819000D02*
X145023000Y-123928000D01*
X144983000Y-126008000D02*
X144983000Y-127143000D01*
X144983000Y-122793000D02*
X144983000Y-123928000D01*
X144943000Y-126008000D02*
X144943000Y-127168000D01*
X144943000Y-122768000D02*
X144943000Y-123928000D01*
X144903000Y-126008000D02*
X144903000Y-127192000D01*
X144903000Y-122744000D02*
X144903000Y-123928000D01*
X144863000Y-126008000D02*
X144863000Y-127215000D01*
X144863000Y-122721000D02*
X144863000Y-123928000D01*
X144823000Y-126008000D02*
X144823000Y-127236000D01*
X144823000Y-122700000D02*
X144823000Y-123928000D01*
X144783000Y-126008000D02*
X144783000Y-127258000D01*
X144783000Y-122678000D02*
X144783000Y-123928000D01*
X144743000Y-126008000D02*
X144743000Y-127278000D01*
X144743000Y-122658000D02*
X144743000Y-123928000D01*
X144703000Y-126008000D02*
X144703000Y-127297000D01*
X144703000Y-122639000D02*
X144703000Y-123928000D01*
X144663000Y-126008000D02*
X144663000Y-127316000D01*
X144663000Y-122620000D02*
X144663000Y-123928000D01*
X144623000Y-126008000D02*
X144623000Y-127333000D01*
X144623000Y-122603000D02*
X144623000Y-123928000D01*
X144583000Y-126008000D02*
X144583000Y-127350000D01*
X144583000Y-122586000D02*
X144583000Y-123928000D01*
X144543000Y-126008000D02*
X144543000Y-127366000D01*
X144543000Y-122570000D02*
X144543000Y-123928000D01*
X144503000Y-126008000D02*
X144503000Y-127382000D01*
X144503000Y-122554000D02*
X144503000Y-123928000D01*
X144463000Y-126008000D02*
X144463000Y-127396000D01*
X144463000Y-122540000D02*
X144463000Y-123928000D01*
X144423000Y-126008000D02*
X144423000Y-127410000D01*
X144423000Y-122526000D02*
X144423000Y-123928000D01*
X144383000Y-126008000D02*
X144383000Y-127423000D01*
X144383000Y-122513000D02*
X144383000Y-123928000D01*
X144343000Y-126008000D02*
X144343000Y-127436000D01*
X144343000Y-122500000D02*
X144343000Y-123928000D01*
X144303000Y-126008000D02*
X144303000Y-127448000D01*
X144303000Y-122488000D02*
X144303000Y-123928000D01*
X144262000Y-126008000D02*
X144262000Y-127459000D01*
X144262000Y-122477000D02*
X144262000Y-123928000D01*
X144222000Y-126008000D02*
X144222000Y-127469000D01*
X144222000Y-122467000D02*
X144222000Y-123928000D01*
X144182000Y-126008000D02*
X144182000Y-127479000D01*
X144182000Y-122457000D02*
X144182000Y-123928000D01*
X144142000Y-126008000D02*
X144142000Y-127488000D01*
X144142000Y-122448000D02*
X144142000Y-123928000D01*
X144102000Y-126008000D02*
X144102000Y-127496000D01*
X144102000Y-122440000D02*
X144102000Y-123928000D01*
X144062000Y-126008000D02*
X144062000Y-127504000D01*
X144062000Y-122432000D02*
X144062000Y-123928000D01*
X144022000Y-126008000D02*
X144022000Y-127511000D01*
X144022000Y-122425000D02*
X144022000Y-123928000D01*
X143982000Y-126008000D02*
X143982000Y-127518000D01*
X143982000Y-122418000D02*
X143982000Y-123928000D01*
X143942000Y-126008000D02*
X143942000Y-127524000D01*
X143942000Y-122412000D02*
X143942000Y-123928000D01*
X143902000Y-126008000D02*
X143902000Y-127529000D01*
X143902000Y-122407000D02*
X143902000Y-123928000D01*
X143862000Y-126008000D02*
X143862000Y-127533000D01*
X143862000Y-122403000D02*
X143862000Y-123928000D01*
X143822000Y-126008000D02*
X143822000Y-127537000D01*
X143822000Y-122399000D02*
X143822000Y-123928000D01*
X143782000Y-122395000D02*
X143782000Y-127541000D01*
X143742000Y-122392000D02*
X143742000Y-127544000D01*
X143702000Y-122390000D02*
X143702000Y-127546000D01*
X143662000Y-122389000D02*
X143662000Y-127547000D01*
X143622000Y-122388000D02*
X143622000Y-127548000D01*
X143582000Y-122388000D02*
X143582000Y-127548000D01*
X146202000Y-124968000D02*
G75*
G03X146202000Y-124968000I-2620000J0D01*
G01*
G04 #@! TO.C,C2*
X113690000Y-129540000D02*
G75*
G03X113690000Y-129540000I-2620000J0D01*
G01*
X111070000Y-126960000D02*
X111070000Y-132120000D01*
X111110000Y-126960000D02*
X111110000Y-132120000D01*
X111150000Y-126961000D02*
X111150000Y-132119000D01*
X111190000Y-126962000D02*
X111190000Y-132118000D01*
X111230000Y-126964000D02*
X111230000Y-132116000D01*
X111270000Y-126967000D02*
X111270000Y-132113000D01*
X111310000Y-126971000D02*
X111310000Y-128500000D01*
X111310000Y-130580000D02*
X111310000Y-132109000D01*
X111350000Y-126975000D02*
X111350000Y-128500000D01*
X111350000Y-130580000D02*
X111350000Y-132105000D01*
X111390000Y-126979000D02*
X111390000Y-128500000D01*
X111390000Y-130580000D02*
X111390000Y-132101000D01*
X111430000Y-126984000D02*
X111430000Y-128500000D01*
X111430000Y-130580000D02*
X111430000Y-132096000D01*
X111470000Y-126990000D02*
X111470000Y-128500000D01*
X111470000Y-130580000D02*
X111470000Y-132090000D01*
X111510000Y-126997000D02*
X111510000Y-128500000D01*
X111510000Y-130580000D02*
X111510000Y-132083000D01*
X111550000Y-127004000D02*
X111550000Y-128500000D01*
X111550000Y-130580000D02*
X111550000Y-132076000D01*
X111590000Y-127012000D02*
X111590000Y-128500000D01*
X111590000Y-130580000D02*
X111590000Y-132068000D01*
X111630000Y-127020000D02*
X111630000Y-128500000D01*
X111630000Y-130580000D02*
X111630000Y-132060000D01*
X111670000Y-127029000D02*
X111670000Y-128500000D01*
X111670000Y-130580000D02*
X111670000Y-132051000D01*
X111710000Y-127039000D02*
X111710000Y-128500000D01*
X111710000Y-130580000D02*
X111710000Y-132041000D01*
X111750000Y-127049000D02*
X111750000Y-128500000D01*
X111750000Y-130580000D02*
X111750000Y-132031000D01*
X111791000Y-127060000D02*
X111791000Y-128500000D01*
X111791000Y-130580000D02*
X111791000Y-132020000D01*
X111831000Y-127072000D02*
X111831000Y-128500000D01*
X111831000Y-130580000D02*
X111831000Y-132008000D01*
X111871000Y-127085000D02*
X111871000Y-128500000D01*
X111871000Y-130580000D02*
X111871000Y-131995000D01*
X111911000Y-127098000D02*
X111911000Y-128500000D01*
X111911000Y-130580000D02*
X111911000Y-131982000D01*
X111951000Y-127112000D02*
X111951000Y-128500000D01*
X111951000Y-130580000D02*
X111951000Y-131968000D01*
X111991000Y-127126000D02*
X111991000Y-128500000D01*
X111991000Y-130580000D02*
X111991000Y-131954000D01*
X112031000Y-127142000D02*
X112031000Y-128500000D01*
X112031000Y-130580000D02*
X112031000Y-131938000D01*
X112071000Y-127158000D02*
X112071000Y-128500000D01*
X112071000Y-130580000D02*
X112071000Y-131922000D01*
X112111000Y-127175000D02*
X112111000Y-128500000D01*
X112111000Y-130580000D02*
X112111000Y-131905000D01*
X112151000Y-127192000D02*
X112151000Y-128500000D01*
X112151000Y-130580000D02*
X112151000Y-131888000D01*
X112191000Y-127211000D02*
X112191000Y-128500000D01*
X112191000Y-130580000D02*
X112191000Y-131869000D01*
X112231000Y-127230000D02*
X112231000Y-128500000D01*
X112231000Y-130580000D02*
X112231000Y-131850000D01*
X112271000Y-127250000D02*
X112271000Y-128500000D01*
X112271000Y-130580000D02*
X112271000Y-131830000D01*
X112311000Y-127272000D02*
X112311000Y-128500000D01*
X112311000Y-130580000D02*
X112311000Y-131808000D01*
X112351000Y-127293000D02*
X112351000Y-128500000D01*
X112351000Y-130580000D02*
X112351000Y-131787000D01*
X112391000Y-127316000D02*
X112391000Y-128500000D01*
X112391000Y-130580000D02*
X112391000Y-131764000D01*
X112431000Y-127340000D02*
X112431000Y-128500000D01*
X112431000Y-130580000D02*
X112431000Y-131740000D01*
X112471000Y-127365000D02*
X112471000Y-128500000D01*
X112471000Y-130580000D02*
X112471000Y-131715000D01*
X112511000Y-127391000D02*
X112511000Y-128500000D01*
X112511000Y-130580000D02*
X112511000Y-131689000D01*
X112551000Y-127418000D02*
X112551000Y-128500000D01*
X112551000Y-130580000D02*
X112551000Y-131662000D01*
X112591000Y-127445000D02*
X112591000Y-128500000D01*
X112591000Y-130580000D02*
X112591000Y-131635000D01*
X112631000Y-127475000D02*
X112631000Y-128500000D01*
X112631000Y-130580000D02*
X112631000Y-131605000D01*
X112671000Y-127505000D02*
X112671000Y-128500000D01*
X112671000Y-130580000D02*
X112671000Y-131575000D01*
X112711000Y-127536000D02*
X112711000Y-128500000D01*
X112711000Y-130580000D02*
X112711000Y-131544000D01*
X112751000Y-127569000D02*
X112751000Y-128500000D01*
X112751000Y-130580000D02*
X112751000Y-131511000D01*
X112791000Y-127603000D02*
X112791000Y-128500000D01*
X112791000Y-130580000D02*
X112791000Y-131477000D01*
X112831000Y-127639000D02*
X112831000Y-128500000D01*
X112831000Y-130580000D02*
X112831000Y-131441000D01*
X112871000Y-127676000D02*
X112871000Y-128500000D01*
X112871000Y-130580000D02*
X112871000Y-131404000D01*
X112911000Y-127714000D02*
X112911000Y-128500000D01*
X112911000Y-130580000D02*
X112911000Y-131366000D01*
X112951000Y-127755000D02*
X112951000Y-128500000D01*
X112951000Y-130580000D02*
X112951000Y-131325000D01*
X112991000Y-127797000D02*
X112991000Y-128500000D01*
X112991000Y-130580000D02*
X112991000Y-131283000D01*
X113031000Y-127841000D02*
X113031000Y-128500000D01*
X113031000Y-130580000D02*
X113031000Y-131239000D01*
X113071000Y-127887000D02*
X113071000Y-128500000D01*
X113071000Y-130580000D02*
X113071000Y-131193000D01*
X113111000Y-127935000D02*
X113111000Y-128500000D01*
X113111000Y-130580000D02*
X113111000Y-131145000D01*
X113151000Y-127986000D02*
X113151000Y-128500000D01*
X113151000Y-130580000D02*
X113151000Y-131094000D01*
X113191000Y-128040000D02*
X113191000Y-128500000D01*
X113191000Y-130580000D02*
X113191000Y-131040000D01*
X113231000Y-128097000D02*
X113231000Y-128500000D01*
X113231000Y-130580000D02*
X113231000Y-130983000D01*
X113271000Y-128157000D02*
X113271000Y-128500000D01*
X113271000Y-130580000D02*
X113271000Y-130923000D01*
X113311000Y-128221000D02*
X113311000Y-128500000D01*
X113311000Y-130580000D02*
X113311000Y-130859000D01*
X113351000Y-128289000D02*
X113351000Y-128500000D01*
X113351000Y-130580000D02*
X113351000Y-130791000D01*
X113391000Y-128362000D02*
X113391000Y-130718000D01*
X113431000Y-128442000D02*
X113431000Y-130638000D01*
X113471000Y-128529000D02*
X113471000Y-130551000D01*
X113511000Y-128625000D02*
X113511000Y-130455000D01*
X113551000Y-128735000D02*
X113551000Y-130345000D01*
X113591000Y-128863000D02*
X113591000Y-130217000D01*
X113631000Y-129022000D02*
X113631000Y-130058000D01*
X113671000Y-129256000D02*
X113671000Y-129824000D01*
X108265225Y-128065000D02*
X108765225Y-128065000D01*
X108515225Y-127815000D02*
X108515225Y-128315000D01*
G04 #@! TO.C,C1*
X114194000Y-68721000D02*
X114194000Y-67463000D01*
X116034000Y-68721000D02*
X116034000Y-67463000D01*
G04 #@! TO.C,D1*
X112150000Y-120760000D02*
X111670000Y-120760000D01*
X111670000Y-120760000D02*
X111670000Y-112920000D01*
X111670000Y-112920000D02*
X112150000Y-112920000D01*
X115030000Y-120760000D02*
X115510000Y-120760000D01*
X115510000Y-120760000D02*
X115510000Y-112920000D01*
X115510000Y-112920000D02*
X115030000Y-112920000D01*
X111670000Y-119500000D02*
X115510000Y-119500000D01*
X111670000Y-119380000D02*
X115510000Y-119380000D01*
X111670000Y-119620000D02*
X115510000Y-119620000D01*
G04 #@! TO.C,J1*
X140708000Y-75498000D02*
X143368000Y-75498000D01*
X140708000Y-67818000D02*
X140708000Y-75498000D01*
X143368000Y-67818000D02*
X143368000Y-75498000D01*
X140708000Y-67818000D02*
X143368000Y-67818000D01*
X140708000Y-66548000D02*
X140708000Y-65218000D01*
X140708000Y-65218000D02*
X142038000Y-65218000D01*
G04 #@! TO.C,J4*
X102465000Y-103870000D02*
X102465000Y-119650000D01*
X102465000Y-119650000D02*
X93115000Y-119650000D01*
X93115000Y-119650000D02*
X93115000Y-103870000D01*
X93115000Y-103870000D02*
X102465000Y-103870000D01*
X92865000Y-103620000D02*
X92865000Y-106160000D01*
X92865000Y-103620000D02*
X95405000Y-103620000D01*
D14*
G04 #@! TO.C,Q1*
X94120000Y-138410000D02*
X94520000Y-138410000D01*
X94120000Y-138810000D02*
X94120000Y-138410000D01*
X94120000Y-148610000D02*
X94120000Y-148210000D01*
X94120000Y-148610000D02*
X94520000Y-148610000D01*
X98920000Y-148610000D02*
X98920000Y-148210000D01*
X98920000Y-148610000D02*
X94520000Y-148610000D01*
X98920000Y-138410000D02*
X98920000Y-138810000D01*
X98920000Y-138410000D02*
X98520000Y-138410000D01*
X95230000Y-148610000D02*
X95230000Y-138510000D01*
D15*
G04 #@! TO.C,Q2*
X115850000Y-141560000D02*
G75*
G03X115800000Y-145410000I1900000J-1950000D01*
G01*
D14*
X119000000Y-141160000D02*
X118700000Y-141010000D01*
X119000000Y-141160000D02*
X119000000Y-141460000D01*
X119000000Y-145560000D02*
X119000000Y-145860000D01*
X119000000Y-145860000D02*
X118700000Y-146010000D01*
G04 #@! TO.C,Q3*
X95230000Y-161310000D02*
X95230000Y-151210000D01*
X98920000Y-151110000D02*
X98520000Y-151110000D01*
X98920000Y-151110000D02*
X98920000Y-151510000D01*
X98920000Y-161310000D02*
X94520000Y-161310000D01*
X98920000Y-161310000D02*
X98920000Y-160910000D01*
X94120000Y-161310000D02*
X94520000Y-161310000D01*
X94120000Y-161310000D02*
X94120000Y-160910000D01*
X94120000Y-151510000D02*
X94120000Y-151110000D01*
X94120000Y-151110000D02*
X94520000Y-151110000D01*
G04 #@! TO.C,Q4*
X119000000Y-157290000D02*
X118700000Y-157440000D01*
X119000000Y-156990000D02*
X119000000Y-157290000D01*
X119000000Y-152590000D02*
X119000000Y-152890000D01*
X119000000Y-152590000D02*
X118700000Y-152440000D01*
D15*
X115850000Y-152990000D02*
G75*
G03X115800000Y-156840000I1900000J-1950000D01*
G01*
D13*
G04 #@! TO.C,R1*
X109160000Y-146970000D02*
X105320000Y-146970000D01*
X109160000Y-145130000D02*
X105320000Y-145130000D01*
G04 #@! TO.C,R2*
X125640000Y-144430000D02*
X129480000Y-144430000D01*
X125640000Y-142590000D02*
X129480000Y-142590000D01*
G04 #@! TO.C,R3*
X105574000Y-67152000D02*
X109414000Y-67152000D01*
X105574000Y-68992000D02*
X109414000Y-68992000D01*
G04 #@! TO.C,R4*
X105320000Y-140620000D02*
X109160000Y-140620000D01*
X105320000Y-138780000D02*
X109160000Y-138780000D01*
G04 #@! TO.C,R5*
X109160000Y-157830000D02*
X105320000Y-157830000D01*
X109160000Y-159670000D02*
X105320000Y-159670000D01*
G04 #@! TO.C,R6*
X125640000Y-154020000D02*
X129480000Y-154020000D01*
X125640000Y-155860000D02*
X129480000Y-155860000D01*
G04 #@! TO.C,R7*
X105320000Y-151480000D02*
X109160000Y-151480000D01*
X105320000Y-153320000D02*
X109160000Y-153320000D01*
D16*
G04 #@! TO.C,S1*
X123130000Y-99398000D02*
X128330000Y-99398000D01*
X123130000Y-105398000D02*
X128330000Y-105398000D01*
X122730000Y-101098000D02*
X122730000Y-103698000D01*
X128730000Y-101098000D02*
X128730000Y-103698000D01*
X130152510Y-99422000D02*
G75*
G03X130152510Y-99422000I-63510J0D01*
G01*
G04 #@! TO.C,S2*
X120096510Y-99350000D02*
G75*
G03X120096510Y-99350000I-63510J0D01*
G01*
X118674000Y-101026000D02*
X118674000Y-103626000D01*
X112674000Y-101026000D02*
X112674000Y-103626000D01*
X113074000Y-105326000D02*
X118274000Y-105326000D01*
X113074000Y-99326000D02*
X118274000Y-99326000D01*
D13*
G04 #@! TO.C,U1*
X93250000Y-135071000D02*
X93250000Y-124830000D01*
X97891000Y-135071000D02*
X97891000Y-124830000D01*
X93250000Y-135071000D02*
X97891000Y-135071000D01*
X93250000Y-124830000D02*
X97891000Y-124830000D01*
X94760000Y-135071000D02*
X94760000Y-124830000D01*
X93250000Y-131800000D02*
X94760000Y-131800000D01*
X93250000Y-128100000D02*
X94760000Y-128100000D01*
D14*
G04 #@! TO.C,U2*
X145614000Y-108692000D02*
X145614000Y-118792000D01*
X141924000Y-118892000D02*
X142324000Y-118892000D01*
X141924000Y-118892000D02*
X141924000Y-118492000D01*
X141924000Y-108692000D02*
X146324000Y-108692000D01*
X141924000Y-108692000D02*
X141924000Y-109092000D01*
X146724000Y-108692000D02*
X146324000Y-108692000D01*
X146724000Y-108692000D02*
X146724000Y-109092000D01*
X146724000Y-118492000D02*
X146724000Y-118892000D01*
X146724000Y-118892000D02*
X146324000Y-118892000D01*
G04 #@! TO.C,D2*
D15*
X123011904Y-130882380D02*
X123011904Y-129882380D01*
X123250000Y-129882380D01*
X123392857Y-129930000D01*
X123488095Y-130025238D01*
X123535714Y-130120476D01*
X123583333Y-130310952D01*
X123583333Y-130453809D01*
X123535714Y-130644285D01*
X123488095Y-130739523D01*
X123392857Y-130834761D01*
X123250000Y-130882380D01*
X123011904Y-130882380D01*
X123964285Y-129977619D02*
X124011904Y-129930000D01*
X124107142Y-129882380D01*
X124345238Y-129882380D01*
X124440476Y-129930000D01*
X124488095Y-129977619D01*
X124535714Y-130072857D01*
X124535714Y-130168095D01*
X124488095Y-130310952D01*
X123916666Y-130882380D01*
X124535714Y-130882380D01*
X118408095Y-131602380D02*
X118408095Y-130602380D01*
X118979523Y-131602380D02*
X118550952Y-131030952D01*
X118979523Y-130602380D02*
X118408095Y-131173809D01*
G04 #@! TO.C,H1*
X138990095Y-47746380D02*
X138990095Y-46746380D01*
X138990095Y-47222571D02*
X139561523Y-47222571D01*
X139561523Y-47746380D02*
X139561523Y-46746380D01*
X140561523Y-47746380D02*
X139990095Y-47746380D01*
X140275809Y-47746380D02*
X140275809Y-46746380D01*
X140180571Y-46889238D01*
X140085333Y-46984476D01*
X139990095Y-47032095D01*
G04 #@! TO.C,H2*
X98858095Y-48000380D02*
X98858095Y-47000380D01*
X98858095Y-47476571D02*
X99429523Y-47476571D01*
X99429523Y-48000380D02*
X99429523Y-47000380D01*
X99858095Y-47095619D02*
X99905714Y-47048000D01*
X100000952Y-47000380D01*
X100239047Y-47000380D01*
X100334285Y-47048000D01*
X100381904Y-47095619D01*
X100429523Y-47190857D01*
X100429523Y-47286095D01*
X100381904Y-47428952D01*
X99810476Y-48000380D01*
X100429523Y-48000380D01*
G04 #@! TO.C,H4*
X138990095Y-162808380D02*
X138990095Y-161808380D01*
X138990095Y-162284571D02*
X139561523Y-162284571D01*
X139561523Y-162808380D02*
X139561523Y-161808380D01*
X140466285Y-162141714D02*
X140466285Y-162808380D01*
X140228190Y-161760761D02*
X139990095Y-162475047D01*
X140609142Y-162475047D01*
G04 #@! TO.C,H3*
X98858095Y-162554380D02*
X98858095Y-161554380D01*
X98858095Y-162030571D02*
X99429523Y-162030571D01*
X99429523Y-162554380D02*
X99429523Y-161554380D01*
X99810476Y-161554380D02*
X100429523Y-161554380D01*
X100096190Y-161935333D01*
X100239047Y-161935333D01*
X100334285Y-161982952D01*
X100381904Y-162030571D01*
X100429523Y-162125809D01*
X100429523Y-162363904D01*
X100381904Y-162459142D01*
X100334285Y-162506761D01*
X100239047Y-162554380D01*
X99953333Y-162554380D01*
X99858095Y-162506761D01*
X99810476Y-162459142D01*
G04 #@! TO.C,L1*
X123543333Y-116772380D02*
X123067142Y-116772380D01*
X123067142Y-115772380D01*
X124400476Y-116772380D02*
X123829047Y-116772380D01*
X124114761Y-116772380D02*
X124114761Y-115772380D01*
X124019523Y-115915238D01*
X123924285Y-116010476D01*
X123829047Y-116058095D01*
G04 #@! TO.C,J5*
X97202666Y-63206380D02*
X97202666Y-63920666D01*
X97155047Y-64063523D01*
X97059809Y-64158761D01*
X96916952Y-64206380D01*
X96821714Y-64206380D01*
X98155047Y-63206380D02*
X97678857Y-63206380D01*
X97631238Y-63682571D01*
X97678857Y-63634952D01*
X97774095Y-63587333D01*
X98012190Y-63587333D01*
X98107428Y-63634952D01*
X98155047Y-63682571D01*
X98202666Y-63777809D01*
X98202666Y-64015904D01*
X98155047Y-64111142D01*
X98107428Y-64158761D01*
X98012190Y-64206380D01*
X97774095Y-64206380D01*
X97678857Y-64158761D01*
X97631238Y-64111142D01*
X93536000Y-92654380D02*
X93536000Y-91654380D01*
X93774095Y-91654380D01*
X93916952Y-91702000D01*
X94012190Y-91797238D01*
X94059809Y-91892476D01*
X94107428Y-92082952D01*
X94107428Y-92225809D01*
X94059809Y-92416285D01*
X94012190Y-92511523D01*
X93916952Y-92606761D01*
X93774095Y-92654380D01*
X93536000Y-92654380D01*
X94726476Y-91654380D02*
X94916952Y-91654380D01*
X95012190Y-91702000D01*
X95107428Y-91797238D01*
X95155047Y-91987714D01*
X95155047Y-92321047D01*
X95107428Y-92511523D01*
X95012190Y-92606761D01*
X94916952Y-92654380D01*
X94726476Y-92654380D01*
X94631238Y-92606761D01*
X94536000Y-92511523D01*
X94488380Y-92321047D01*
X94488380Y-91987714D01*
X94536000Y-91797238D01*
X94631238Y-91702000D01*
X94726476Y-91654380D01*
X95440761Y-91654380D02*
X96012190Y-91654380D01*
X95726476Y-92654380D02*
X95726476Y-91654380D01*
X96107428Y-92749619D02*
X96869333Y-92749619D01*
X97440761Y-92130571D02*
X97583619Y-92178190D01*
X97631238Y-92225809D01*
X97678857Y-92321047D01*
X97678857Y-92463904D01*
X97631238Y-92559142D01*
X97583619Y-92606761D01*
X97488380Y-92654380D01*
X97107428Y-92654380D01*
X97107428Y-91654380D01*
X97440761Y-91654380D01*
X97536000Y-91702000D01*
X97583619Y-91749619D01*
X97631238Y-91844857D01*
X97631238Y-91940095D01*
X97583619Y-92035333D01*
X97536000Y-92082952D01*
X97440761Y-92130571D01*
X97107428Y-92130571D01*
X98297904Y-91654380D02*
X98488380Y-91654380D01*
X98583619Y-91702000D01*
X98678857Y-91797238D01*
X98726476Y-91987714D01*
X98726476Y-92321047D01*
X98678857Y-92511523D01*
X98583619Y-92606761D01*
X98488380Y-92654380D01*
X98297904Y-92654380D01*
X98202666Y-92606761D01*
X98107428Y-92511523D01*
X98059809Y-92321047D01*
X98059809Y-91987714D01*
X98107428Y-91797238D01*
X98202666Y-91702000D01*
X98297904Y-91654380D01*
X99107428Y-92368666D02*
X99583619Y-92368666D01*
X99012190Y-92654380D02*
X99345523Y-91654380D01*
X99678857Y-92654380D01*
X100583619Y-92654380D02*
X100250285Y-92178190D01*
X100012190Y-92654380D02*
X100012190Y-91654380D01*
X100393142Y-91654380D01*
X100488380Y-91702000D01*
X100536000Y-91749619D01*
X100583619Y-91844857D01*
X100583619Y-91987714D01*
X100536000Y-92082952D01*
X100488380Y-92130571D01*
X100393142Y-92178190D01*
X100012190Y-92178190D01*
X101012190Y-92654380D02*
X101012190Y-91654380D01*
X101250285Y-91654380D01*
X101393142Y-91702000D01*
X101488380Y-91797238D01*
X101536000Y-91892476D01*
X101583619Y-92082952D01*
X101583619Y-92225809D01*
X101536000Y-92416285D01*
X101488380Y-92511523D01*
X101393142Y-92606761D01*
X101250285Y-92654380D01*
X101012190Y-92654380D01*
G04 #@! TO.C,J2*
X141704666Y-77894380D02*
X141704666Y-78608666D01*
X141657047Y-78751523D01*
X141561809Y-78846761D01*
X141418952Y-78894380D01*
X141323714Y-78894380D01*
X142133238Y-77989619D02*
X142180857Y-77942000D01*
X142276095Y-77894380D01*
X142514190Y-77894380D01*
X142609428Y-77942000D01*
X142657047Y-77989619D01*
X142704666Y-78084857D01*
X142704666Y-78180095D01*
X142657047Y-78322952D01*
X142085619Y-78894380D01*
X142704666Y-78894380D01*
X145490761Y-88288380D02*
X145538380Y-88145523D01*
X145538380Y-87907428D01*
X145490761Y-87812190D01*
X145443142Y-87764571D01*
X145347904Y-87716952D01*
X145252666Y-87716952D01*
X145157428Y-87764571D01*
X145109809Y-87812190D01*
X145062190Y-87907428D01*
X145014571Y-88097904D01*
X144966952Y-88193142D01*
X144919333Y-88240761D01*
X144824095Y-88288380D01*
X144728857Y-88288380D01*
X144633619Y-88240761D01*
X144586000Y-88193142D01*
X144538380Y-88097904D01*
X144538380Y-87859809D01*
X144586000Y-87716952D01*
X145014571Y-87288380D02*
X145014571Y-86955047D01*
X145538380Y-86812190D02*
X145538380Y-87288380D01*
X144538380Y-87288380D01*
X144538380Y-86812190D01*
X145538380Y-85812190D02*
X145062190Y-86145523D01*
X145538380Y-86383619D02*
X144538380Y-86383619D01*
X144538380Y-86002666D01*
X144586000Y-85907428D01*
X144633619Y-85859809D01*
X144728857Y-85812190D01*
X144871714Y-85812190D01*
X144966952Y-85859809D01*
X145014571Y-85907428D01*
X145062190Y-86002666D01*
X145062190Y-86383619D01*
X145538380Y-85383619D02*
X144538380Y-85383619D01*
X145252666Y-84955047D02*
X145252666Y-84478857D01*
X145538380Y-85050285D02*
X144538380Y-84716952D01*
X145538380Y-84383619D01*
X145538380Y-83574095D02*
X145538380Y-84050285D01*
X144538380Y-84050285D01*
X145633619Y-83478857D02*
X145633619Y-82716952D01*
X145538380Y-82478857D02*
X144538380Y-82478857D01*
X145538380Y-82002666D02*
X144538380Y-82002666D01*
X145538380Y-81431238D01*
X144538380Y-81431238D01*
G04 #@! TO.C,MOD1*
X125802666Y-64915380D02*
X125802666Y-63915380D01*
X126136000Y-64629666D01*
X126469333Y-63915380D01*
X126469333Y-64915380D01*
X127136000Y-63915380D02*
X127326476Y-63915380D01*
X127421714Y-63963000D01*
X127516952Y-64058238D01*
X127564571Y-64248714D01*
X127564571Y-64582047D01*
X127516952Y-64772523D01*
X127421714Y-64867761D01*
X127326476Y-64915380D01*
X127136000Y-64915380D01*
X127040761Y-64867761D01*
X126945523Y-64772523D01*
X126897904Y-64582047D01*
X126897904Y-64248714D01*
X126945523Y-64058238D01*
X127040761Y-63963000D01*
X127136000Y-63915380D01*
X127993142Y-64915380D02*
X127993142Y-63915380D01*
X128231238Y-63915380D01*
X128374095Y-63963000D01*
X128469333Y-64058238D01*
X128516952Y-64153476D01*
X128564571Y-64343952D01*
X128564571Y-64486809D01*
X128516952Y-64677285D01*
X128469333Y-64772523D01*
X128374095Y-64867761D01*
X128231238Y-64915380D01*
X127993142Y-64915380D01*
X129516952Y-64915380D02*
X128945523Y-64915380D01*
X129231238Y-64915380D02*
X129231238Y-63915380D01*
X129136000Y-64058238D01*
X129040761Y-64153476D01*
X128945523Y-64201095D01*
X120790190Y-92892571D02*
X121123523Y-92892571D01*
X121266380Y-93416380D02*
X120790190Y-93416380D01*
X120790190Y-92416380D01*
X121266380Y-92416380D01*
X121647333Y-93368761D02*
X121790190Y-93416380D01*
X122028285Y-93416380D01*
X122123523Y-93368761D01*
X122171142Y-93321142D01*
X122218761Y-93225904D01*
X122218761Y-93130666D01*
X122171142Y-93035428D01*
X122123523Y-92987809D01*
X122028285Y-92940190D01*
X121837809Y-92892571D01*
X121742571Y-92844952D01*
X121694952Y-92797333D01*
X121647333Y-92702095D01*
X121647333Y-92606857D01*
X121694952Y-92511619D01*
X121742571Y-92464000D01*
X121837809Y-92416380D01*
X122075904Y-92416380D01*
X122218761Y-92464000D01*
X122647333Y-93416380D02*
X122647333Y-92416380D01*
X123028285Y-92416380D01*
X123123523Y-92464000D01*
X123171142Y-92511619D01*
X123218761Y-92606857D01*
X123218761Y-92749714D01*
X123171142Y-92844952D01*
X123123523Y-92892571D01*
X123028285Y-92940190D01*
X122647333Y-92940190D01*
X123552095Y-92416380D02*
X124171142Y-92416380D01*
X123837809Y-92797333D01*
X123980666Y-92797333D01*
X124075904Y-92844952D01*
X124123523Y-92892571D01*
X124171142Y-92987809D01*
X124171142Y-93225904D01*
X124123523Y-93321142D01*
X124075904Y-93368761D01*
X123980666Y-93416380D01*
X123694952Y-93416380D01*
X123599714Y-93368761D01*
X123552095Y-93321142D01*
X124552095Y-92511619D02*
X124599714Y-92464000D01*
X124694952Y-92416380D01*
X124933047Y-92416380D01*
X125028285Y-92464000D01*
X125075904Y-92511619D01*
X125123523Y-92606857D01*
X125123523Y-92702095D01*
X125075904Y-92844952D01*
X124504476Y-93416380D01*
X125123523Y-93416380D01*
X125552095Y-93035428D02*
X126314000Y-93035428D01*
X126694952Y-92416380D02*
X126933047Y-93416380D01*
X127123523Y-92702095D01*
X127314000Y-93416380D01*
X127552095Y-92416380D01*
X128504476Y-93416380D02*
X128171142Y-92940190D01*
X127933047Y-93416380D02*
X127933047Y-92416380D01*
X128314000Y-92416380D01*
X128409238Y-92464000D01*
X128456857Y-92511619D01*
X128504476Y-92606857D01*
X128504476Y-92749714D01*
X128456857Y-92844952D01*
X128409238Y-92892571D01*
X128314000Y-92940190D01*
X127933047Y-92940190D01*
X129123523Y-92416380D02*
X129314000Y-92416380D01*
X129409238Y-92464000D01*
X129504476Y-92559238D01*
X129552095Y-92749714D01*
X129552095Y-93083047D01*
X129504476Y-93273523D01*
X129409238Y-93368761D01*
X129314000Y-93416380D01*
X129123523Y-93416380D01*
X129028285Y-93368761D01*
X128933047Y-93273523D01*
X128885428Y-93083047D01*
X128885428Y-92749714D01*
X128933047Y-92559238D01*
X129028285Y-92464000D01*
X129123523Y-92416380D01*
X130171142Y-92416380D02*
X130361619Y-92416380D01*
X130456857Y-92464000D01*
X130552095Y-92559238D01*
X130599714Y-92749714D01*
X130599714Y-93083047D01*
X130552095Y-93273523D01*
X130456857Y-93368761D01*
X130361619Y-93416380D01*
X130171142Y-93416380D01*
X130075904Y-93368761D01*
X129980666Y-93273523D01*
X129933047Y-93083047D01*
X129933047Y-92749714D01*
X129980666Y-92559238D01*
X130075904Y-92464000D01*
X130171142Y-92416380D01*
X131028285Y-93416380D02*
X131028285Y-92416380D01*
X131361619Y-93130666D01*
X131694952Y-92416380D01*
X131694952Y-93416380D01*
X132171142Y-93035428D02*
X132933047Y-93035428D01*
X133314000Y-92416380D02*
X133933047Y-92416380D01*
X133599714Y-92797333D01*
X133742571Y-92797333D01*
X133837809Y-92844952D01*
X133885428Y-92892571D01*
X133933047Y-92987809D01*
X133933047Y-93225904D01*
X133885428Y-93321142D01*
X133837809Y-93368761D01*
X133742571Y-93416380D01*
X133456857Y-93416380D01*
X133361619Y-93368761D01*
X133314000Y-93321142D01*
X134314000Y-92511619D02*
X134361619Y-92464000D01*
X134456857Y-92416380D01*
X134694952Y-92416380D01*
X134790190Y-92464000D01*
X134837809Y-92511619D01*
X134885428Y-92606857D01*
X134885428Y-92702095D01*
X134837809Y-92844952D01*
X134266380Y-93416380D01*
X134885428Y-93416380D01*
G04 #@! TO.C,C5*
X143415333Y-132243142D02*
X143367714Y-132290761D01*
X143224857Y-132338380D01*
X143129619Y-132338380D01*
X142986761Y-132290761D01*
X142891523Y-132195523D01*
X142843904Y-132100285D01*
X142796285Y-131909809D01*
X142796285Y-131766952D01*
X142843904Y-131576476D01*
X142891523Y-131481238D01*
X142986761Y-131386000D01*
X143129619Y-131338380D01*
X143224857Y-131338380D01*
X143367714Y-131386000D01*
X143415333Y-131433619D01*
X144320095Y-131338380D02*
X143843904Y-131338380D01*
X143796285Y-131814571D01*
X143843904Y-131766952D01*
X143939142Y-131719333D01*
X144177238Y-131719333D01*
X144272476Y-131766952D01*
X144320095Y-131814571D01*
X144367714Y-131909809D01*
X144367714Y-132147904D01*
X144320095Y-132243142D01*
X144272476Y-132290761D01*
X144177238Y-132338380D01*
X143939142Y-132338380D01*
X143843904Y-132290761D01*
X143796285Y-132243142D01*
X141415333Y-138838380D02*
X142034380Y-138838380D01*
X141701047Y-139219333D01*
X141843904Y-139219333D01*
X141939142Y-139266952D01*
X141986761Y-139314571D01*
X142034380Y-139409809D01*
X142034380Y-139647904D01*
X141986761Y-139743142D01*
X141939142Y-139790761D01*
X141843904Y-139838380D01*
X141558190Y-139838380D01*
X141462952Y-139790761D01*
X141415333Y-139743142D01*
X142367714Y-138838380D02*
X142986761Y-138838380D01*
X142653428Y-139219333D01*
X142796285Y-139219333D01*
X142891523Y-139266952D01*
X142939142Y-139314571D01*
X142986761Y-139409809D01*
X142986761Y-139647904D01*
X142939142Y-139743142D01*
X142891523Y-139790761D01*
X142796285Y-139838380D01*
X142510571Y-139838380D01*
X142415333Y-139790761D01*
X142367714Y-139743142D01*
X143605809Y-138838380D02*
X143701047Y-138838380D01*
X143796285Y-138886000D01*
X143843904Y-138933619D01*
X143891523Y-139028857D01*
X143939142Y-139219333D01*
X143939142Y-139457428D01*
X143891523Y-139647904D01*
X143843904Y-139743142D01*
X143796285Y-139790761D01*
X143701047Y-139838380D01*
X143605809Y-139838380D01*
X143510571Y-139790761D01*
X143462952Y-139743142D01*
X143415333Y-139647904D01*
X143367714Y-139457428D01*
X143367714Y-139219333D01*
X143415333Y-139028857D01*
X143462952Y-138933619D01*
X143510571Y-138886000D01*
X143605809Y-138838380D01*
X144796285Y-139171714D02*
X144796285Y-139838380D01*
X144367714Y-139171714D02*
X144367714Y-139695523D01*
X144415333Y-139790761D01*
X144510571Y-139838380D01*
X144653428Y-139838380D01*
X144748666Y-139790761D01*
X144796285Y-139743142D01*
X145605809Y-139314571D02*
X145272476Y-139314571D01*
X145272476Y-139838380D02*
X145272476Y-138838380D01*
X145748666Y-138838380D01*
G04 #@! TO.C,C4*
X143669333Y-100239142D02*
X143621714Y-100286761D01*
X143478857Y-100334380D01*
X143383619Y-100334380D01*
X143240761Y-100286761D01*
X143145523Y-100191523D01*
X143097904Y-100096285D01*
X143050285Y-99905809D01*
X143050285Y-99762952D01*
X143097904Y-99572476D01*
X143145523Y-99477238D01*
X143240761Y-99382000D01*
X143383619Y-99334380D01*
X143478857Y-99334380D01*
X143621714Y-99382000D01*
X143669333Y-99429619D01*
X144526476Y-99667714D02*
X144526476Y-100334380D01*
X144288380Y-99286761D02*
X144050285Y-100001047D01*
X144669333Y-100001047D01*
X142764571Y-107834380D02*
X142193142Y-107834380D01*
X142478857Y-107834380D02*
X142478857Y-106834380D01*
X142383619Y-106977238D01*
X142288380Y-107072476D01*
X142193142Y-107120095D01*
X143383619Y-106834380D02*
X143478857Y-106834380D01*
X143574095Y-106882000D01*
X143621714Y-106929619D01*
X143669333Y-107024857D01*
X143716952Y-107215333D01*
X143716952Y-107453428D01*
X143669333Y-107643904D01*
X143621714Y-107739142D01*
X143574095Y-107786761D01*
X143478857Y-107834380D01*
X143383619Y-107834380D01*
X143288380Y-107786761D01*
X143240761Y-107739142D01*
X143193142Y-107643904D01*
X143145523Y-107453428D01*
X143145523Y-107215333D01*
X143193142Y-107024857D01*
X143240761Y-106929619D01*
X143288380Y-106882000D01*
X143383619Y-106834380D01*
X144574095Y-107167714D02*
X144574095Y-107834380D01*
X144145523Y-107167714D02*
X144145523Y-107691523D01*
X144193142Y-107786761D01*
X144288380Y-107834380D01*
X144431238Y-107834380D01*
X144526476Y-107786761D01*
X144574095Y-107739142D01*
X145383619Y-107310571D02*
X145050285Y-107310571D01*
X145050285Y-107834380D02*
X145050285Y-106834380D01*
X145526476Y-106834380D01*
G04 #@! TO.C,C3*
X143415333Y-121575142D02*
X143367714Y-121622761D01*
X143224857Y-121670380D01*
X143129619Y-121670380D01*
X142986761Y-121622761D01*
X142891523Y-121527523D01*
X142843904Y-121432285D01*
X142796285Y-121241809D01*
X142796285Y-121098952D01*
X142843904Y-120908476D01*
X142891523Y-120813238D01*
X142986761Y-120718000D01*
X143129619Y-120670380D01*
X143224857Y-120670380D01*
X143367714Y-120718000D01*
X143415333Y-120765619D01*
X143748666Y-120670380D02*
X144367714Y-120670380D01*
X144034380Y-121051333D01*
X144177238Y-121051333D01*
X144272476Y-121098952D01*
X144320095Y-121146571D01*
X144367714Y-121241809D01*
X144367714Y-121479904D01*
X144320095Y-121575142D01*
X144272476Y-121622761D01*
X144177238Y-121670380D01*
X143891523Y-121670380D01*
X143796285Y-121622761D01*
X143748666Y-121575142D01*
X142510571Y-129170380D02*
X141939142Y-129170380D01*
X142224857Y-129170380D02*
X142224857Y-128170380D01*
X142129619Y-128313238D01*
X142034380Y-128408476D01*
X141939142Y-128456095D01*
X143129619Y-128170380D02*
X143224857Y-128170380D01*
X143320095Y-128218000D01*
X143367714Y-128265619D01*
X143415333Y-128360857D01*
X143462952Y-128551333D01*
X143462952Y-128789428D01*
X143415333Y-128979904D01*
X143367714Y-129075142D01*
X143320095Y-129122761D01*
X143224857Y-129170380D01*
X143129619Y-129170380D01*
X143034380Y-129122761D01*
X142986761Y-129075142D01*
X142939142Y-128979904D01*
X142891523Y-128789428D01*
X142891523Y-128551333D01*
X142939142Y-128360857D01*
X142986761Y-128265619D01*
X143034380Y-128218000D01*
X143129619Y-128170380D01*
X144320095Y-128503714D02*
X144320095Y-129170380D01*
X143891523Y-128503714D02*
X143891523Y-129027523D01*
X143939142Y-129122761D01*
X144034380Y-129170380D01*
X144177238Y-129170380D01*
X144272476Y-129122761D01*
X144320095Y-129075142D01*
X145129619Y-128646571D02*
X144796285Y-128646571D01*
X144796285Y-129170380D02*
X144796285Y-128170380D01*
X145272476Y-128170380D01*
G04 #@! TO.C,C2*
X110903333Y-126147142D02*
X110855714Y-126194761D01*
X110712857Y-126242380D01*
X110617619Y-126242380D01*
X110474761Y-126194761D01*
X110379523Y-126099523D01*
X110331904Y-126004285D01*
X110284285Y-125813809D01*
X110284285Y-125670952D01*
X110331904Y-125480476D01*
X110379523Y-125385238D01*
X110474761Y-125290000D01*
X110617619Y-125242380D01*
X110712857Y-125242380D01*
X110855714Y-125290000D01*
X110903333Y-125337619D01*
X111284285Y-125337619D02*
X111331904Y-125290000D01*
X111427142Y-125242380D01*
X111665238Y-125242380D01*
X111760476Y-125290000D01*
X111808095Y-125337619D01*
X111855714Y-125432857D01*
X111855714Y-125528095D01*
X111808095Y-125670952D01*
X111236666Y-126242380D01*
X111855714Y-126242380D01*
X109522380Y-133742380D02*
X108950952Y-133742380D01*
X109236666Y-133742380D02*
X109236666Y-132742380D01*
X109141428Y-132885238D01*
X109046190Y-132980476D01*
X108950952Y-133028095D01*
X110141428Y-132742380D02*
X110236666Y-132742380D01*
X110331904Y-132790000D01*
X110379523Y-132837619D01*
X110427142Y-132932857D01*
X110474761Y-133123333D01*
X110474761Y-133361428D01*
X110427142Y-133551904D01*
X110379523Y-133647142D01*
X110331904Y-133694761D01*
X110236666Y-133742380D01*
X110141428Y-133742380D01*
X110046190Y-133694761D01*
X109998571Y-133647142D01*
X109950952Y-133551904D01*
X109903333Y-133361428D01*
X109903333Y-133123333D01*
X109950952Y-132932857D01*
X109998571Y-132837619D01*
X110046190Y-132790000D01*
X110141428Y-132742380D01*
X111093809Y-132742380D02*
X111189047Y-132742380D01*
X111284285Y-132790000D01*
X111331904Y-132837619D01*
X111379523Y-132932857D01*
X111427142Y-133123333D01*
X111427142Y-133361428D01*
X111379523Y-133551904D01*
X111331904Y-133647142D01*
X111284285Y-133694761D01*
X111189047Y-133742380D01*
X111093809Y-133742380D01*
X110998571Y-133694761D01*
X110950952Y-133647142D01*
X110903333Y-133551904D01*
X110855714Y-133361428D01*
X110855714Y-133123333D01*
X110903333Y-132932857D01*
X110950952Y-132837619D01*
X110998571Y-132790000D01*
X111093809Y-132742380D01*
X112284285Y-133075714D02*
X112284285Y-133742380D01*
X111855714Y-133075714D02*
X111855714Y-133599523D01*
X111903333Y-133694761D01*
X111998571Y-133742380D01*
X112141428Y-133742380D01*
X112236666Y-133694761D01*
X112284285Y-133647142D01*
X113093809Y-133218571D02*
X112760476Y-133218571D01*
X112760476Y-133742380D02*
X112760476Y-132742380D01*
X113236666Y-132742380D01*
G04 #@! TO.C,C1*
X113421142Y-68258666D02*
X113468761Y-68306285D01*
X113516380Y-68449142D01*
X113516380Y-68544380D01*
X113468761Y-68687238D01*
X113373523Y-68782476D01*
X113278285Y-68830095D01*
X113087809Y-68877714D01*
X112944952Y-68877714D01*
X112754476Y-68830095D01*
X112659238Y-68782476D01*
X112564000Y-68687238D01*
X112516380Y-68544380D01*
X112516380Y-68449142D01*
X112564000Y-68306285D01*
X112611619Y-68258666D01*
X113516380Y-67306285D02*
X113516380Y-67877714D01*
X113516380Y-67592000D02*
X112516380Y-67592000D01*
X112659238Y-67687238D01*
X112754476Y-67782476D01*
X112802095Y-67877714D01*
X116616380Y-69734857D02*
X116616380Y-69639619D01*
X116664000Y-69544380D01*
X116711619Y-69496761D01*
X116806857Y-69449142D01*
X116997333Y-69401523D01*
X117235428Y-69401523D01*
X117425904Y-69449142D01*
X117521142Y-69496761D01*
X117568761Y-69544380D01*
X117616380Y-69639619D01*
X117616380Y-69734857D01*
X117568761Y-69830095D01*
X117521142Y-69877714D01*
X117425904Y-69925333D01*
X117235428Y-69972952D01*
X116997333Y-69972952D01*
X116806857Y-69925333D01*
X116711619Y-69877714D01*
X116664000Y-69830095D01*
X116616380Y-69734857D01*
X117521142Y-68972952D02*
X117568761Y-68925333D01*
X117616380Y-68972952D01*
X117568761Y-69020571D01*
X117521142Y-68972952D01*
X117616380Y-68972952D01*
X117616380Y-67972952D02*
X117616380Y-68544380D01*
X117616380Y-68258666D02*
X116616380Y-68258666D01*
X116759238Y-68353904D01*
X116854476Y-68449142D01*
X116902095Y-68544380D01*
X116949714Y-67115809D02*
X117616380Y-67115809D01*
X116949714Y-67544380D02*
X117473523Y-67544380D01*
X117568761Y-67496761D01*
X117616380Y-67401523D01*
X117616380Y-67258666D01*
X117568761Y-67163428D01*
X117521142Y-67115809D01*
X117092571Y-66306285D02*
X117092571Y-66639619D01*
X117616380Y-66639619D02*
X116616380Y-66639619D01*
X116616380Y-66163428D01*
G04 #@! TO.C,D1*
X111122380Y-117578095D02*
X110122380Y-117578095D01*
X110122380Y-117340000D01*
X110170000Y-117197142D01*
X110265238Y-117101904D01*
X110360476Y-117054285D01*
X110550952Y-117006666D01*
X110693809Y-117006666D01*
X110884285Y-117054285D01*
X110979523Y-117101904D01*
X111074761Y-117197142D01*
X111122380Y-117340000D01*
X111122380Y-117578095D01*
X111122380Y-116054285D02*
X111122380Y-116625714D01*
X111122380Y-116340000D02*
X110122380Y-116340000D01*
X110265238Y-116435238D01*
X110360476Y-116530476D01*
X110408095Y-116625714D01*
X111842380Y-122181904D02*
X110842380Y-122181904D01*
X111842380Y-121610476D02*
X111270952Y-122039047D01*
X110842380Y-121610476D02*
X111413809Y-122181904D01*
G04 #@! TO.C,J1*
X141704666Y-63670380D02*
X141704666Y-64384666D01*
X141657047Y-64527523D01*
X141561809Y-64622761D01*
X141418952Y-64670380D01*
X141323714Y-64670380D01*
X142704666Y-64670380D02*
X142133238Y-64670380D01*
X142418952Y-64670380D02*
X142418952Y-63670380D01*
X142323714Y-63813238D01*
X142228476Y-63908476D01*
X142133238Y-63956095D01*
X145538380Y-75731047D02*
X144538380Y-75731047D01*
X144538380Y-75350095D01*
X144586000Y-75254857D01*
X144633619Y-75207238D01*
X144728857Y-75159619D01*
X144871714Y-75159619D01*
X144966952Y-75207238D01*
X145014571Y-75254857D01*
X145062190Y-75350095D01*
X145062190Y-75731047D01*
X145538380Y-74159619D02*
X145062190Y-74492952D01*
X145538380Y-74731047D02*
X144538380Y-74731047D01*
X144538380Y-74350095D01*
X144586000Y-74254857D01*
X144633619Y-74207238D01*
X144728857Y-74159619D01*
X144871714Y-74159619D01*
X144966952Y-74207238D01*
X145014571Y-74254857D01*
X145062190Y-74350095D01*
X145062190Y-74731047D01*
X144538380Y-73540571D02*
X144538380Y-73350095D01*
X144586000Y-73254857D01*
X144681238Y-73159619D01*
X144871714Y-73112000D01*
X145205047Y-73112000D01*
X145395523Y-73159619D01*
X145490761Y-73254857D01*
X145538380Y-73350095D01*
X145538380Y-73540571D01*
X145490761Y-73635809D01*
X145395523Y-73731047D01*
X145205047Y-73778666D01*
X144871714Y-73778666D01*
X144681238Y-73731047D01*
X144586000Y-73635809D01*
X144538380Y-73540571D01*
X144586000Y-72159619D02*
X144538380Y-72254857D01*
X144538380Y-72397714D01*
X144586000Y-72540571D01*
X144681238Y-72635809D01*
X144776476Y-72683428D01*
X144966952Y-72731047D01*
X145109809Y-72731047D01*
X145300285Y-72683428D01*
X145395523Y-72635809D01*
X145490761Y-72540571D01*
X145538380Y-72397714D01*
X145538380Y-72302476D01*
X145490761Y-72159619D01*
X145443142Y-72112000D01*
X145109809Y-72112000D01*
X145109809Y-72302476D01*
X145538380Y-71112000D02*
X145062190Y-71445333D01*
X145538380Y-71683428D02*
X144538380Y-71683428D01*
X144538380Y-71302476D01*
X144586000Y-71207238D01*
X144633619Y-71159619D01*
X144728857Y-71112000D01*
X144871714Y-71112000D01*
X144966952Y-71159619D01*
X145014571Y-71207238D01*
X145062190Y-71302476D01*
X145062190Y-71683428D01*
X145252666Y-70731047D02*
X145252666Y-70254857D01*
X145538380Y-70826285D02*
X144538380Y-70492952D01*
X145538380Y-70159619D01*
X145538380Y-69826285D02*
X144538380Y-69826285D01*
X145252666Y-69492952D01*
X144538380Y-69159619D01*
X145538380Y-69159619D01*
X145538380Y-68683428D02*
X144538380Y-68683428D01*
X145252666Y-68350095D01*
X144538380Y-68016761D01*
X145538380Y-68016761D01*
X145538380Y-67540571D02*
X144538380Y-67540571D01*
X145538380Y-67064380D02*
X144538380Y-67064380D01*
X145538380Y-66492952D01*
X144538380Y-66492952D01*
X144586000Y-65492952D02*
X144538380Y-65588190D01*
X144538380Y-65731047D01*
X144586000Y-65873904D01*
X144681238Y-65969142D01*
X144776476Y-66016761D01*
X144966952Y-66064380D01*
X145109809Y-66064380D01*
X145300285Y-66016761D01*
X145395523Y-65969142D01*
X145490761Y-65873904D01*
X145538380Y-65731047D01*
X145538380Y-65635809D01*
X145490761Y-65492952D01*
X145443142Y-65445333D01*
X145109809Y-65445333D01*
X145109809Y-65635809D01*
G04 #@! TO.C,J3*
X142466666Y-158710380D02*
X142466666Y-159424666D01*
X142419047Y-159567523D01*
X142323809Y-159662761D01*
X142180952Y-159710380D01*
X142085714Y-159710380D01*
X142847619Y-158710380D02*
X143466666Y-158710380D01*
X143133333Y-159091333D01*
X143276190Y-159091333D01*
X143371428Y-159138952D01*
X143419047Y-159186571D01*
X143466666Y-159281809D01*
X143466666Y-159519904D01*
X143419047Y-159615142D01*
X143371428Y-159662761D01*
X143276190Y-159710380D01*
X142990476Y-159710380D01*
X142895238Y-159662761D01*
X142847619Y-159615142D01*
G04 #@! TO.C,J4*
X97456666Y-102068380D02*
X97456666Y-102782666D01*
X97409047Y-102925523D01*
X97313809Y-103020761D01*
X97170952Y-103068380D01*
X97075714Y-103068380D01*
X98361428Y-102401714D02*
X98361428Y-103068380D01*
X98123333Y-102020761D02*
X97885238Y-102735047D01*
X98504285Y-102735047D01*
X94670952Y-121356380D02*
X94194761Y-121356380D01*
X94194761Y-120356380D01*
X95004285Y-120832571D02*
X95337619Y-120832571D01*
X95480476Y-121356380D02*
X95004285Y-121356380D01*
X95004285Y-120356380D01*
X95480476Y-120356380D01*
X95909047Y-121356380D02*
X95909047Y-120356380D01*
X96147142Y-120356380D01*
X96290000Y-120404000D01*
X96385238Y-120499238D01*
X96432857Y-120594476D01*
X96480476Y-120784952D01*
X96480476Y-120927809D01*
X96432857Y-121118285D01*
X96385238Y-121213523D01*
X96290000Y-121308761D01*
X96147142Y-121356380D01*
X95909047Y-121356380D01*
X96670952Y-121451619D02*
X97432857Y-121451619D01*
X97623333Y-121308761D02*
X97766190Y-121356380D01*
X98004285Y-121356380D01*
X98099523Y-121308761D01*
X98147142Y-121261142D01*
X98194761Y-121165904D01*
X98194761Y-121070666D01*
X98147142Y-120975428D01*
X98099523Y-120927809D01*
X98004285Y-120880190D01*
X97813809Y-120832571D01*
X97718571Y-120784952D01*
X97670952Y-120737333D01*
X97623333Y-120642095D01*
X97623333Y-120546857D01*
X97670952Y-120451619D01*
X97718571Y-120404000D01*
X97813809Y-120356380D01*
X98051904Y-120356380D01*
X98194761Y-120404000D01*
X98480476Y-120356380D02*
X99051904Y-120356380D01*
X98766190Y-121356380D02*
X98766190Y-120356380D01*
X99956666Y-121356380D02*
X99623333Y-120880190D01*
X99385238Y-121356380D02*
X99385238Y-120356380D01*
X99766190Y-120356380D01*
X99861428Y-120404000D01*
X99909047Y-120451619D01*
X99956666Y-120546857D01*
X99956666Y-120689714D01*
X99909047Y-120784952D01*
X99861428Y-120832571D01*
X99766190Y-120880190D01*
X99385238Y-120880190D01*
X100385238Y-121356380D02*
X100385238Y-120356380D01*
X100861428Y-121356380D02*
X100861428Y-120356380D01*
X101242380Y-120356380D01*
X101337619Y-120404000D01*
X101385238Y-120451619D01*
X101432857Y-120546857D01*
X101432857Y-120689714D01*
X101385238Y-120784952D01*
X101337619Y-120832571D01*
X101242380Y-120880190D01*
X100861428Y-120880190D01*
G04 #@! TO.C,Q1*
X93847619Y-143525238D02*
X93800000Y-143620476D01*
X93704761Y-143715714D01*
X93561904Y-143858571D01*
X93514285Y-143953809D01*
X93514285Y-144049047D01*
X93752380Y-144001428D02*
X93704761Y-144096666D01*
X93609523Y-144191904D01*
X93419047Y-144239523D01*
X93085714Y-144239523D01*
X92895238Y-144191904D01*
X92800000Y-144096666D01*
X92752380Y-144001428D01*
X92752380Y-143810952D01*
X92800000Y-143715714D01*
X92895238Y-143620476D01*
X93085714Y-143572857D01*
X93419047Y-143572857D01*
X93609523Y-143620476D01*
X93704761Y-143715714D01*
X93752380Y-143810952D01*
X93752380Y-144001428D01*
X93752380Y-142620476D02*
X93752380Y-143191904D01*
X93752380Y-142906190D02*
X92752380Y-142906190D01*
X92895238Y-143001428D01*
X92990476Y-143096666D01*
X93038095Y-143191904D01*
X100078571Y-147065714D02*
X100078571Y-147399047D01*
X100602380Y-147399047D02*
X99602380Y-147399047D01*
X99602380Y-146922857D01*
X100697619Y-145875238D02*
X100650000Y-145970476D01*
X100554761Y-146065714D01*
X100411904Y-146208571D01*
X100364285Y-146303809D01*
X100364285Y-146399047D01*
X100602380Y-146351428D02*
X100554761Y-146446666D01*
X100459523Y-146541904D01*
X100269047Y-146589523D01*
X99935714Y-146589523D01*
X99745238Y-146541904D01*
X99650000Y-146446666D01*
X99602380Y-146351428D01*
X99602380Y-146160952D01*
X99650000Y-146065714D01*
X99745238Y-145970476D01*
X99935714Y-145922857D01*
X100269047Y-145922857D01*
X100459523Y-145970476D01*
X100554761Y-146065714D01*
X100602380Y-146160952D01*
X100602380Y-146351428D01*
X100602380Y-145494285D02*
X99602380Y-145494285D01*
X99602380Y-145113333D01*
X99650000Y-145018095D01*
X99697619Y-144970476D01*
X99792857Y-144922857D01*
X99935714Y-144922857D01*
X100030952Y-144970476D01*
X100078571Y-145018095D01*
X100126190Y-145113333D01*
X100126190Y-145494285D01*
X99697619Y-144541904D02*
X99650000Y-144494285D01*
X99602380Y-144399047D01*
X99602380Y-144160952D01*
X99650000Y-144065714D01*
X99697619Y-144018095D01*
X99792857Y-143970476D01*
X99888095Y-143970476D01*
X100030952Y-144018095D01*
X100602380Y-144589523D01*
X100602380Y-143970476D01*
X99602380Y-143637142D02*
X99602380Y-142970476D01*
X100602380Y-143399047D01*
X100602380Y-142589523D02*
X99602380Y-142589523D01*
X99602380Y-142208571D01*
X99650000Y-142113333D01*
X99697619Y-142065714D01*
X99792857Y-142018095D01*
X99935714Y-142018095D01*
X100030952Y-142065714D01*
X100078571Y-142113333D01*
X100126190Y-142208571D01*
X100126190Y-142589523D01*
X99602380Y-141399047D02*
X99602380Y-141303809D01*
X99650000Y-141208571D01*
X99697619Y-141160952D01*
X99792857Y-141113333D01*
X99983333Y-141065714D01*
X100221428Y-141065714D01*
X100411904Y-141113333D01*
X100507142Y-141160952D01*
X100554761Y-141208571D01*
X100602380Y-141303809D01*
X100602380Y-141399047D01*
X100554761Y-141494285D01*
X100507142Y-141541904D01*
X100411904Y-141589523D01*
X100221428Y-141637142D01*
X99983333Y-141637142D01*
X99792857Y-141589523D01*
X99697619Y-141541904D01*
X99650000Y-141494285D01*
X99602380Y-141399047D01*
X99602380Y-140208571D02*
X99602380Y-140399047D01*
X99650000Y-140494285D01*
X99697619Y-140541904D01*
X99840476Y-140637142D01*
X100030952Y-140684761D01*
X100411904Y-140684761D01*
X100507142Y-140637142D01*
X100554761Y-140589523D01*
X100602380Y-140494285D01*
X100602380Y-140303809D01*
X100554761Y-140208571D01*
X100507142Y-140160952D01*
X100411904Y-140113333D01*
X100173809Y-140113333D01*
X100078571Y-140160952D01*
X100030952Y-140208571D01*
X99983333Y-140303809D01*
X99983333Y-140494285D01*
X100030952Y-140589523D01*
X100078571Y-140637142D01*
X100173809Y-140684761D01*
G04 #@! TO.C,Q2*
X114597619Y-143605238D02*
X114550000Y-143700476D01*
X114454761Y-143795714D01*
X114311904Y-143938571D01*
X114264285Y-144033809D01*
X114264285Y-144129047D01*
X114502380Y-144081428D02*
X114454761Y-144176666D01*
X114359523Y-144271904D01*
X114169047Y-144319523D01*
X113835714Y-144319523D01*
X113645238Y-144271904D01*
X113550000Y-144176666D01*
X113502380Y-144081428D01*
X113502380Y-143890952D01*
X113550000Y-143795714D01*
X113645238Y-143700476D01*
X113835714Y-143652857D01*
X114169047Y-143652857D01*
X114359523Y-143700476D01*
X114454761Y-143795714D01*
X114502380Y-143890952D01*
X114502380Y-144081428D01*
X113597619Y-143271904D02*
X113550000Y-143224285D01*
X113502380Y-143129047D01*
X113502380Y-142890952D01*
X113550000Y-142795714D01*
X113597619Y-142748095D01*
X113692857Y-142700476D01*
X113788095Y-142700476D01*
X113930952Y-142748095D01*
X114502380Y-143319523D01*
X114502380Y-142700476D01*
X119447619Y-147248095D02*
X119400000Y-147200476D01*
X119352380Y-147105238D01*
X119352380Y-146867142D01*
X119400000Y-146771904D01*
X119447619Y-146724285D01*
X119542857Y-146676666D01*
X119638095Y-146676666D01*
X119780952Y-146724285D01*
X120352380Y-147295714D01*
X120352380Y-146676666D01*
X120352380Y-146248095D02*
X119352380Y-146248095D01*
X120352380Y-145676666D01*
X119352380Y-145676666D01*
X119352380Y-145295714D02*
X119352380Y-144676666D01*
X119733333Y-145010000D01*
X119733333Y-144867142D01*
X119780952Y-144771904D01*
X119828571Y-144724285D01*
X119923809Y-144676666D01*
X120161904Y-144676666D01*
X120257142Y-144724285D01*
X120304761Y-144771904D01*
X120352380Y-144867142D01*
X120352380Y-145152857D01*
X120304761Y-145248095D01*
X120257142Y-145295714D01*
X120352380Y-144200476D02*
X120352380Y-144010000D01*
X120304761Y-143914761D01*
X120257142Y-143867142D01*
X120114285Y-143771904D01*
X119923809Y-143724285D01*
X119542857Y-143724285D01*
X119447619Y-143771904D01*
X119400000Y-143819523D01*
X119352380Y-143914761D01*
X119352380Y-144105238D01*
X119400000Y-144200476D01*
X119447619Y-144248095D01*
X119542857Y-144295714D01*
X119780952Y-144295714D01*
X119876190Y-144248095D01*
X119923809Y-144200476D01*
X119971428Y-144105238D01*
X119971428Y-143914761D01*
X119923809Y-143819523D01*
X119876190Y-143771904D01*
X119780952Y-143724285D01*
X119352380Y-143105238D02*
X119352380Y-143010000D01*
X119400000Y-142914761D01*
X119447619Y-142867142D01*
X119542857Y-142819523D01*
X119733333Y-142771904D01*
X119971428Y-142771904D01*
X120161904Y-142819523D01*
X120257142Y-142867142D01*
X120304761Y-142914761D01*
X120352380Y-143010000D01*
X120352380Y-143105238D01*
X120304761Y-143200476D01*
X120257142Y-143248095D01*
X120161904Y-143295714D01*
X119971428Y-143343333D01*
X119733333Y-143343333D01*
X119542857Y-143295714D01*
X119447619Y-143248095D01*
X119400000Y-143200476D01*
X119352380Y-143105238D01*
X119685714Y-141914761D02*
X120352380Y-141914761D01*
X119304761Y-142152857D02*
X120019047Y-142390952D01*
X120019047Y-141771904D01*
X119828571Y-141057619D02*
X119876190Y-140914761D01*
X119923809Y-140867142D01*
X120019047Y-140819523D01*
X120161904Y-140819523D01*
X120257142Y-140867142D01*
X120304761Y-140914761D01*
X120352380Y-141010000D01*
X120352380Y-141390952D01*
X119352380Y-141390952D01*
X119352380Y-141057619D01*
X119400000Y-140962380D01*
X119447619Y-140914761D01*
X119542857Y-140867142D01*
X119638095Y-140867142D01*
X119733333Y-140914761D01*
X119780952Y-140962380D01*
X119828571Y-141057619D01*
X119828571Y-141390952D01*
X119352380Y-140390952D02*
X120161904Y-140390952D01*
X120257142Y-140343333D01*
X120304761Y-140295714D01*
X120352380Y-140200476D01*
X120352380Y-140010000D01*
X120304761Y-139914761D01*
X120257142Y-139867142D01*
X120161904Y-139819523D01*
X119352380Y-139819523D01*
G04 #@! TO.C,Q3*
X93847619Y-156225238D02*
X93800000Y-156320476D01*
X93704761Y-156415714D01*
X93561904Y-156558571D01*
X93514285Y-156653809D01*
X93514285Y-156749047D01*
X93752380Y-156701428D02*
X93704761Y-156796666D01*
X93609523Y-156891904D01*
X93419047Y-156939523D01*
X93085714Y-156939523D01*
X92895238Y-156891904D01*
X92800000Y-156796666D01*
X92752380Y-156701428D01*
X92752380Y-156510952D01*
X92800000Y-156415714D01*
X92895238Y-156320476D01*
X93085714Y-156272857D01*
X93419047Y-156272857D01*
X93609523Y-156320476D01*
X93704761Y-156415714D01*
X93752380Y-156510952D01*
X93752380Y-156701428D01*
X92752380Y-155939523D02*
X92752380Y-155320476D01*
X93133333Y-155653809D01*
X93133333Y-155510952D01*
X93180952Y-155415714D01*
X93228571Y-155368095D01*
X93323809Y-155320476D01*
X93561904Y-155320476D01*
X93657142Y-155368095D01*
X93704761Y-155415714D01*
X93752380Y-155510952D01*
X93752380Y-155796666D01*
X93704761Y-155891904D01*
X93657142Y-155939523D01*
X100078571Y-159765714D02*
X100078571Y-160099047D01*
X100602380Y-160099047D02*
X99602380Y-160099047D01*
X99602380Y-159622857D01*
X100697619Y-158575238D02*
X100650000Y-158670476D01*
X100554761Y-158765714D01*
X100411904Y-158908571D01*
X100364285Y-159003809D01*
X100364285Y-159099047D01*
X100602380Y-159051428D02*
X100554761Y-159146666D01*
X100459523Y-159241904D01*
X100269047Y-159289523D01*
X99935714Y-159289523D01*
X99745238Y-159241904D01*
X99650000Y-159146666D01*
X99602380Y-159051428D01*
X99602380Y-158860952D01*
X99650000Y-158765714D01*
X99745238Y-158670476D01*
X99935714Y-158622857D01*
X100269047Y-158622857D01*
X100459523Y-158670476D01*
X100554761Y-158765714D01*
X100602380Y-158860952D01*
X100602380Y-159051428D01*
X100602380Y-158194285D02*
X99602380Y-158194285D01*
X99602380Y-157813333D01*
X99650000Y-157718095D01*
X99697619Y-157670476D01*
X99792857Y-157622857D01*
X99935714Y-157622857D01*
X100030952Y-157670476D01*
X100078571Y-157718095D01*
X100126190Y-157813333D01*
X100126190Y-158194285D01*
X99697619Y-157241904D02*
X99650000Y-157194285D01*
X99602380Y-157099047D01*
X99602380Y-156860952D01*
X99650000Y-156765714D01*
X99697619Y-156718095D01*
X99792857Y-156670476D01*
X99888095Y-156670476D01*
X100030952Y-156718095D01*
X100602380Y-157289523D01*
X100602380Y-156670476D01*
X99602380Y-156337142D02*
X99602380Y-155670476D01*
X100602380Y-156099047D01*
X100602380Y-155289523D02*
X99602380Y-155289523D01*
X99602380Y-154908571D01*
X99650000Y-154813333D01*
X99697619Y-154765714D01*
X99792857Y-154718095D01*
X99935714Y-154718095D01*
X100030952Y-154765714D01*
X100078571Y-154813333D01*
X100126190Y-154908571D01*
X100126190Y-155289523D01*
X99602380Y-154099047D02*
X99602380Y-154003809D01*
X99650000Y-153908571D01*
X99697619Y-153860952D01*
X99792857Y-153813333D01*
X99983333Y-153765714D01*
X100221428Y-153765714D01*
X100411904Y-153813333D01*
X100507142Y-153860952D01*
X100554761Y-153908571D01*
X100602380Y-154003809D01*
X100602380Y-154099047D01*
X100554761Y-154194285D01*
X100507142Y-154241904D01*
X100411904Y-154289523D01*
X100221428Y-154337142D01*
X99983333Y-154337142D01*
X99792857Y-154289523D01*
X99697619Y-154241904D01*
X99650000Y-154194285D01*
X99602380Y-154099047D01*
X99602380Y-152908571D02*
X99602380Y-153099047D01*
X99650000Y-153194285D01*
X99697619Y-153241904D01*
X99840476Y-153337142D01*
X100030952Y-153384761D01*
X100411904Y-153384761D01*
X100507142Y-153337142D01*
X100554761Y-153289523D01*
X100602380Y-153194285D01*
X100602380Y-153003809D01*
X100554761Y-152908571D01*
X100507142Y-152860952D01*
X100411904Y-152813333D01*
X100173809Y-152813333D01*
X100078571Y-152860952D01*
X100030952Y-152908571D01*
X99983333Y-153003809D01*
X99983333Y-153194285D01*
X100030952Y-153289523D01*
X100078571Y-153337142D01*
X100173809Y-153384761D01*
G04 #@! TO.C,Q4*
X114597619Y-155035238D02*
X114550000Y-155130476D01*
X114454761Y-155225714D01*
X114311904Y-155368571D01*
X114264285Y-155463809D01*
X114264285Y-155559047D01*
X114502380Y-155511428D02*
X114454761Y-155606666D01*
X114359523Y-155701904D01*
X114169047Y-155749523D01*
X113835714Y-155749523D01*
X113645238Y-155701904D01*
X113550000Y-155606666D01*
X113502380Y-155511428D01*
X113502380Y-155320952D01*
X113550000Y-155225714D01*
X113645238Y-155130476D01*
X113835714Y-155082857D01*
X114169047Y-155082857D01*
X114359523Y-155130476D01*
X114454761Y-155225714D01*
X114502380Y-155320952D01*
X114502380Y-155511428D01*
X113835714Y-154225714D02*
X114502380Y-154225714D01*
X113454761Y-154463809D02*
X114169047Y-154701904D01*
X114169047Y-154082857D01*
X119447619Y-158678095D02*
X119400000Y-158630476D01*
X119352380Y-158535238D01*
X119352380Y-158297142D01*
X119400000Y-158201904D01*
X119447619Y-158154285D01*
X119542857Y-158106666D01*
X119638095Y-158106666D01*
X119780952Y-158154285D01*
X120352380Y-158725714D01*
X120352380Y-158106666D01*
X120352380Y-157678095D02*
X119352380Y-157678095D01*
X120352380Y-157106666D01*
X119352380Y-157106666D01*
X119352380Y-156725714D02*
X119352380Y-156106666D01*
X119733333Y-156440000D01*
X119733333Y-156297142D01*
X119780952Y-156201904D01*
X119828571Y-156154285D01*
X119923809Y-156106666D01*
X120161904Y-156106666D01*
X120257142Y-156154285D01*
X120304761Y-156201904D01*
X120352380Y-156297142D01*
X120352380Y-156582857D01*
X120304761Y-156678095D01*
X120257142Y-156725714D01*
X120352380Y-155630476D02*
X120352380Y-155440000D01*
X120304761Y-155344761D01*
X120257142Y-155297142D01*
X120114285Y-155201904D01*
X119923809Y-155154285D01*
X119542857Y-155154285D01*
X119447619Y-155201904D01*
X119400000Y-155249523D01*
X119352380Y-155344761D01*
X119352380Y-155535238D01*
X119400000Y-155630476D01*
X119447619Y-155678095D01*
X119542857Y-155725714D01*
X119780952Y-155725714D01*
X119876190Y-155678095D01*
X119923809Y-155630476D01*
X119971428Y-155535238D01*
X119971428Y-155344761D01*
X119923809Y-155249523D01*
X119876190Y-155201904D01*
X119780952Y-155154285D01*
X119352380Y-154535238D02*
X119352380Y-154440000D01*
X119400000Y-154344761D01*
X119447619Y-154297142D01*
X119542857Y-154249523D01*
X119733333Y-154201904D01*
X119971428Y-154201904D01*
X120161904Y-154249523D01*
X120257142Y-154297142D01*
X120304761Y-154344761D01*
X120352380Y-154440000D01*
X120352380Y-154535238D01*
X120304761Y-154630476D01*
X120257142Y-154678095D01*
X120161904Y-154725714D01*
X119971428Y-154773333D01*
X119733333Y-154773333D01*
X119542857Y-154725714D01*
X119447619Y-154678095D01*
X119400000Y-154630476D01*
X119352380Y-154535238D01*
X119685714Y-153344761D02*
X120352380Y-153344761D01*
X119304761Y-153582857D02*
X120019047Y-153820952D01*
X120019047Y-153201904D01*
X119828571Y-152487619D02*
X119876190Y-152344761D01*
X119923809Y-152297142D01*
X120019047Y-152249523D01*
X120161904Y-152249523D01*
X120257142Y-152297142D01*
X120304761Y-152344761D01*
X120352380Y-152440000D01*
X120352380Y-152820952D01*
X119352380Y-152820952D01*
X119352380Y-152487619D01*
X119400000Y-152392380D01*
X119447619Y-152344761D01*
X119542857Y-152297142D01*
X119638095Y-152297142D01*
X119733333Y-152344761D01*
X119780952Y-152392380D01*
X119828571Y-152487619D01*
X119828571Y-152820952D01*
X119352380Y-151820952D02*
X120161904Y-151820952D01*
X120257142Y-151773333D01*
X120304761Y-151725714D01*
X120352380Y-151630476D01*
X120352380Y-151440000D01*
X120304761Y-151344761D01*
X120257142Y-151297142D01*
X120161904Y-151249523D01*
X119352380Y-151249523D01*
G04 #@! TO.C,R1*
X107073333Y-148422380D02*
X106740000Y-147946190D01*
X106501904Y-148422380D02*
X106501904Y-147422380D01*
X106882857Y-147422380D01*
X106978095Y-147470000D01*
X107025714Y-147517619D01*
X107073333Y-147612857D01*
X107073333Y-147755714D01*
X107025714Y-147850952D01*
X106978095Y-147898571D01*
X106882857Y-147946190D01*
X106501904Y-147946190D01*
X108025714Y-148422380D02*
X107454285Y-148422380D01*
X107740000Y-148422380D02*
X107740000Y-147422380D01*
X107644761Y-147565238D01*
X107549523Y-147660476D01*
X107454285Y-147708095D01*
X106073333Y-146502380D02*
X105501904Y-146502380D01*
X105787619Y-146502380D02*
X105787619Y-145502380D01*
X105692380Y-145645238D01*
X105597142Y-145740476D01*
X105501904Y-145788095D01*
X106692380Y-145502380D02*
X106787619Y-145502380D01*
X106882857Y-145550000D01*
X106930476Y-145597619D01*
X106978095Y-145692857D01*
X107025714Y-145883333D01*
X107025714Y-146121428D01*
X106978095Y-146311904D01*
X106930476Y-146407142D01*
X106882857Y-146454761D01*
X106787619Y-146502380D01*
X106692380Y-146502380D01*
X106597142Y-146454761D01*
X106549523Y-146407142D01*
X106501904Y-146311904D01*
X106454285Y-146121428D01*
X106454285Y-145883333D01*
X106501904Y-145692857D01*
X106549523Y-145597619D01*
X106597142Y-145550000D01*
X106692380Y-145502380D01*
X107644761Y-145502380D02*
X107740000Y-145502380D01*
X107835238Y-145550000D01*
X107882857Y-145597619D01*
X107930476Y-145692857D01*
X107978095Y-145883333D01*
X107978095Y-146121428D01*
X107930476Y-146311904D01*
X107882857Y-146407142D01*
X107835238Y-146454761D01*
X107740000Y-146502380D01*
X107644761Y-146502380D01*
X107549523Y-146454761D01*
X107501904Y-146407142D01*
X107454285Y-146311904D01*
X107406666Y-146121428D01*
X107406666Y-145883333D01*
X107454285Y-145692857D01*
X107501904Y-145597619D01*
X107549523Y-145550000D01*
X107644761Y-145502380D01*
X108978095Y-146502380D02*
X108644761Y-146026190D01*
X108406666Y-146502380D02*
X108406666Y-145502380D01*
X108787619Y-145502380D01*
X108882857Y-145550000D01*
X108930476Y-145597619D01*
X108978095Y-145692857D01*
X108978095Y-145835714D01*
X108930476Y-145930952D01*
X108882857Y-145978571D01*
X108787619Y-146026190D01*
X108406666Y-146026190D01*
G04 #@! TO.C,R2*
X127393333Y-142042380D02*
X127060000Y-141566190D01*
X126821904Y-142042380D02*
X126821904Y-141042380D01*
X127202857Y-141042380D01*
X127298095Y-141090000D01*
X127345714Y-141137619D01*
X127393333Y-141232857D01*
X127393333Y-141375714D01*
X127345714Y-141470952D01*
X127298095Y-141518571D01*
X127202857Y-141566190D01*
X126821904Y-141566190D01*
X127774285Y-141137619D02*
X127821904Y-141090000D01*
X127917142Y-141042380D01*
X128155238Y-141042380D01*
X128250476Y-141090000D01*
X128298095Y-141137619D01*
X128345714Y-141232857D01*
X128345714Y-141328095D01*
X128298095Y-141470952D01*
X127726666Y-142042380D01*
X128345714Y-142042380D01*
X126869523Y-143962380D02*
X126298095Y-143962380D01*
X126583809Y-143962380D02*
X126583809Y-142962380D01*
X126488571Y-143105238D01*
X126393333Y-143200476D01*
X126298095Y-143248095D01*
X127488571Y-142962380D02*
X127583809Y-142962380D01*
X127679047Y-143010000D01*
X127726666Y-143057619D01*
X127774285Y-143152857D01*
X127821904Y-143343333D01*
X127821904Y-143581428D01*
X127774285Y-143771904D01*
X127726666Y-143867142D01*
X127679047Y-143914761D01*
X127583809Y-143962380D01*
X127488571Y-143962380D01*
X127393333Y-143914761D01*
X127345714Y-143867142D01*
X127298095Y-143771904D01*
X127250476Y-143581428D01*
X127250476Y-143343333D01*
X127298095Y-143152857D01*
X127345714Y-143057619D01*
X127393333Y-143010000D01*
X127488571Y-142962380D01*
X128250476Y-143962380D02*
X128250476Y-142962380D01*
X128821904Y-143962380D02*
X128393333Y-143390952D01*
X128821904Y-142962380D02*
X128250476Y-143533809D01*
G04 #@! TO.C,R3*
X107327333Y-66604380D02*
X106994000Y-66128190D01*
X106755904Y-66604380D02*
X106755904Y-65604380D01*
X107136857Y-65604380D01*
X107232095Y-65652000D01*
X107279714Y-65699619D01*
X107327333Y-65794857D01*
X107327333Y-65937714D01*
X107279714Y-66032952D01*
X107232095Y-66080571D01*
X107136857Y-66128190D01*
X106755904Y-66128190D01*
X107660666Y-65604380D02*
X108279714Y-65604380D01*
X107946380Y-65985333D01*
X108089238Y-65985333D01*
X108184476Y-66032952D01*
X108232095Y-66080571D01*
X108279714Y-66175809D01*
X108279714Y-66413904D01*
X108232095Y-66509142D01*
X108184476Y-66556761D01*
X108089238Y-66604380D01*
X107803523Y-66604380D01*
X107708285Y-66556761D01*
X107660666Y-66509142D01*
X106803523Y-68524380D02*
X106232095Y-68524380D01*
X106517809Y-68524380D02*
X106517809Y-67524380D01*
X106422571Y-67667238D01*
X106327333Y-67762476D01*
X106232095Y-67810095D01*
X107422571Y-67524380D02*
X107517809Y-67524380D01*
X107613047Y-67572000D01*
X107660666Y-67619619D01*
X107708285Y-67714857D01*
X107755904Y-67905333D01*
X107755904Y-68143428D01*
X107708285Y-68333904D01*
X107660666Y-68429142D01*
X107613047Y-68476761D01*
X107517809Y-68524380D01*
X107422571Y-68524380D01*
X107327333Y-68476761D01*
X107279714Y-68429142D01*
X107232095Y-68333904D01*
X107184476Y-68143428D01*
X107184476Y-67905333D01*
X107232095Y-67714857D01*
X107279714Y-67619619D01*
X107327333Y-67572000D01*
X107422571Y-67524380D01*
X108184476Y-68524380D02*
X108184476Y-67524380D01*
X108755904Y-68524380D02*
X108327333Y-67952952D01*
X108755904Y-67524380D02*
X108184476Y-68095809D01*
G04 #@! TO.C,R4*
X107073333Y-138232380D02*
X106740000Y-137756190D01*
X106501904Y-138232380D02*
X106501904Y-137232380D01*
X106882857Y-137232380D01*
X106978095Y-137280000D01*
X107025714Y-137327619D01*
X107073333Y-137422857D01*
X107073333Y-137565714D01*
X107025714Y-137660952D01*
X106978095Y-137708571D01*
X106882857Y-137756190D01*
X106501904Y-137756190D01*
X107930476Y-137565714D02*
X107930476Y-138232380D01*
X107692380Y-137184761D02*
X107454285Y-137899047D01*
X108073333Y-137899047D01*
X106549523Y-140152380D02*
X105978095Y-140152380D01*
X106263809Y-140152380D02*
X106263809Y-139152380D01*
X106168571Y-139295238D01*
X106073333Y-139390476D01*
X105978095Y-139438095D01*
X107168571Y-139152380D02*
X107263809Y-139152380D01*
X107359047Y-139200000D01*
X107406666Y-139247619D01*
X107454285Y-139342857D01*
X107501904Y-139533333D01*
X107501904Y-139771428D01*
X107454285Y-139961904D01*
X107406666Y-140057142D01*
X107359047Y-140104761D01*
X107263809Y-140152380D01*
X107168571Y-140152380D01*
X107073333Y-140104761D01*
X107025714Y-140057142D01*
X106978095Y-139961904D01*
X106930476Y-139771428D01*
X106930476Y-139533333D01*
X106978095Y-139342857D01*
X107025714Y-139247619D01*
X107073333Y-139200000D01*
X107168571Y-139152380D01*
X107930476Y-140152380D02*
X107930476Y-139152380D01*
X108501904Y-140152380D02*
X108073333Y-139580952D01*
X108501904Y-139152380D02*
X107930476Y-139723809D01*
G04 #@! TO.C,R5*
X107073333Y-161122380D02*
X106740000Y-160646190D01*
X106501904Y-161122380D02*
X106501904Y-160122380D01*
X106882857Y-160122380D01*
X106978095Y-160170000D01*
X107025714Y-160217619D01*
X107073333Y-160312857D01*
X107073333Y-160455714D01*
X107025714Y-160550952D01*
X106978095Y-160598571D01*
X106882857Y-160646190D01*
X106501904Y-160646190D01*
X107978095Y-160122380D02*
X107501904Y-160122380D01*
X107454285Y-160598571D01*
X107501904Y-160550952D01*
X107597142Y-160503333D01*
X107835238Y-160503333D01*
X107930476Y-160550952D01*
X107978095Y-160598571D01*
X108025714Y-160693809D01*
X108025714Y-160931904D01*
X107978095Y-161027142D01*
X107930476Y-161074761D01*
X107835238Y-161122380D01*
X107597142Y-161122380D01*
X107501904Y-161074761D01*
X107454285Y-161027142D01*
X106073333Y-159202380D02*
X105501904Y-159202380D01*
X105787619Y-159202380D02*
X105787619Y-158202380D01*
X105692380Y-158345238D01*
X105597142Y-158440476D01*
X105501904Y-158488095D01*
X106692380Y-158202380D02*
X106787619Y-158202380D01*
X106882857Y-158250000D01*
X106930476Y-158297619D01*
X106978095Y-158392857D01*
X107025714Y-158583333D01*
X107025714Y-158821428D01*
X106978095Y-159011904D01*
X106930476Y-159107142D01*
X106882857Y-159154761D01*
X106787619Y-159202380D01*
X106692380Y-159202380D01*
X106597142Y-159154761D01*
X106549523Y-159107142D01*
X106501904Y-159011904D01*
X106454285Y-158821428D01*
X106454285Y-158583333D01*
X106501904Y-158392857D01*
X106549523Y-158297619D01*
X106597142Y-158250000D01*
X106692380Y-158202380D01*
X107644761Y-158202380D02*
X107740000Y-158202380D01*
X107835238Y-158250000D01*
X107882857Y-158297619D01*
X107930476Y-158392857D01*
X107978095Y-158583333D01*
X107978095Y-158821428D01*
X107930476Y-159011904D01*
X107882857Y-159107142D01*
X107835238Y-159154761D01*
X107740000Y-159202380D01*
X107644761Y-159202380D01*
X107549523Y-159154761D01*
X107501904Y-159107142D01*
X107454285Y-159011904D01*
X107406666Y-158821428D01*
X107406666Y-158583333D01*
X107454285Y-158392857D01*
X107501904Y-158297619D01*
X107549523Y-158250000D01*
X107644761Y-158202380D01*
X108978095Y-159202380D02*
X108644761Y-158726190D01*
X108406666Y-159202380D02*
X108406666Y-158202380D01*
X108787619Y-158202380D01*
X108882857Y-158250000D01*
X108930476Y-158297619D01*
X108978095Y-158392857D01*
X108978095Y-158535714D01*
X108930476Y-158630952D01*
X108882857Y-158678571D01*
X108787619Y-158726190D01*
X108406666Y-158726190D01*
G04 #@! TO.C,R6*
X127393333Y-153472380D02*
X127060000Y-152996190D01*
X126821904Y-153472380D02*
X126821904Y-152472380D01*
X127202857Y-152472380D01*
X127298095Y-152520000D01*
X127345714Y-152567619D01*
X127393333Y-152662857D01*
X127393333Y-152805714D01*
X127345714Y-152900952D01*
X127298095Y-152948571D01*
X127202857Y-152996190D01*
X126821904Y-152996190D01*
X128250476Y-152472380D02*
X128060000Y-152472380D01*
X127964761Y-152520000D01*
X127917142Y-152567619D01*
X127821904Y-152710476D01*
X127774285Y-152900952D01*
X127774285Y-153281904D01*
X127821904Y-153377142D01*
X127869523Y-153424761D01*
X127964761Y-153472380D01*
X128155238Y-153472380D01*
X128250476Y-153424761D01*
X128298095Y-153377142D01*
X128345714Y-153281904D01*
X128345714Y-153043809D01*
X128298095Y-152948571D01*
X128250476Y-152900952D01*
X128155238Y-152853333D01*
X127964761Y-152853333D01*
X127869523Y-152900952D01*
X127821904Y-152948571D01*
X127774285Y-153043809D01*
X126869523Y-155392380D02*
X126298095Y-155392380D01*
X126583809Y-155392380D02*
X126583809Y-154392380D01*
X126488571Y-154535238D01*
X126393333Y-154630476D01*
X126298095Y-154678095D01*
X127488571Y-154392380D02*
X127583809Y-154392380D01*
X127679047Y-154440000D01*
X127726666Y-154487619D01*
X127774285Y-154582857D01*
X127821904Y-154773333D01*
X127821904Y-155011428D01*
X127774285Y-155201904D01*
X127726666Y-155297142D01*
X127679047Y-155344761D01*
X127583809Y-155392380D01*
X127488571Y-155392380D01*
X127393333Y-155344761D01*
X127345714Y-155297142D01*
X127298095Y-155201904D01*
X127250476Y-155011428D01*
X127250476Y-154773333D01*
X127298095Y-154582857D01*
X127345714Y-154487619D01*
X127393333Y-154440000D01*
X127488571Y-154392380D01*
X128250476Y-155392380D02*
X128250476Y-154392380D01*
X128821904Y-155392380D02*
X128393333Y-154820952D01*
X128821904Y-154392380D02*
X128250476Y-154963809D01*
G04 #@! TO.C,R7*
X107073333Y-150932380D02*
X106740000Y-150456190D01*
X106501904Y-150932380D02*
X106501904Y-149932380D01*
X106882857Y-149932380D01*
X106978095Y-149980000D01*
X107025714Y-150027619D01*
X107073333Y-150122857D01*
X107073333Y-150265714D01*
X107025714Y-150360952D01*
X106978095Y-150408571D01*
X106882857Y-150456190D01*
X106501904Y-150456190D01*
X107406666Y-149932380D02*
X108073333Y-149932380D01*
X107644761Y-150932380D01*
X106549523Y-152852380D02*
X105978095Y-152852380D01*
X106263809Y-152852380D02*
X106263809Y-151852380D01*
X106168571Y-151995238D01*
X106073333Y-152090476D01*
X105978095Y-152138095D01*
X107168571Y-151852380D02*
X107263809Y-151852380D01*
X107359047Y-151900000D01*
X107406666Y-151947619D01*
X107454285Y-152042857D01*
X107501904Y-152233333D01*
X107501904Y-152471428D01*
X107454285Y-152661904D01*
X107406666Y-152757142D01*
X107359047Y-152804761D01*
X107263809Y-152852380D01*
X107168571Y-152852380D01*
X107073333Y-152804761D01*
X107025714Y-152757142D01*
X106978095Y-152661904D01*
X106930476Y-152471428D01*
X106930476Y-152233333D01*
X106978095Y-152042857D01*
X107025714Y-151947619D01*
X107073333Y-151900000D01*
X107168571Y-151852380D01*
X107930476Y-152852380D02*
X107930476Y-151852380D01*
X108501904Y-152852380D02*
X108073333Y-152280952D01*
X108501904Y-151852380D02*
X107930476Y-152423809D01*
G04 #@! TO.C,S1*
D17*
X124428950Y-102901667D02*
X124610379Y-102962143D01*
X124912760Y-102962143D01*
X125033712Y-102901667D01*
X125094189Y-102841191D01*
X125154665Y-102720239D01*
X125154665Y-102599286D01*
X125094189Y-102478334D01*
X125033712Y-102417858D01*
X124912760Y-102357381D01*
X124670855Y-102296905D01*
X124549903Y-102236429D01*
X124489427Y-102175953D01*
X124428950Y-102055000D01*
X124428950Y-101934048D01*
X124489427Y-101813096D01*
X124549903Y-101752620D01*
X124670855Y-101692143D01*
X124973236Y-101692143D01*
X125154665Y-101752620D01*
X126364189Y-102962143D02*
X125638474Y-102962143D01*
X126001331Y-102962143D02*
X126001331Y-101692143D01*
X125880379Y-101873572D01*
X125759427Y-101994524D01*
X125638474Y-102055000D01*
G04 #@! TO.C,S2*
X114372950Y-102829667D02*
X114554379Y-102890143D01*
X114856760Y-102890143D01*
X114977712Y-102829667D01*
X115038189Y-102769191D01*
X115098665Y-102648239D01*
X115098665Y-102527286D01*
X115038189Y-102406334D01*
X114977712Y-102345858D01*
X114856760Y-102285381D01*
X114614855Y-102224905D01*
X114493903Y-102164429D01*
X114433427Y-102103953D01*
X114372950Y-101983000D01*
X114372950Y-101862048D01*
X114433427Y-101741096D01*
X114493903Y-101680620D01*
X114614855Y-101620143D01*
X114917236Y-101620143D01*
X115098665Y-101680620D01*
X115582474Y-101741096D02*
X115642950Y-101680620D01*
X115763903Y-101620143D01*
X116066284Y-101620143D01*
X116187236Y-101680620D01*
X116247712Y-101741096D01*
X116308189Y-101862048D01*
X116308189Y-101983000D01*
X116247712Y-102164429D01*
X115521998Y-102890143D01*
X116308189Y-102890143D01*
G04 #@! TO.C,U1*
D15*
X91702380Y-130711904D02*
X92511904Y-130711904D01*
X92607142Y-130664285D01*
X92654761Y-130616666D01*
X92702380Y-130521428D01*
X92702380Y-130330952D01*
X92654761Y-130235714D01*
X92607142Y-130188095D01*
X92511904Y-130140476D01*
X91702380Y-130140476D01*
X92702380Y-129140476D02*
X92702380Y-129711904D01*
X92702380Y-129426190D02*
X91702380Y-129426190D01*
X91845238Y-129521428D01*
X91940476Y-129616666D01*
X91988095Y-129711904D01*
X99472380Y-134545238D02*
X99472380Y-135021428D01*
X98472380Y-135021428D01*
X99472380Y-134211904D02*
X98472380Y-134211904D01*
X99186666Y-133878571D01*
X98472380Y-133545238D01*
X99472380Y-133545238D01*
X98567619Y-133116666D02*
X98520000Y-133069047D01*
X98472380Y-132973809D01*
X98472380Y-132735714D01*
X98520000Y-132640476D01*
X98567619Y-132592857D01*
X98662857Y-132545238D01*
X98758095Y-132545238D01*
X98900952Y-132592857D01*
X99472380Y-133164285D01*
X99472380Y-132545238D01*
X98472380Y-131640476D02*
X98472380Y-132116666D01*
X98948571Y-132164285D01*
X98900952Y-132116666D01*
X98853333Y-132021428D01*
X98853333Y-131783333D01*
X98900952Y-131688095D01*
X98948571Y-131640476D01*
X99043809Y-131592857D01*
X99281904Y-131592857D01*
X99377142Y-131640476D01*
X99424761Y-131688095D01*
X99472380Y-131783333D01*
X99472380Y-132021428D01*
X99424761Y-132116666D01*
X99377142Y-132164285D01*
X98472380Y-131259523D02*
X98472380Y-130592857D01*
X99472380Y-131021428D01*
X98472380Y-129783333D02*
X98472380Y-129973809D01*
X98520000Y-130069047D01*
X98567619Y-130116666D01*
X98710476Y-130211904D01*
X98900952Y-130259523D01*
X99281904Y-130259523D01*
X99377142Y-130211904D01*
X99424761Y-130164285D01*
X99472380Y-130069047D01*
X99472380Y-129878571D01*
X99424761Y-129783333D01*
X99377142Y-129735714D01*
X99281904Y-129688095D01*
X99043809Y-129688095D01*
X98948571Y-129735714D01*
X98900952Y-129783333D01*
X98853333Y-129878571D01*
X98853333Y-130069047D01*
X98900952Y-130164285D01*
X98948571Y-130211904D01*
X99043809Y-130259523D01*
X99472380Y-129259523D02*
X98472380Y-129259523D01*
X98948571Y-129259523D02*
X98948571Y-128688095D01*
X99472380Y-128688095D02*
X98472380Y-128688095D01*
X98472380Y-128354761D02*
X99472380Y-128021428D01*
X98472380Y-127688095D01*
X98472380Y-127497619D02*
X98472380Y-126926190D01*
X99472380Y-127211904D02*
X98472380Y-127211904D01*
X99091428Y-126592857D02*
X99091428Y-125830952D01*
X98472380Y-124878571D02*
X98472380Y-125354761D01*
X98948571Y-125402380D01*
X98900952Y-125354761D01*
X98853333Y-125259523D01*
X98853333Y-125021428D01*
X98900952Y-124926190D01*
X98948571Y-124878571D01*
X99043809Y-124830952D01*
X99281904Y-124830952D01*
X99377142Y-124878571D01*
X99424761Y-124926190D01*
X99472380Y-125021428D01*
X99472380Y-125259523D01*
X99424761Y-125354761D01*
X99377142Y-125402380D01*
G04 #@! TO.C,U2*
X146996380Y-114633904D02*
X147805904Y-114633904D01*
X147901142Y-114586285D01*
X147948761Y-114538666D01*
X147996380Y-114443428D01*
X147996380Y-114252952D01*
X147948761Y-114157714D01*
X147901142Y-114110095D01*
X147805904Y-114062476D01*
X146996380Y-114062476D01*
X147091619Y-113633904D02*
X147044000Y-113586285D01*
X146996380Y-113491047D01*
X146996380Y-113252952D01*
X147044000Y-113157714D01*
X147091619Y-113110095D01*
X147186857Y-113062476D01*
X147282095Y-113062476D01*
X147424952Y-113110095D01*
X147996380Y-113681523D01*
X147996380Y-113062476D01*
X141146380Y-117498190D02*
X141146380Y-117974380D01*
X140146380Y-117974380D01*
X141146380Y-117164857D02*
X140146380Y-117164857D01*
X140860666Y-116831523D01*
X140146380Y-116498190D01*
X141146380Y-116498190D01*
X141146380Y-115498190D02*
X141146380Y-116069619D01*
X141146380Y-115783904D02*
X140146380Y-115783904D01*
X140289238Y-115879142D01*
X140384476Y-115974380D01*
X140432095Y-116069619D01*
X140146380Y-114879142D02*
X140146380Y-114783904D01*
X140194000Y-114688666D01*
X140241619Y-114641047D01*
X140336857Y-114593428D01*
X140527333Y-114545809D01*
X140765428Y-114545809D01*
X140955904Y-114593428D01*
X141051142Y-114641047D01*
X141098761Y-114688666D01*
X141146380Y-114783904D01*
X141146380Y-114879142D01*
X141098761Y-114974380D01*
X141051142Y-115022000D01*
X140955904Y-115069619D01*
X140765428Y-115117238D01*
X140527333Y-115117238D01*
X140336857Y-115069619D01*
X140241619Y-115022000D01*
X140194000Y-114974380D01*
X140146380Y-114879142D01*
X140574952Y-113974380D02*
X140527333Y-114069619D01*
X140479714Y-114117238D01*
X140384476Y-114164857D01*
X140336857Y-114164857D01*
X140241619Y-114117238D01*
X140194000Y-114069619D01*
X140146380Y-113974380D01*
X140146380Y-113783904D01*
X140194000Y-113688666D01*
X140241619Y-113641047D01*
X140336857Y-113593428D01*
X140384476Y-113593428D01*
X140479714Y-113641047D01*
X140527333Y-113688666D01*
X140574952Y-113783904D01*
X140574952Y-113974380D01*
X140622571Y-114069619D01*
X140670190Y-114117238D01*
X140765428Y-114164857D01*
X140955904Y-114164857D01*
X141051142Y-114117238D01*
X141098761Y-114069619D01*
X141146380Y-113974380D01*
X141146380Y-113783904D01*
X141098761Y-113688666D01*
X141051142Y-113641047D01*
X140955904Y-113593428D01*
X140765428Y-113593428D01*
X140670190Y-113641047D01*
X140622571Y-113688666D01*
X140574952Y-113783904D01*
X140146380Y-112688666D02*
X140146380Y-113164857D01*
X140622571Y-113212476D01*
X140574952Y-113164857D01*
X140527333Y-113069619D01*
X140527333Y-112831523D01*
X140574952Y-112736285D01*
X140622571Y-112688666D01*
X140717809Y-112641047D01*
X140955904Y-112641047D01*
X141051142Y-112688666D01*
X141098761Y-112736285D01*
X141146380Y-112831523D01*
X141146380Y-113069619D01*
X141098761Y-113164857D01*
X141051142Y-113212476D01*
X140765428Y-112212476D02*
X140765428Y-111450571D01*
X140146380Y-111069619D02*
X140146380Y-110450571D01*
X140527333Y-110783904D01*
X140527333Y-110641047D01*
X140574952Y-110545809D01*
X140622571Y-110498190D01*
X140717809Y-110450571D01*
X140955904Y-110450571D01*
X141051142Y-110498190D01*
X141098761Y-110545809D01*
X141146380Y-110641047D01*
X141146380Y-110926761D01*
X141098761Y-111022000D01*
X141051142Y-111069619D01*
X141051142Y-110022000D02*
X141098761Y-109974380D01*
X141146380Y-110022000D01*
X141098761Y-110069619D01*
X141051142Y-110022000D01*
X141146380Y-110022000D01*
X140146380Y-109641047D02*
X140146380Y-109022000D01*
X140527333Y-109355333D01*
X140527333Y-109212476D01*
X140574952Y-109117238D01*
X140622571Y-109069619D01*
X140717809Y-109022000D01*
X140955904Y-109022000D01*
X141051142Y-109069619D01*
X141098761Y-109117238D01*
X141146380Y-109212476D01*
X141146380Y-109498190D01*
X141098761Y-109593428D01*
X141051142Y-109641047D01*
G04 #@! TD*
M02*
