G04 #@! TF.GenerationSoftware,KiCad,Pcbnew,(5.0.1-3-g963ef8bb5)*
G04 #@! TF.CreationDate,2019-04-20T19:45:59+01:00*
G04 #@! TF.ProjectId,flipcontrol,666C6970636F6E74726F6C2E6B696361,rev?*
G04 #@! TF.SameCoordinates,Original*
G04 #@! TF.FileFunction,Copper,L2,Bot,Signal*
G04 #@! TF.FilePolarity,Positive*
%FSLAX46Y46*%
G04 Gerber Fmt 4.6, Leading zero omitted, Abs format (unit mm)*
G04 Created by KiCad (PCBNEW (5.0.1-3-g963ef8bb5)) date Saturday, 20 April 2019 at 19:45:59*
%MOMM*%
%LPD*%
G01*
G04 APERTURE LIST*
G04 #@! TA.AperFunction,ComponentPad*
%ADD10R,2.400000X2.400000*%
G04 #@! TD*
G04 #@! TA.AperFunction,ComponentPad*
%ADD11O,2.400000X2.400000*%
G04 #@! TD*
G04 #@! TA.AperFunction,ComponentPad*
%ADD12C,10.600000*%
G04 #@! TD*
G04 #@! TA.AperFunction,ComponentPad*
%ADD13C,2.600000*%
G04 #@! TD*
G04 #@! TA.AperFunction,ComponentPad*
%ADD14R,1.727200X1.727200*%
G04 #@! TD*
G04 #@! TA.AperFunction,ComponentPad*
%ADD15O,1.727200X1.727200*%
G04 #@! TD*
G04 #@! TA.AperFunction,ComponentPad*
%ADD16O,1.700000X1.700000*%
G04 #@! TD*
G04 #@! TA.AperFunction,ComponentPad*
%ADD17R,1.700000X1.700000*%
G04 #@! TD*
G04 #@! TA.AperFunction,ComponentPad*
%ADD18C,1.600000*%
G04 #@! TD*
G04 #@! TA.AperFunction,ComponentPad*
%ADD19R,1.600000X1.600000*%
G04 #@! TD*
G04 #@! TA.AperFunction,ComponentPad*
%ADD20R,3.500120X3.500120*%
G04 #@! TD*
G04 #@! TA.AperFunction,ComponentPad*
%ADD21C,3.500120*%
G04 #@! TD*
G04 #@! TA.AperFunction,ComponentPad*
%ADD22C,2.000000*%
G04 #@! TD*
G04 #@! TA.AperFunction,ComponentPad*
%ADD23R,2.000000X2.000000*%
G04 #@! TD*
G04 #@! TA.AperFunction,ComponentPad*
%ADD24O,1.500000X1.000000*%
G04 #@! TD*
G04 #@! TA.AperFunction,ComponentPad*
%ADD25R,1.500000X1.000000*%
G04 #@! TD*
G04 #@! TA.AperFunction,ComponentPad*
%ADD26C,1.400000*%
G04 #@! TD*
G04 #@! TA.AperFunction,ComponentPad*
%ADD27O,1.400000X1.400000*%
G04 #@! TD*
G04 #@! TA.AperFunction,ComponentPad*
%ADD28C,1.500000*%
G04 #@! TD*
G04 #@! TA.AperFunction,ComponentPad*
%ADD29R,1.800000X1.275000*%
G04 #@! TD*
G04 #@! TA.AperFunction,ComponentPad*
%ADD30O,1.800000X1.275000*%
G04 #@! TD*
G04 #@! TA.AperFunction,ViaPad*
%ADD31C,0.800000*%
G04 #@! TD*
G04 #@! TA.AperFunction,Conductor*
%ADD32C,1.000000*%
G04 #@! TD*
G04 #@! TA.AperFunction,Conductor*
%ADD33C,0.250000*%
G04 #@! TD*
G04 APERTURE END LIST*
D10*
G04 #@! TO.P,D2,1*
G04 #@! TO.N,+24V*
X118670000Y-133350000D03*
D11*
G04 #@! TO.P,D2,2*
G04 #@! TO.N,Net-(D2-Pad2)*
X128830000Y-133350000D03*
G04 #@! TD*
D12*
G04 #@! TO.P,H1,1*
G04 #@! TO.N,GND*
X139752000Y-53594000D03*
G04 #@! TD*
G04 #@! TO.P,H2,1*
G04 #@! TO.N,GND*
X99620000Y-53848000D03*
G04 #@! TD*
G04 #@! TO.P,H4,1*
G04 #@! TO.N,GND*
X139752000Y-168656000D03*
G04 #@! TD*
G04 #@! TO.P,H3,1*
G04 #@! TO.N,GND*
X99620000Y-168402000D03*
G04 #@! TD*
D13*
G04 #@! TO.P,L1,1*
G04 #@! TO.N,Net-(D1-Pad1)*
X121210000Y-121920000D03*
G04 #@! TO.P,L1,2*
G04 #@! TO.N,+5V*
X126210000Y-121920000D03*
G04 #@! TD*
D14*
G04 #@! TO.P,J5,1*
G04 #@! TO.N,GND*
X96266000Y-70358000D03*
D15*
G04 #@! TO.P,J5,2*
G04 #@! TO.N,ENABLE_1*
X98806000Y-70358000D03*
G04 #@! TO.P,J5,3*
G04 #@! TO.N,ENABLE_2*
X96266000Y-72898000D03*
G04 #@! TO.P,J5,4*
G04 #@! TO.N,ENABLE_3*
X98806000Y-72898000D03*
G04 #@! TO.P,J5,5*
G04 #@! TO.N,ENABLE_4*
X96266000Y-75438000D03*
G04 #@! TO.P,J5,6*
G04 #@! TO.N,Net-(J5-Pad6)*
X98806000Y-75438000D03*
G04 #@! TO.P,J5,7*
G04 #@! TO.N,COL_ADVANCE*
X96266000Y-77978000D03*
G04 #@! TO.P,J5,8*
G04 #@! TO.N,RESET*
X98806000Y-77978000D03*
G04 #@! TO.P,J5,9*
G04 #@! TO.N,SET_UNSET*
X96266000Y-80518000D03*
G04 #@! TO.P,J5,10*
G04 #@! TO.N,ROW_ADVANCE*
X98806000Y-80518000D03*
G04 #@! TO.P,J5,11*
G04 #@! TO.N,+5V*
X96266000Y-83058000D03*
G04 #@! TO.P,J5,12*
G04 #@! TO.N,COIL_DRIVE_OUT*
X98806000Y-83058000D03*
G04 #@! TO.P,J5,13*
G04 #@! TO.N,Net-(J5-Pad13)*
X96266000Y-85598000D03*
G04 #@! TO.P,J5,14*
G04 #@! TO.N,+24V*
X98806000Y-85598000D03*
G04 #@! TD*
D16*
G04 #@! TO.P,J2,4*
G04 #@! TO.N,GND*
X142038000Y-88392000D03*
G04 #@! TO.P,J2,3*
G04 #@! TO.N,RX_INT*
X142038000Y-85852000D03*
G04 #@! TO.P,J2,2*
G04 #@! TO.N,TX_INT*
X142038000Y-83312000D03*
D17*
G04 #@! TO.P,J2,1*
G04 #@! TO.N,+3V3*
X142038000Y-80772000D03*
G04 #@! TD*
D18*
G04 #@! TO.P,C5,2*
G04 #@! TO.N,GND*
X144832000Y-135636000D03*
D19*
G04 #@! TO.P,C5,1*
G04 #@! TO.N,+5V*
X142332000Y-135636000D03*
G04 #@! TD*
G04 #@! TO.P,C4,1*
G04 #@! TO.N,+3V3*
X142586000Y-103632000D03*
D18*
G04 #@! TO.P,C4,2*
G04 #@! TO.N,GND*
X145086000Y-103632000D03*
G04 #@! TD*
G04 #@! TO.P,C3,2*
G04 #@! TO.N,GND*
X144832000Y-124968000D03*
D19*
G04 #@! TO.P,C3,1*
G04 #@! TO.N,+5V*
X142332000Y-124968000D03*
G04 #@! TD*
G04 #@! TO.P,C2,1*
G04 #@! TO.N,+24V*
X109820000Y-129540000D03*
D18*
G04 #@! TO.P,C2,2*
G04 #@! TO.N,GND*
X112320000Y-129540000D03*
G04 #@! TD*
G04 #@! TO.P,C1,1*
G04 #@! TO.N,GND*
X115114000Y-69342000D03*
G04 #@! TO.P,C1,2*
G04 #@! TO.N,+3V3*
X115114000Y-66842000D03*
G04 #@! TD*
D10*
G04 #@! TO.P,D1,1*
G04 #@! TO.N,Net-(D1-Pad1)*
X113590000Y-121920000D03*
D11*
G04 #@! TO.P,D1,2*
G04 #@! TO.N,GND*
X113590000Y-111760000D03*
G04 #@! TD*
D17*
G04 #@! TO.P,J1,1*
G04 #@! TO.N,+3V3*
X142038000Y-66548000D03*
D16*
G04 #@! TO.P,J1,2*
G04 #@! TO.N,TX_PROG*
X142038000Y-69088000D03*
G04 #@! TO.P,J1,3*
G04 #@! TO.N,RX_PROG*
X142038000Y-71628000D03*
G04 #@! TO.P,J1,4*
G04 #@! TO.N,GND*
X142038000Y-74168000D03*
G04 #@! TD*
D20*
G04 #@! TO.P,J3,1*
G04 #@! TO.N,Net-(D2-Pad2)*
X142800000Y-151130000D03*
D21*
G04 #@! TO.P,J3,2*
G04 #@! TO.N,GND*
X142800000Y-156210000D03*
G04 #@! TD*
D14*
G04 #@! TO.P,J4,1*
G04 #@! TO.N,LED_OUT*
X96520000Y-109220000D03*
D15*
G04 #@! TO.P,J4,2*
X99060000Y-109220000D03*
G04 #@! TO.P,J4,3*
X96520000Y-111760000D03*
G04 #@! TO.P,J4,4*
G04 #@! TO.N,GND*
X99060000Y-111760000D03*
G04 #@! TO.P,J4,5*
X96520000Y-114300000D03*
G04 #@! TO.P,J4,6*
X99060000Y-114300000D03*
G04 #@! TD*
D22*
G04 #@! TO.P,Q1,3*
G04 #@! TO.N,+24V*
X96520000Y-140970000D03*
G04 #@! TO.P,Q1,2*
G04 #@! TO.N,COIL_DRIVE_OUT*
X96520000Y-143510000D03*
D23*
G04 #@! TO.P,Q1,1*
G04 #@! TO.N,Net-(Q1-Pad1)*
X96520000Y-146050000D03*
G04 #@! TD*
D24*
G04 #@! TO.P,Q2,2*
G04 #@! TO.N,Net-(Q2-Pad2)*
X117400000Y-143510000D03*
G04 #@! TO.P,Q2,3*
G04 #@! TO.N,Net-(Q2-Pad3)*
X117400000Y-142240000D03*
D25*
G04 #@! TO.P,Q2,1*
G04 #@! TO.N,GND*
X117400000Y-144780000D03*
G04 #@! TD*
D23*
G04 #@! TO.P,Q3,1*
G04 #@! TO.N,Net-(Q3-Pad1)*
X96520000Y-158750000D03*
D22*
G04 #@! TO.P,Q3,2*
G04 #@! TO.N,LED_OUT*
X96520000Y-156210000D03*
G04 #@! TO.P,Q3,3*
G04 #@! TO.N,+24V*
X96520000Y-153670000D03*
G04 #@! TD*
D25*
G04 #@! TO.P,Q4,1*
G04 #@! TO.N,GND*
X117400000Y-156210000D03*
D24*
G04 #@! TO.P,Q4,3*
G04 #@! TO.N,Net-(Q4-Pad3)*
X117400000Y-153670000D03*
G04 #@! TO.P,Q4,2*
G04 #@! TO.N,Net-(Q4-Pad2)*
X117400000Y-154940000D03*
G04 #@! TD*
D26*
G04 #@! TO.P,R1,1*
G04 #@! TO.N,Net-(Q2-Pad3)*
X109780000Y-146050000D03*
D27*
G04 #@! TO.P,R1,2*
G04 #@! TO.N,Net-(Q1-Pad1)*
X104700000Y-146050000D03*
G04 #@! TD*
G04 #@! TO.P,R2,2*
G04 #@! TO.N,COIL_DRIVE_IN*
X130100000Y-143510000D03*
D26*
G04 #@! TO.P,R2,1*
G04 #@! TO.N,Net-(Q2-Pad2)*
X125020000Y-143510000D03*
G04 #@! TD*
G04 #@! TO.P,R3,1*
G04 #@! TO.N,+3V3*
X104954000Y-68072000D03*
D27*
G04 #@! TO.P,R3,2*
G04 #@! TO.N,Net-(MOD1-Pad3)*
X110034000Y-68072000D03*
G04 #@! TD*
G04 #@! TO.P,R4,2*
G04 #@! TO.N,Net-(Q2-Pad3)*
X109780000Y-139700000D03*
D26*
G04 #@! TO.P,R4,1*
G04 #@! TO.N,+24V*
X104700000Y-139700000D03*
G04 #@! TD*
D27*
G04 #@! TO.P,R5,2*
G04 #@! TO.N,Net-(Q3-Pad1)*
X104700000Y-158750000D03*
D26*
G04 #@! TO.P,R5,1*
G04 #@! TO.N,Net-(Q4-Pad3)*
X109780000Y-158750000D03*
G04 #@! TD*
G04 #@! TO.P,R6,1*
G04 #@! TO.N,Net-(Q4-Pad2)*
X125020000Y-154940000D03*
D27*
G04 #@! TO.P,R6,2*
G04 #@! TO.N,LED_IN*
X130100000Y-154940000D03*
G04 #@! TD*
D26*
G04 #@! TO.P,R7,1*
G04 #@! TO.N,+24V*
X104700000Y-152400000D03*
D27*
G04 #@! TO.P,R7,2*
G04 #@! TO.N,Net-(Q4-Pad3)*
X109780000Y-152400000D03*
G04 #@! TD*
D28*
G04 #@! TO.P,S1,1*
G04 #@! TO.N,GND*
X128980000Y-100148000D03*
G04 #@! TO.P,S1,2*
G04 #@! TO.N,Net-(S1-Pad2)*
X128980000Y-104648000D03*
G04 #@! TO.P,S1,3*
G04 #@! TO.N,Net-(MOD1-Pad25)*
X122480000Y-100148000D03*
G04 #@! TO.P,S1,4*
G04 #@! TO.N,Net-(S1-Pad4)*
X122480000Y-104648000D03*
G04 #@! TD*
G04 #@! TO.P,S2,4*
G04 #@! TO.N,Net-(MOD1-Pad3)*
X112424000Y-104576000D03*
G04 #@! TO.P,S2,3*
G04 #@! TO.N,Net-(S2-Pad3)*
X112424000Y-100076000D03*
G04 #@! TO.P,S2,2*
G04 #@! TO.N,GND*
X118924000Y-104576000D03*
G04 #@! TO.P,S2,1*
G04 #@! TO.N,Net-(S2-Pad1)*
X118924000Y-100076000D03*
G04 #@! TD*
D29*
G04 #@! TO.P,U1,1*
G04 #@! TO.N,+24V*
X96520000Y-133350000D03*
D30*
G04 #@! TO.P,U1,2*
G04 #@! TO.N,Net-(D1-Pad1)*
X96520000Y-131650000D03*
G04 #@! TO.P,U1,3*
G04 #@! TO.N,GND*
X96520000Y-129950000D03*
G04 #@! TO.P,U1,4*
G04 #@! TO.N,+5V*
X96520000Y-128250000D03*
G04 #@! TO.P,U1,5*
G04 #@! TO.N,GND*
X96520000Y-126550000D03*
G04 #@! TD*
D23*
G04 #@! TO.P,U2,1*
G04 #@! TO.N,GND*
X144324000Y-111252000D03*
D22*
G04 #@! TO.P,U2,2*
G04 #@! TO.N,+3V3*
X144324000Y-113792000D03*
G04 #@! TO.P,U2,3*
G04 #@! TO.N,+5V*
X144324000Y-116332000D03*
G04 #@! TD*
D31*
G04 #@! TO.N,GND*
X120956000Y-83058000D03*
X117146000Y-71628000D03*
X123496000Y-71628000D03*
X123496000Y-64008000D03*
X141276000Y-91948000D03*
X146356000Y-91948000D03*
X124004000Y-84582000D03*
X139498000Y-73914000D03*
X139244000Y-69342000D03*
G04 #@! TO.N,+24V*
X98806000Y-88698000D03*
X104700000Y-128270000D03*
X104700000Y-100330000D03*
X104700000Y-115650000D03*
G04 #@! TO.N,+5V*
X99590000Y-105700000D03*
X121140000Y-118180000D03*
G04 #@! TO.N,RX_INT*
X140514000Y-85852000D03*
X117146000Y-80772000D03*
G04 #@! TO.N,TX_INT*
X140514000Y-83312000D03*
X120448000Y-80518000D03*
G04 #@! TO.N,COL_ADVANCE*
X101824601Y-79166601D03*
X132386000Y-86111002D03*
G04 #@! TO.N,RESET*
X101906000Y-77978000D03*
X130556000Y-86868000D03*
G04 #@! TO.N,SET_UNSET*
X94286000Y-77724000D03*
X133910000Y-81788000D03*
G04 #@! TO.N,ROW_ADVANCE*
X101906000Y-80518000D03*
X133656000Y-83058000D03*
G04 #@! TO.N,COIL_DRIVE_OUT*
X102142940Y-115552940D03*
X102142940Y-142222940D03*
G04 #@! TO.N,LED_IN*
X133910000Y-154940000D03*
X139461001Y-77433001D03*
X139461001Y-79248000D03*
X138228000Y-117348000D03*
G04 #@! TO.N,COIL_DRIVE_IN*
X133910000Y-143510000D03*
X137212000Y-117348000D03*
G04 #@! TD*
D32*
G04 #@! TO.N,GND*
X141276000Y-91948000D02*
X146356000Y-91948000D01*
X117146000Y-71628000D02*
X123496000Y-71628000D01*
X123496000Y-71628000D02*
X123496000Y-64008000D01*
D33*
X122480000Y-84582000D02*
X124004000Y-84582000D01*
X120956000Y-83058000D02*
X122480000Y-84582000D01*
D32*
X139244000Y-73660000D02*
X139498000Y-73914000D01*
X139244000Y-69342000D02*
X139244000Y-73660000D01*
G04 #@! TO.N,+24V*
X104700000Y-128270000D02*
X104700000Y-128270000D01*
X104700000Y-115650000D02*
X104700000Y-128270000D01*
X98806000Y-94436000D02*
X104700000Y-100330000D01*
X98806000Y-88698000D02*
X98806000Y-94436000D01*
G04 #@! TO.N,+5V*
X99590000Y-105700000D02*
X102860000Y-105700000D01*
X102860000Y-105700000D02*
X115340000Y-118180000D01*
X115340000Y-118180000D02*
X121140000Y-118180000D01*
X121140000Y-118180000D02*
X121140000Y-118180000D01*
D33*
G04 #@! TO.N,RX_INT*
X140006000Y-85344000D02*
X124637590Y-85344000D01*
X140514000Y-85852000D02*
X140006000Y-85344000D01*
X124637590Y-85344000D02*
X124200998Y-85344000D01*
X124200998Y-85344000D02*
X121718000Y-85344000D01*
X121718000Y-85344000D02*
X117146000Y-80772000D01*
X117146000Y-80772000D02*
X117146000Y-80772000D01*
G04 #@! TO.N,TX_INT*
X140006000Y-83820000D02*
X123750000Y-83820000D01*
X140514000Y-83312000D02*
X140006000Y-83820000D01*
X123750000Y-83820000D02*
X121210000Y-81280000D01*
X121210000Y-81280000D02*
X121210000Y-81280000D01*
X121210000Y-81280000D02*
X120448000Y-80518000D01*
G04 #@! TO.N,COL_ADVANCE*
X132386000Y-86111002D02*
X132386000Y-86111002D01*
X102563192Y-78428010D02*
X101824601Y-79166601D01*
X109214010Y-78428010D02*
X102563192Y-78428010D01*
X118379001Y-87593001D02*
X109214010Y-78428010D01*
X130904001Y-87593001D02*
X118379001Y-87593001D01*
X132386000Y-86111002D02*
X130904001Y-87593001D01*
G04 #@! TO.N,RESET*
X130556000Y-86868000D02*
X130556000Y-86868000D01*
X101906000Y-77978000D02*
X109526000Y-77978000D01*
X118416000Y-86868000D02*
X130556000Y-86868000D01*
X109526000Y-77978000D02*
X118416000Y-86868000D01*
G04 #@! TO.N,SET_UNSET*
X100080989Y-76626601D02*
X100507590Y-76200000D01*
X95383399Y-76626601D02*
X100080989Y-76626601D01*
X94286000Y-77724000D02*
X95383399Y-76626601D01*
X100507590Y-76200000D02*
X106986000Y-76200000D01*
X106986000Y-76200000D02*
X120702000Y-76200000D01*
X120702000Y-76200000D02*
X121718000Y-75184000D01*
X131302400Y-74987990D02*
X131566010Y-75251600D01*
X121914010Y-74987990D02*
X131302400Y-74987990D01*
X121718000Y-75184000D02*
X121914010Y-74987990D01*
X131566010Y-75251600D02*
X131566010Y-80331600D01*
X131566010Y-80331600D02*
X132453600Y-80331600D01*
X132453600Y-80331600D02*
X133910000Y-81788000D01*
X133910000Y-81788000D02*
X133910000Y-81788000D01*
G04 #@! TO.N,ROW_ADVANCE*
X101906000Y-80518000D02*
X100636000Y-79248000D01*
X100636000Y-79248000D02*
X100636000Y-76708000D01*
X120956000Y-76708000D02*
X122226000Y-75438000D01*
X100636000Y-76708000D02*
X120956000Y-76708000D01*
X122226000Y-75438000D02*
X131116000Y-75438000D01*
X131116000Y-75438000D02*
X131116000Y-80518000D01*
X131116000Y-80518000D02*
X133656000Y-83058000D01*
X133656000Y-83058000D02*
X133656000Y-83058000D01*
D32*
G04 #@! TO.N,COIL_DRIVE_OUT*
X102142940Y-115552940D02*
X102142940Y-142222940D01*
X102142940Y-142222940D02*
X102142940Y-142222940D01*
D33*
G04 #@! TO.N,LED_IN*
X139461001Y-77433001D02*
X139461001Y-77433001D01*
X133910000Y-154940000D02*
X133910000Y-145542000D01*
X133910000Y-145542000D02*
X134672000Y-144780000D01*
X139461001Y-79248000D02*
X139461001Y-77433001D01*
X139461001Y-79248000D02*
X139461001Y-79248000D01*
X138228000Y-129540000D02*
X138228000Y-117348000D01*
X134672000Y-144780000D02*
X134672000Y-133096000D01*
X134672000Y-133096000D02*
X138228000Y-129540000D01*
X138228000Y-117348000D02*
X138228000Y-117348000D01*
G04 #@! TO.N,COIL_DRIVE_IN*
X133910000Y-143510000D02*
X133910000Y-132994998D01*
X133910000Y-132994998D02*
X137212000Y-129692998D01*
X137212000Y-129692998D02*
X137212000Y-117348000D01*
G04 #@! TD*
M02*
