G04 #@! TF.GenerationSoftware,KiCad,Pcbnew,(5.0.1-3-g963ef8bb5)*
G04 #@! TF.CreationDate,2019-04-20T19:45:59+01:00*
G04 #@! TF.ProjectId,flipcontrol,666C6970636F6E74726F6C2E6B696361,rev?*
G04 #@! TF.SameCoordinates,Original*
G04 #@! TF.FileFunction,Soldermask,Top*
G04 #@! TF.FilePolarity,Negative*
%FSLAX46Y46*%
G04 Gerber Fmt 4.6, Leading zero omitted, Abs format (unit mm)*
G04 Created by KiCad (PCBNEW (5.0.1-3-g963ef8bb5)) date Saturday, 20 April 2019 at 19:45:59*
%MOMM*%
%LPD*%
G01*
G04 APERTURE LIST*
%ADD10C,0.100000*%
G04 APERTURE END LIST*
D10*
G36*
X140968228Y-163442091D02*
X141312829Y-163510636D01*
X142286649Y-163914005D01*
X142782926Y-164245607D01*
X143163067Y-164499609D01*
X143908391Y-165244933D01*
X143908393Y-165244936D01*
X144493995Y-166121351D01*
X144792154Y-166841172D01*
X144897364Y-167095172D01*
X145052477Y-167874973D01*
X145103000Y-168128973D01*
X145103000Y-169183027D01*
X144897364Y-170216829D01*
X144493995Y-171190649D01*
X144078110Y-171813064D01*
X143908391Y-172067067D01*
X143163067Y-172812391D01*
X143163064Y-172812393D01*
X142286649Y-173397995D01*
X141312829Y-173801364D01*
X140968228Y-173869909D01*
X140279029Y-174007000D01*
X139224971Y-174007000D01*
X138535772Y-173869909D01*
X138191171Y-173801364D01*
X137217351Y-173397995D01*
X136340936Y-172812393D01*
X136340933Y-172812391D01*
X135595609Y-172067067D01*
X135425890Y-171813064D01*
X135010005Y-171190649D01*
X134606636Y-170216829D01*
X134401000Y-169183027D01*
X134401000Y-168128973D01*
X134451524Y-167874973D01*
X134606636Y-167095172D01*
X134711846Y-166841172D01*
X135010005Y-166121351D01*
X135595607Y-165244936D01*
X135595609Y-165244933D01*
X136340933Y-164499609D01*
X136721074Y-164245607D01*
X137217351Y-163914005D01*
X138191171Y-163510636D01*
X138535772Y-163442091D01*
X139224971Y-163305000D01*
X140279029Y-163305000D01*
X140968228Y-163442091D01*
X140968228Y-163442091D01*
G37*
G36*
X100836228Y-163188091D02*
X101180829Y-163256636D01*
X102154649Y-163660005D01*
X103025157Y-164241660D01*
X103031067Y-164245609D01*
X103776391Y-164990933D01*
X103776393Y-164990936D01*
X104361995Y-165867351D01*
X104765364Y-166841171D01*
X104765364Y-166841172D01*
X104971000Y-167874971D01*
X104971000Y-168929029D01*
X104920476Y-169183029D01*
X104765364Y-169962829D01*
X104361995Y-170936649D01*
X103780340Y-171807157D01*
X103776391Y-171813067D01*
X103031067Y-172558391D01*
X103031064Y-172558393D01*
X102154649Y-173143995D01*
X101180829Y-173547364D01*
X100836228Y-173615909D01*
X100147029Y-173753000D01*
X99092971Y-173753000D01*
X98403772Y-173615909D01*
X98059171Y-173547364D01*
X97085351Y-173143995D01*
X96208936Y-172558393D01*
X96208933Y-172558391D01*
X95463609Y-171813067D01*
X95459660Y-171807157D01*
X94878005Y-170936649D01*
X94474636Y-169962829D01*
X94319524Y-169183029D01*
X94269000Y-168929029D01*
X94269000Y-167874971D01*
X94474636Y-166841172D01*
X94474636Y-166841171D01*
X94878005Y-165867351D01*
X95463607Y-164990936D01*
X95463609Y-164990933D01*
X96208933Y-164245609D01*
X96214843Y-164241660D01*
X97085351Y-163660005D01*
X98059171Y-163256636D01*
X98403772Y-163188091D01*
X99092971Y-163051000D01*
X100147029Y-163051000D01*
X100836228Y-163188091D01*
X100836228Y-163188091D01*
G37*
G36*
X97571000Y-159801000D02*
X95469000Y-159801000D01*
X95469000Y-157699000D01*
X97571000Y-157699000D01*
X97571000Y-159801000D01*
X97571000Y-159801000D01*
G37*
G36*
X109908600Y-158009867D02*
X109999059Y-158027860D01*
X110135732Y-158084472D01*
X110192715Y-158122547D01*
X110258738Y-158166662D01*
X110363338Y-158271262D01*
X110363340Y-158271265D01*
X110445528Y-158394268D01*
X110502140Y-158530941D01*
X110531000Y-158676033D01*
X110531000Y-158823967D01*
X110502140Y-158969059D01*
X110445528Y-159105732D01*
X110364446Y-159227079D01*
X110363338Y-159228738D01*
X110258738Y-159333338D01*
X110258735Y-159333340D01*
X110135732Y-159415528D01*
X109999059Y-159472140D01*
X109912004Y-159489456D01*
X109853969Y-159501000D01*
X109706031Y-159501000D01*
X109647996Y-159489456D01*
X109560941Y-159472140D01*
X109424268Y-159415528D01*
X109301265Y-159333340D01*
X109301262Y-159333338D01*
X109196662Y-159228738D01*
X109195554Y-159227079D01*
X109114472Y-159105732D01*
X109057860Y-158969059D01*
X109029000Y-158823967D01*
X109029000Y-158676033D01*
X109057860Y-158530941D01*
X109114472Y-158394268D01*
X109196660Y-158271265D01*
X109196662Y-158271262D01*
X109301262Y-158166662D01*
X109367285Y-158122547D01*
X109424268Y-158084472D01*
X109560941Y-158027860D01*
X109651400Y-158009867D01*
X109706031Y-157999000D01*
X109853969Y-157999000D01*
X109908600Y-158009867D01*
X109908600Y-158009867D01*
G37*
G36*
X104773665Y-158002622D02*
X104847222Y-158009867D01*
X104988786Y-158052810D01*
X105119252Y-158122546D01*
X105233606Y-158216394D01*
X105327454Y-158330748D01*
X105397190Y-158461214D01*
X105440133Y-158602778D01*
X105454633Y-158750000D01*
X105440133Y-158897222D01*
X105397190Y-159038786D01*
X105327454Y-159169252D01*
X105233606Y-159283606D01*
X105119252Y-159377454D01*
X104988786Y-159447190D01*
X104847222Y-159490133D01*
X104773665Y-159497378D01*
X104736888Y-159501000D01*
X104663112Y-159501000D01*
X104626335Y-159497378D01*
X104552778Y-159490133D01*
X104411214Y-159447190D01*
X104280748Y-159377454D01*
X104166394Y-159283606D01*
X104072546Y-159169252D01*
X104002810Y-159038786D01*
X103959867Y-158897222D01*
X103945367Y-158750000D01*
X103959867Y-158602778D01*
X104002810Y-158461214D01*
X104072546Y-158330748D01*
X104166394Y-158216394D01*
X104280748Y-158122546D01*
X104411214Y-158052810D01*
X104552778Y-158009867D01*
X104626335Y-158002622D01*
X104663112Y-157999000D01*
X104736888Y-157999000D01*
X104773665Y-158002622D01*
X104773665Y-158002622D01*
G37*
G36*
X143009062Y-154415240D02*
X143325350Y-154478153D01*
X143653122Y-154613921D01*
X143948109Y-154811025D01*
X144198975Y-155061891D01*
X144396079Y-155356878D01*
X144531847Y-155684650D01*
X144601060Y-156032611D01*
X144601060Y-156387389D01*
X144531847Y-156735350D01*
X144396079Y-157063122D01*
X144198975Y-157358109D01*
X143948109Y-157608975D01*
X143653122Y-157806079D01*
X143325350Y-157941847D01*
X143038019Y-157999000D01*
X142977390Y-158011060D01*
X142622610Y-158011060D01*
X142561981Y-157999000D01*
X142274650Y-157941847D01*
X141946878Y-157806079D01*
X141651891Y-157608975D01*
X141401025Y-157358109D01*
X141203921Y-157063122D01*
X141068153Y-156735350D01*
X140998940Y-156387389D01*
X140998940Y-156032611D01*
X141068153Y-155684650D01*
X141203921Y-155356878D01*
X141401025Y-155061891D01*
X141651891Y-154811025D01*
X141946878Y-154613921D01*
X142274650Y-154478153D01*
X142590938Y-154415240D01*
X142622610Y-154408940D01*
X142977390Y-154408940D01*
X143009062Y-154415240D01*
X143009062Y-154415240D01*
G37*
G36*
X96826565Y-155199389D02*
X97017834Y-155278615D01*
X97189976Y-155393637D01*
X97336363Y-155540024D01*
X97451385Y-155712166D01*
X97530611Y-155903435D01*
X97571000Y-156106484D01*
X97571000Y-156313516D01*
X97530611Y-156516565D01*
X97451385Y-156707834D01*
X97336363Y-156879976D01*
X97189976Y-157026363D01*
X97017834Y-157141385D01*
X96826565Y-157220611D01*
X96623516Y-157261000D01*
X96416484Y-157261000D01*
X96213435Y-157220611D01*
X96022166Y-157141385D01*
X95850024Y-157026363D01*
X95703637Y-156879976D01*
X95588615Y-156707834D01*
X95509389Y-156516565D01*
X95469000Y-156313516D01*
X95469000Y-156106484D01*
X95509389Y-155903435D01*
X95588615Y-155712166D01*
X95703637Y-155540024D01*
X95850024Y-155393637D01*
X96022166Y-155278615D01*
X96213435Y-155199389D01*
X96416484Y-155159000D01*
X96623516Y-155159000D01*
X96826565Y-155199389D01*
X96826565Y-155199389D01*
G37*
G36*
X117758015Y-153126973D02*
X117861879Y-153158479D01*
X117957600Y-153209644D01*
X118041501Y-153278499D01*
X118110356Y-153362400D01*
X118161521Y-153458121D01*
X118193027Y-153561985D01*
X118203666Y-153670000D01*
X118193027Y-153778015D01*
X118161521Y-153881879D01*
X118110356Y-153977600D01*
X118041501Y-154061501D01*
X117957600Y-154130356D01*
X117861879Y-154181521D01*
X117849142Y-154185385D01*
X117826507Y-154194760D01*
X117806133Y-154208374D01*
X117788806Y-154225701D01*
X117775192Y-154246076D01*
X117765814Y-154268715D01*
X117761034Y-154292748D01*
X117761034Y-154317252D01*
X117765815Y-154341286D01*
X117775192Y-154363925D01*
X117788806Y-154384299D01*
X117806133Y-154401626D01*
X117826508Y-154415240D01*
X117849142Y-154424615D01*
X117861879Y-154428479D01*
X117957600Y-154479644D01*
X118041501Y-154548499D01*
X118110356Y-154632400D01*
X118161521Y-154728121D01*
X118193027Y-154831985D01*
X118203666Y-154940000D01*
X118193027Y-155048015D01*
X118161521Y-155151879D01*
X118110356Y-155247600D01*
X118041501Y-155331501D01*
X117957600Y-155400356D01*
X117913805Y-155423766D01*
X117893439Y-155437374D01*
X117876111Y-155454701D01*
X117862498Y-155475076D01*
X117853120Y-155497715D01*
X117848340Y-155521748D01*
X117848340Y-155546252D01*
X117853121Y-155570286D01*
X117862498Y-155592925D01*
X117876112Y-155613299D01*
X117893439Y-155630627D01*
X117913814Y-155644240D01*
X117936453Y-155653618D01*
X117972738Y-155659000D01*
X118201000Y-155659000D01*
X118201000Y-156761000D01*
X116599000Y-156761000D01*
X116599000Y-155659000D01*
X116827262Y-155659000D01*
X116851648Y-155656598D01*
X116875097Y-155649485D01*
X116896708Y-155637934D01*
X116915650Y-155622388D01*
X116931196Y-155603446D01*
X116942747Y-155581835D01*
X116949860Y-155558386D01*
X116952262Y-155534000D01*
X116949860Y-155509614D01*
X116942747Y-155486165D01*
X116931196Y-155464554D01*
X116915650Y-155445612D01*
X116886192Y-155423764D01*
X116842400Y-155400356D01*
X116758499Y-155331501D01*
X116689644Y-155247600D01*
X116638479Y-155151879D01*
X116606973Y-155048015D01*
X116596334Y-154940000D01*
X116606973Y-154831985D01*
X116638479Y-154728121D01*
X116689644Y-154632400D01*
X116758499Y-154548499D01*
X116842400Y-154479644D01*
X116938121Y-154428479D01*
X116950858Y-154424615D01*
X116973493Y-154415240D01*
X116993867Y-154401626D01*
X117011194Y-154384299D01*
X117024808Y-154363924D01*
X117034186Y-154341285D01*
X117038966Y-154317252D01*
X117038966Y-154292748D01*
X117034185Y-154268714D01*
X117024808Y-154246075D01*
X117011194Y-154225701D01*
X116993867Y-154208374D01*
X116973492Y-154194760D01*
X116950858Y-154185385D01*
X116938121Y-154181521D01*
X116842400Y-154130356D01*
X116758499Y-154061501D01*
X116689644Y-153977600D01*
X116638479Y-153881879D01*
X116606973Y-153778015D01*
X116596334Y-153670000D01*
X116606973Y-153561985D01*
X116638479Y-153458121D01*
X116689644Y-153362400D01*
X116758499Y-153278499D01*
X116842400Y-153209644D01*
X116938121Y-153158479D01*
X117041985Y-153126973D01*
X117122933Y-153119000D01*
X117677067Y-153119000D01*
X117758015Y-153126973D01*
X117758015Y-153126973D01*
G37*
G36*
X130173665Y-154192622D02*
X130247222Y-154199867D01*
X130388786Y-154242810D01*
X130519252Y-154312546D01*
X130633606Y-154406394D01*
X130727454Y-154520748D01*
X130797190Y-154651214D01*
X130840133Y-154792778D01*
X130854633Y-154940000D01*
X130840133Y-155087222D01*
X130797190Y-155228786D01*
X130727454Y-155359252D01*
X130633606Y-155473606D01*
X130519252Y-155567454D01*
X130388786Y-155637190D01*
X130247222Y-155680133D01*
X130173665Y-155687378D01*
X130136888Y-155691000D01*
X130063112Y-155691000D01*
X130026335Y-155687378D01*
X129952778Y-155680133D01*
X129811214Y-155637190D01*
X129680748Y-155567454D01*
X129566394Y-155473606D01*
X129472546Y-155359252D01*
X129402810Y-155228786D01*
X129359867Y-155087222D01*
X129345367Y-154940000D01*
X129359867Y-154792778D01*
X129402810Y-154651214D01*
X129472546Y-154520748D01*
X129566394Y-154406394D01*
X129680748Y-154312546D01*
X129811214Y-154242810D01*
X129952778Y-154199867D01*
X130026335Y-154192622D01*
X130063112Y-154189000D01*
X130136888Y-154189000D01*
X130173665Y-154192622D01*
X130173665Y-154192622D01*
G37*
G36*
X125148600Y-154199867D02*
X125239059Y-154217860D01*
X125375732Y-154274472D01*
X125432715Y-154312547D01*
X125498738Y-154356662D01*
X125603338Y-154461262D01*
X125603340Y-154461265D01*
X125685528Y-154584268D01*
X125742140Y-154720941D01*
X125771000Y-154866033D01*
X125771000Y-155013967D01*
X125742140Y-155159059D01*
X125685528Y-155295732D01*
X125620111Y-155393635D01*
X125603338Y-155418738D01*
X125498738Y-155523338D01*
X125498735Y-155523340D01*
X125375732Y-155605528D01*
X125239059Y-155662140D01*
X125152004Y-155679456D01*
X125093969Y-155691000D01*
X124946031Y-155691000D01*
X124887996Y-155679456D01*
X124800941Y-155662140D01*
X124664268Y-155605528D01*
X124541265Y-155523340D01*
X124541262Y-155523338D01*
X124436662Y-155418738D01*
X124419889Y-155393635D01*
X124354472Y-155295732D01*
X124297860Y-155159059D01*
X124269000Y-155013967D01*
X124269000Y-154866033D01*
X124297860Y-154720941D01*
X124354472Y-154584268D01*
X124436660Y-154461265D01*
X124436662Y-154461262D01*
X124541262Y-154356662D01*
X124607285Y-154312547D01*
X124664268Y-154274472D01*
X124800941Y-154217860D01*
X124891400Y-154199867D01*
X124946031Y-154189000D01*
X125093969Y-154189000D01*
X125148600Y-154199867D01*
X125148600Y-154199867D01*
G37*
G36*
X96826565Y-152659389D02*
X97017834Y-152738615D01*
X97189976Y-152853637D01*
X97336363Y-153000024D01*
X97451385Y-153172166D01*
X97530611Y-153363435D01*
X97571000Y-153566484D01*
X97571000Y-153773516D01*
X97530611Y-153976565D01*
X97451385Y-154167834D01*
X97336363Y-154339976D01*
X97189976Y-154486363D01*
X97017834Y-154601385D01*
X96826565Y-154680611D01*
X96623516Y-154721000D01*
X96416484Y-154721000D01*
X96213435Y-154680611D01*
X96022166Y-154601385D01*
X95850024Y-154486363D01*
X95703637Y-154339976D01*
X95588615Y-154167834D01*
X95509389Y-153976565D01*
X95469000Y-153773516D01*
X95469000Y-153566484D01*
X95509389Y-153363435D01*
X95588615Y-153172166D01*
X95703637Y-153000024D01*
X95850024Y-152853637D01*
X96022166Y-152738615D01*
X96213435Y-152659389D01*
X96416484Y-152619000D01*
X96623516Y-152619000D01*
X96826565Y-152659389D01*
X96826565Y-152659389D01*
G37*
G36*
X109853665Y-151652622D02*
X109927222Y-151659867D01*
X110068786Y-151702810D01*
X110199252Y-151772546D01*
X110313606Y-151866394D01*
X110407454Y-151980748D01*
X110477190Y-152111214D01*
X110520133Y-152252778D01*
X110534633Y-152400000D01*
X110520133Y-152547222D01*
X110477190Y-152688786D01*
X110407454Y-152819252D01*
X110313606Y-152933606D01*
X110199252Y-153027454D01*
X110068786Y-153097190D01*
X109927222Y-153140133D01*
X109853665Y-153147378D01*
X109816888Y-153151000D01*
X109743112Y-153151000D01*
X109706335Y-153147378D01*
X109632778Y-153140133D01*
X109491214Y-153097190D01*
X109360748Y-153027454D01*
X109246394Y-152933606D01*
X109152546Y-152819252D01*
X109082810Y-152688786D01*
X109039867Y-152547222D01*
X109025367Y-152400000D01*
X109039867Y-152252778D01*
X109082810Y-152111214D01*
X109152546Y-151980748D01*
X109246394Y-151866394D01*
X109360748Y-151772546D01*
X109491214Y-151702810D01*
X109632778Y-151659867D01*
X109706335Y-151652622D01*
X109743112Y-151649000D01*
X109816888Y-151649000D01*
X109853665Y-151652622D01*
X109853665Y-151652622D01*
G37*
G36*
X104828600Y-151659867D02*
X104919059Y-151677860D01*
X105055732Y-151734472D01*
X105112715Y-151772547D01*
X105178738Y-151816662D01*
X105283338Y-151921262D01*
X105283340Y-151921265D01*
X105365528Y-152044268D01*
X105422140Y-152180941D01*
X105451000Y-152326033D01*
X105451000Y-152473967D01*
X105422140Y-152619059D01*
X105365528Y-152755732D01*
X105300111Y-152853635D01*
X105283338Y-152878738D01*
X105178738Y-152983338D01*
X105178735Y-152983340D01*
X105055732Y-153065528D01*
X104919059Y-153122140D01*
X104832004Y-153139456D01*
X104773969Y-153151000D01*
X104626031Y-153151000D01*
X104567996Y-153139456D01*
X104480941Y-153122140D01*
X104344268Y-153065528D01*
X104221265Y-152983340D01*
X104221262Y-152983338D01*
X104116662Y-152878738D01*
X104099889Y-152853635D01*
X104034472Y-152755732D01*
X103977860Y-152619059D01*
X103949000Y-152473967D01*
X103949000Y-152326033D01*
X103977860Y-152180941D01*
X104034472Y-152044268D01*
X104116660Y-151921265D01*
X104116662Y-151921262D01*
X104221262Y-151816662D01*
X104287285Y-151772547D01*
X104344268Y-151734472D01*
X104480941Y-151677860D01*
X104571400Y-151659867D01*
X104626031Y-151649000D01*
X104773969Y-151649000D01*
X104828600Y-151659867D01*
X104828600Y-151659867D01*
G37*
G36*
X144601060Y-152931060D02*
X140998940Y-152931060D01*
X140998940Y-149328940D01*
X144601060Y-149328940D01*
X144601060Y-152931060D01*
X144601060Y-152931060D01*
G37*
G36*
X97571000Y-147101000D02*
X95469000Y-147101000D01*
X95469000Y-144999000D01*
X97571000Y-144999000D01*
X97571000Y-147101000D01*
X97571000Y-147101000D01*
G37*
G36*
X104773665Y-145302622D02*
X104847222Y-145309867D01*
X104988786Y-145352810D01*
X105119252Y-145422546D01*
X105233606Y-145516394D01*
X105327454Y-145630748D01*
X105397190Y-145761214D01*
X105440133Y-145902778D01*
X105454633Y-146050000D01*
X105440133Y-146197222D01*
X105397190Y-146338786D01*
X105327454Y-146469252D01*
X105233606Y-146583606D01*
X105119252Y-146677454D01*
X104988786Y-146747190D01*
X104847222Y-146790133D01*
X104773665Y-146797378D01*
X104736888Y-146801000D01*
X104663112Y-146801000D01*
X104626335Y-146797378D01*
X104552778Y-146790133D01*
X104411214Y-146747190D01*
X104280748Y-146677454D01*
X104166394Y-146583606D01*
X104072546Y-146469252D01*
X104002810Y-146338786D01*
X103959867Y-146197222D01*
X103945367Y-146050000D01*
X103959867Y-145902778D01*
X104002810Y-145761214D01*
X104072546Y-145630748D01*
X104166394Y-145516394D01*
X104280748Y-145422546D01*
X104411214Y-145352810D01*
X104552778Y-145309867D01*
X104626335Y-145302622D01*
X104663112Y-145299000D01*
X104736888Y-145299000D01*
X104773665Y-145302622D01*
X104773665Y-145302622D01*
G37*
G36*
X109908600Y-145309867D02*
X109999059Y-145327860D01*
X110135732Y-145384472D01*
X110192715Y-145422547D01*
X110258738Y-145466662D01*
X110363338Y-145571262D01*
X110363340Y-145571265D01*
X110445528Y-145694268D01*
X110502140Y-145830941D01*
X110531000Y-145976033D01*
X110531000Y-146123967D01*
X110502140Y-146269059D01*
X110445528Y-146405732D01*
X110364446Y-146527079D01*
X110363338Y-146528738D01*
X110258738Y-146633338D01*
X110258735Y-146633340D01*
X110135732Y-146715528D01*
X109999059Y-146772140D01*
X109912004Y-146789456D01*
X109853969Y-146801000D01*
X109706031Y-146801000D01*
X109647996Y-146789456D01*
X109560941Y-146772140D01*
X109424268Y-146715528D01*
X109301265Y-146633340D01*
X109301262Y-146633338D01*
X109196662Y-146528738D01*
X109195554Y-146527079D01*
X109114472Y-146405732D01*
X109057860Y-146269059D01*
X109029000Y-146123967D01*
X109029000Y-145976033D01*
X109057860Y-145830941D01*
X109114472Y-145694268D01*
X109196660Y-145571265D01*
X109196662Y-145571262D01*
X109301262Y-145466662D01*
X109367285Y-145422547D01*
X109424268Y-145384472D01*
X109560941Y-145327860D01*
X109651400Y-145309867D01*
X109706031Y-145299000D01*
X109853969Y-145299000D01*
X109908600Y-145309867D01*
X109908600Y-145309867D01*
G37*
G36*
X117758015Y-141696973D02*
X117861879Y-141728479D01*
X117957600Y-141779644D01*
X118041501Y-141848499D01*
X118110356Y-141932400D01*
X118161521Y-142028121D01*
X118193027Y-142131985D01*
X118203666Y-142240000D01*
X118193027Y-142348015D01*
X118161521Y-142451879D01*
X118110356Y-142547600D01*
X118041501Y-142631501D01*
X117957600Y-142700356D01*
X117861879Y-142751521D01*
X117849142Y-142755385D01*
X117826507Y-142764760D01*
X117806133Y-142778374D01*
X117788806Y-142795701D01*
X117775192Y-142816076D01*
X117765814Y-142838715D01*
X117761034Y-142862748D01*
X117761034Y-142887252D01*
X117765815Y-142911286D01*
X117775192Y-142933925D01*
X117788806Y-142954299D01*
X117806133Y-142971626D01*
X117826508Y-142985240D01*
X117849142Y-142994615D01*
X117861879Y-142998479D01*
X117957600Y-143049644D01*
X118041501Y-143118499D01*
X118110356Y-143202400D01*
X118161521Y-143298121D01*
X118193027Y-143401985D01*
X118203666Y-143510000D01*
X118193027Y-143618015D01*
X118161521Y-143721879D01*
X118110356Y-143817600D01*
X118041501Y-143901501D01*
X117957600Y-143970356D01*
X117913805Y-143993766D01*
X117893439Y-144007374D01*
X117876111Y-144024701D01*
X117862498Y-144045076D01*
X117853120Y-144067715D01*
X117848340Y-144091748D01*
X117848340Y-144116252D01*
X117853121Y-144140286D01*
X117862498Y-144162925D01*
X117876112Y-144183299D01*
X117893439Y-144200627D01*
X117913814Y-144214240D01*
X117936453Y-144223618D01*
X117972738Y-144229000D01*
X118201000Y-144229000D01*
X118201000Y-145331000D01*
X116599000Y-145331000D01*
X116599000Y-144229000D01*
X116827262Y-144229000D01*
X116851648Y-144226598D01*
X116875097Y-144219485D01*
X116896708Y-144207934D01*
X116915650Y-144192388D01*
X116931196Y-144173446D01*
X116942747Y-144151835D01*
X116949860Y-144128386D01*
X116952262Y-144104000D01*
X116949860Y-144079614D01*
X116942747Y-144056165D01*
X116931196Y-144034554D01*
X116915650Y-144015612D01*
X116886192Y-143993764D01*
X116842400Y-143970356D01*
X116758499Y-143901501D01*
X116689644Y-143817600D01*
X116638479Y-143721879D01*
X116606973Y-143618015D01*
X116596334Y-143510000D01*
X116606973Y-143401985D01*
X116638479Y-143298121D01*
X116689644Y-143202400D01*
X116758499Y-143118499D01*
X116842400Y-143049644D01*
X116938121Y-142998479D01*
X116950858Y-142994615D01*
X116973493Y-142985240D01*
X116993867Y-142971626D01*
X117011194Y-142954299D01*
X117024808Y-142933924D01*
X117034186Y-142911285D01*
X117038966Y-142887252D01*
X117038966Y-142862748D01*
X117034185Y-142838714D01*
X117024808Y-142816075D01*
X117011194Y-142795701D01*
X116993867Y-142778374D01*
X116973492Y-142764760D01*
X116950858Y-142755385D01*
X116938121Y-142751521D01*
X116842400Y-142700356D01*
X116758499Y-142631501D01*
X116689644Y-142547600D01*
X116638479Y-142451879D01*
X116606973Y-142348015D01*
X116596334Y-142240000D01*
X116606973Y-142131985D01*
X116638479Y-142028121D01*
X116689644Y-141932400D01*
X116758499Y-141848499D01*
X116842400Y-141779644D01*
X116938121Y-141728479D01*
X117041985Y-141696973D01*
X117122933Y-141689000D01*
X117677067Y-141689000D01*
X117758015Y-141696973D01*
X117758015Y-141696973D01*
G37*
G36*
X96826565Y-142499389D02*
X97017834Y-142578615D01*
X97189976Y-142693637D01*
X97336363Y-142840024D01*
X97451385Y-143012166D01*
X97530611Y-143203435D01*
X97571000Y-143406484D01*
X97571000Y-143613516D01*
X97530611Y-143816565D01*
X97451385Y-144007834D01*
X97336363Y-144179976D01*
X97189976Y-144326363D01*
X97017834Y-144441385D01*
X96826565Y-144520611D01*
X96623516Y-144561000D01*
X96416484Y-144561000D01*
X96213435Y-144520611D01*
X96022166Y-144441385D01*
X95850024Y-144326363D01*
X95703637Y-144179976D01*
X95588615Y-144007834D01*
X95509389Y-143816565D01*
X95469000Y-143613516D01*
X95469000Y-143406484D01*
X95509389Y-143203435D01*
X95588615Y-143012166D01*
X95703637Y-142840024D01*
X95850024Y-142693637D01*
X96022166Y-142578615D01*
X96213435Y-142499389D01*
X96416484Y-142459000D01*
X96623516Y-142459000D01*
X96826565Y-142499389D01*
X96826565Y-142499389D01*
G37*
G36*
X125148600Y-142769867D02*
X125239059Y-142787860D01*
X125375732Y-142844472D01*
X125432715Y-142882547D01*
X125498738Y-142926662D01*
X125603338Y-143031262D01*
X125603340Y-143031265D01*
X125685528Y-143154268D01*
X125742140Y-143290941D01*
X125743568Y-143298121D01*
X125771000Y-143436031D01*
X125771000Y-143583969D01*
X125764228Y-143618013D01*
X125742140Y-143729059D01*
X125685528Y-143865732D01*
X125615621Y-143970355D01*
X125603338Y-143988738D01*
X125498738Y-144093338D01*
X125498735Y-144093340D01*
X125375732Y-144175528D01*
X125239059Y-144232140D01*
X125152004Y-144249456D01*
X125093969Y-144261000D01*
X124946031Y-144261000D01*
X124887996Y-144249456D01*
X124800941Y-144232140D01*
X124664268Y-144175528D01*
X124541265Y-144093340D01*
X124541262Y-144093338D01*
X124436662Y-143988738D01*
X124424379Y-143970355D01*
X124354472Y-143865732D01*
X124297860Y-143729059D01*
X124275772Y-143618013D01*
X124269000Y-143583969D01*
X124269000Y-143436031D01*
X124296432Y-143298121D01*
X124297860Y-143290941D01*
X124354472Y-143154268D01*
X124436660Y-143031265D01*
X124436662Y-143031262D01*
X124541262Y-142926662D01*
X124607285Y-142882547D01*
X124664268Y-142844472D01*
X124800941Y-142787860D01*
X124891400Y-142769867D01*
X124946031Y-142759000D01*
X125093969Y-142759000D01*
X125148600Y-142769867D01*
X125148600Y-142769867D01*
G37*
G36*
X130173665Y-142762622D02*
X130247222Y-142769867D01*
X130388786Y-142812810D01*
X130519252Y-142882546D01*
X130633606Y-142976394D01*
X130727454Y-143090748D01*
X130797190Y-143221214D01*
X130840133Y-143362778D01*
X130854633Y-143510000D01*
X130840133Y-143657222D01*
X130797190Y-143798786D01*
X130727454Y-143929252D01*
X130633606Y-144043606D01*
X130519252Y-144137454D01*
X130388786Y-144207190D01*
X130247222Y-144250133D01*
X130173665Y-144257378D01*
X130136888Y-144261000D01*
X130063112Y-144261000D01*
X130026335Y-144257378D01*
X129952778Y-144250133D01*
X129811214Y-144207190D01*
X129680748Y-144137454D01*
X129566394Y-144043606D01*
X129472546Y-143929252D01*
X129402810Y-143798786D01*
X129359867Y-143657222D01*
X129345367Y-143510000D01*
X129359867Y-143362778D01*
X129402810Y-143221214D01*
X129472546Y-143090748D01*
X129566394Y-142976394D01*
X129680748Y-142882546D01*
X129811214Y-142812810D01*
X129952778Y-142769867D01*
X130026335Y-142762622D01*
X130063112Y-142759000D01*
X130136888Y-142759000D01*
X130173665Y-142762622D01*
X130173665Y-142762622D01*
G37*
G36*
X96826565Y-139959389D02*
X97017834Y-140038615D01*
X97189976Y-140153637D01*
X97336363Y-140300024D01*
X97451385Y-140472166D01*
X97530611Y-140663435D01*
X97571000Y-140866484D01*
X97571000Y-141073516D01*
X97530611Y-141276565D01*
X97451385Y-141467834D01*
X97336363Y-141639976D01*
X97189976Y-141786363D01*
X97017834Y-141901385D01*
X96826565Y-141980611D01*
X96623516Y-142021000D01*
X96416484Y-142021000D01*
X96213435Y-141980611D01*
X96022166Y-141901385D01*
X95850024Y-141786363D01*
X95703637Y-141639976D01*
X95588615Y-141467834D01*
X95509389Y-141276565D01*
X95469000Y-141073516D01*
X95469000Y-140866484D01*
X95509389Y-140663435D01*
X95588615Y-140472166D01*
X95703637Y-140300024D01*
X95850024Y-140153637D01*
X96022166Y-140038615D01*
X96213435Y-139959389D01*
X96416484Y-139919000D01*
X96623516Y-139919000D01*
X96826565Y-139959389D01*
X96826565Y-139959389D01*
G37*
G36*
X104828600Y-138959867D02*
X104919059Y-138977860D01*
X105055732Y-139034472D01*
X105112715Y-139072547D01*
X105178738Y-139116662D01*
X105283338Y-139221262D01*
X105283340Y-139221265D01*
X105365528Y-139344268D01*
X105422140Y-139480941D01*
X105451000Y-139626033D01*
X105451000Y-139773967D01*
X105422140Y-139919059D01*
X105365528Y-140055732D01*
X105300111Y-140153635D01*
X105283338Y-140178738D01*
X105178738Y-140283338D01*
X105178735Y-140283340D01*
X105055732Y-140365528D01*
X104919059Y-140422140D01*
X104832004Y-140439456D01*
X104773969Y-140451000D01*
X104626031Y-140451000D01*
X104567996Y-140439456D01*
X104480941Y-140422140D01*
X104344268Y-140365528D01*
X104221265Y-140283340D01*
X104221262Y-140283338D01*
X104116662Y-140178738D01*
X104099889Y-140153635D01*
X104034472Y-140055732D01*
X103977860Y-139919059D01*
X103949000Y-139773967D01*
X103949000Y-139626033D01*
X103977860Y-139480941D01*
X104034472Y-139344268D01*
X104116660Y-139221265D01*
X104116662Y-139221262D01*
X104221262Y-139116662D01*
X104287285Y-139072547D01*
X104344268Y-139034472D01*
X104480941Y-138977860D01*
X104571400Y-138959867D01*
X104626031Y-138949000D01*
X104773969Y-138949000D01*
X104828600Y-138959867D01*
X104828600Y-138959867D01*
G37*
G36*
X109853665Y-138952622D02*
X109927222Y-138959867D01*
X110068786Y-139002810D01*
X110199252Y-139072546D01*
X110313606Y-139166394D01*
X110407454Y-139280748D01*
X110477190Y-139411214D01*
X110520133Y-139552778D01*
X110534633Y-139700000D01*
X110520133Y-139847222D01*
X110477190Y-139988786D01*
X110407454Y-140119252D01*
X110313606Y-140233606D01*
X110199252Y-140327454D01*
X110068786Y-140397190D01*
X109927222Y-140440133D01*
X109853665Y-140447378D01*
X109816888Y-140451000D01*
X109743112Y-140451000D01*
X109706335Y-140447378D01*
X109632778Y-140440133D01*
X109491214Y-140397190D01*
X109360748Y-140327454D01*
X109246394Y-140233606D01*
X109152546Y-140119252D01*
X109082810Y-139988786D01*
X109039867Y-139847222D01*
X109025367Y-139700000D01*
X109039867Y-139552778D01*
X109082810Y-139411214D01*
X109152546Y-139280748D01*
X109246394Y-139166394D01*
X109360748Y-139072546D01*
X109491214Y-139002810D01*
X109632778Y-138959867D01*
X109706335Y-138952622D01*
X109743112Y-138949000D01*
X109816888Y-138949000D01*
X109853665Y-138952622D01*
X109853665Y-138952622D01*
G37*
G36*
X143183000Y-136487000D02*
X141481000Y-136487000D01*
X141481000Y-134785000D01*
X143183000Y-134785000D01*
X143183000Y-136487000D01*
X143183000Y-136487000D01*
G37*
G36*
X145080228Y-134817703D02*
X145235100Y-134881853D01*
X145374481Y-134974985D01*
X145493015Y-135093519D01*
X145586147Y-135232900D01*
X145650297Y-135387772D01*
X145683000Y-135552184D01*
X145683000Y-135719816D01*
X145650297Y-135884228D01*
X145586147Y-136039100D01*
X145493015Y-136178481D01*
X145374481Y-136297015D01*
X145235100Y-136390147D01*
X145080228Y-136454297D01*
X144915816Y-136487000D01*
X144748184Y-136487000D01*
X144583772Y-136454297D01*
X144428900Y-136390147D01*
X144289519Y-136297015D01*
X144170985Y-136178481D01*
X144077853Y-136039100D01*
X144013703Y-135884228D01*
X143981000Y-135719816D01*
X143981000Y-135552184D01*
X144013703Y-135387772D01*
X144077853Y-135232900D01*
X144170985Y-135093519D01*
X144289519Y-134974985D01*
X144428900Y-134881853D01*
X144583772Y-134817703D01*
X144748184Y-134785000D01*
X144915816Y-134785000D01*
X145080228Y-134817703D01*
X145080228Y-134817703D01*
G37*
G36*
X119921000Y-134601000D02*
X117419000Y-134601000D01*
X117419000Y-132099000D01*
X119921000Y-132099000D01*
X119921000Y-134601000D01*
X119921000Y-134601000D01*
G37*
G36*
X129075239Y-132117101D02*
X129311053Y-132188634D01*
X129528381Y-132304799D01*
X129718871Y-132461129D01*
X129875201Y-132651619D01*
X129991366Y-132868947D01*
X130062899Y-133104761D01*
X130087053Y-133350000D01*
X130062899Y-133595239D01*
X129991366Y-133831053D01*
X129875201Y-134048381D01*
X129718871Y-134238871D01*
X129528381Y-134395201D01*
X129311053Y-134511366D01*
X129075239Y-134582899D01*
X128891457Y-134601000D01*
X128768543Y-134601000D01*
X128584761Y-134582899D01*
X128348947Y-134511366D01*
X128131619Y-134395201D01*
X127941129Y-134238871D01*
X127784799Y-134048381D01*
X127668634Y-133831053D01*
X127597101Y-133595239D01*
X127572947Y-133350000D01*
X127597101Y-133104761D01*
X127668634Y-132868947D01*
X127784799Y-132651619D01*
X127941129Y-132461129D01*
X128131619Y-132304799D01*
X128348947Y-132188634D01*
X128584761Y-132117101D01*
X128768543Y-132099000D01*
X128891457Y-132099000D01*
X129075239Y-132117101D01*
X129075239Y-132117101D01*
G37*
G36*
X97471000Y-134038500D02*
X95569000Y-134038500D01*
X95569000Y-132661500D01*
X97471000Y-132661500D01*
X97471000Y-134038500D01*
X97471000Y-134038500D01*
G37*
G36*
X96917471Y-130971462D02*
X97047252Y-131010831D01*
X97166857Y-131074761D01*
X97271699Y-131160801D01*
X97357739Y-131265643D01*
X97421669Y-131385248D01*
X97461038Y-131515029D01*
X97474331Y-131650000D01*
X97461038Y-131784971D01*
X97421669Y-131914752D01*
X97357739Y-132034357D01*
X97271699Y-132139199D01*
X97166857Y-132225239D01*
X97047252Y-132289169D01*
X96917471Y-132328538D01*
X96816322Y-132338500D01*
X96223678Y-132338500D01*
X96122529Y-132328538D01*
X95992748Y-132289169D01*
X95873143Y-132225239D01*
X95768301Y-132139199D01*
X95682261Y-132034357D01*
X95618331Y-131914752D01*
X95578962Y-131784971D01*
X95565669Y-131650000D01*
X95578962Y-131515029D01*
X95618331Y-131385248D01*
X95682261Y-131265643D01*
X95768301Y-131160801D01*
X95873143Y-131074761D01*
X95992748Y-131010831D01*
X96122529Y-130971462D01*
X96223678Y-130961500D01*
X96816322Y-130961500D01*
X96917471Y-130971462D01*
X96917471Y-130971462D01*
G37*
G36*
X96917471Y-129271462D02*
X97047252Y-129310831D01*
X97166857Y-129374761D01*
X97271699Y-129460801D01*
X97357739Y-129565643D01*
X97421669Y-129685248D01*
X97461038Y-129815029D01*
X97474331Y-129950000D01*
X97461038Y-130084971D01*
X97421669Y-130214752D01*
X97357739Y-130334357D01*
X97271699Y-130439199D01*
X97166857Y-130525239D01*
X97047252Y-130589169D01*
X96917471Y-130628538D01*
X96816322Y-130638500D01*
X96223678Y-130638500D01*
X96122529Y-130628538D01*
X95992748Y-130589169D01*
X95873143Y-130525239D01*
X95768301Y-130439199D01*
X95682261Y-130334357D01*
X95618331Y-130214752D01*
X95578962Y-130084971D01*
X95565669Y-129950000D01*
X95578962Y-129815029D01*
X95618331Y-129685248D01*
X95682261Y-129565643D01*
X95768301Y-129460801D01*
X95873143Y-129374761D01*
X95992748Y-129310831D01*
X96122529Y-129271462D01*
X96223678Y-129261500D01*
X96816322Y-129261500D01*
X96917471Y-129271462D01*
X96917471Y-129271462D01*
G37*
G36*
X110671000Y-130391000D02*
X108969000Y-130391000D01*
X108969000Y-128689000D01*
X110671000Y-128689000D01*
X110671000Y-130391000D01*
X110671000Y-130391000D01*
G37*
G36*
X112568228Y-128721703D02*
X112723100Y-128785853D01*
X112862481Y-128878985D01*
X112981015Y-128997519D01*
X113074147Y-129136900D01*
X113138297Y-129291772D01*
X113171000Y-129456184D01*
X113171000Y-129623816D01*
X113138297Y-129788228D01*
X113074147Y-129943100D01*
X112981015Y-130082481D01*
X112862481Y-130201015D01*
X112723100Y-130294147D01*
X112568228Y-130358297D01*
X112403816Y-130391000D01*
X112236184Y-130391000D01*
X112071772Y-130358297D01*
X111916900Y-130294147D01*
X111777519Y-130201015D01*
X111658985Y-130082481D01*
X111565853Y-129943100D01*
X111501703Y-129788228D01*
X111469000Y-129623816D01*
X111469000Y-129456184D01*
X111501703Y-129291772D01*
X111565853Y-129136900D01*
X111658985Y-128997519D01*
X111777519Y-128878985D01*
X111916900Y-128785853D01*
X112071772Y-128721703D01*
X112236184Y-128689000D01*
X112403816Y-128689000D01*
X112568228Y-128721703D01*
X112568228Y-128721703D01*
G37*
G36*
X96917471Y-127571462D02*
X97047252Y-127610831D01*
X97166857Y-127674761D01*
X97271699Y-127760801D01*
X97357739Y-127865643D01*
X97421669Y-127985248D01*
X97461038Y-128115029D01*
X97474331Y-128250000D01*
X97461038Y-128384971D01*
X97421669Y-128514752D01*
X97357739Y-128634357D01*
X97271699Y-128739199D01*
X97166857Y-128825239D01*
X97047252Y-128889169D01*
X96917471Y-128928538D01*
X96816322Y-128938500D01*
X96223678Y-128938500D01*
X96122529Y-128928538D01*
X95992748Y-128889169D01*
X95873143Y-128825239D01*
X95768301Y-128739199D01*
X95682261Y-128634357D01*
X95618331Y-128514752D01*
X95578962Y-128384971D01*
X95565669Y-128250000D01*
X95578962Y-128115029D01*
X95618331Y-127985248D01*
X95682261Y-127865643D01*
X95768301Y-127760801D01*
X95873143Y-127674761D01*
X95992748Y-127610831D01*
X96122529Y-127571462D01*
X96223678Y-127561500D01*
X96816322Y-127561500D01*
X96917471Y-127571462D01*
X96917471Y-127571462D01*
G37*
G36*
X96917471Y-125871462D02*
X97047252Y-125910831D01*
X97166857Y-125974761D01*
X97271699Y-126060801D01*
X97357739Y-126165643D01*
X97421669Y-126285248D01*
X97461038Y-126415029D01*
X97474331Y-126550000D01*
X97461038Y-126684971D01*
X97421669Y-126814752D01*
X97357739Y-126934357D01*
X97271699Y-127039199D01*
X97166857Y-127125239D01*
X97047252Y-127189169D01*
X96917471Y-127228538D01*
X96816322Y-127238500D01*
X96223678Y-127238500D01*
X96122529Y-127228538D01*
X95992748Y-127189169D01*
X95873143Y-127125239D01*
X95768301Y-127039199D01*
X95682261Y-126934357D01*
X95618331Y-126814752D01*
X95578962Y-126684971D01*
X95565669Y-126550000D01*
X95578962Y-126415029D01*
X95618331Y-126285248D01*
X95682261Y-126165643D01*
X95768301Y-126060801D01*
X95873143Y-125974761D01*
X95992748Y-125910831D01*
X96122529Y-125871462D01*
X96223678Y-125861500D01*
X96816322Y-125861500D01*
X96917471Y-125871462D01*
X96917471Y-125871462D01*
G37*
G36*
X143183000Y-125819000D02*
X141481000Y-125819000D01*
X141481000Y-124117000D01*
X143183000Y-124117000D01*
X143183000Y-125819000D01*
X143183000Y-125819000D01*
G37*
G36*
X145080228Y-124149703D02*
X145235100Y-124213853D01*
X145374481Y-124306985D01*
X145493015Y-124425519D01*
X145586147Y-124564900D01*
X145650297Y-124719772D01*
X145683000Y-124884184D01*
X145683000Y-125051816D01*
X145650297Y-125216228D01*
X145586147Y-125371100D01*
X145493015Y-125510481D01*
X145374481Y-125629015D01*
X145235100Y-125722147D01*
X145080228Y-125786297D01*
X144915816Y-125819000D01*
X144748184Y-125819000D01*
X144583772Y-125786297D01*
X144428900Y-125722147D01*
X144289519Y-125629015D01*
X144170985Y-125510481D01*
X144077853Y-125371100D01*
X144013703Y-125216228D01*
X143981000Y-125051816D01*
X143981000Y-124884184D01*
X144013703Y-124719772D01*
X144077853Y-124564900D01*
X144170985Y-124425519D01*
X144289519Y-124306985D01*
X144428900Y-124213853D01*
X144583772Y-124149703D01*
X144748184Y-124117000D01*
X144915816Y-124117000D01*
X145080228Y-124149703D01*
X145080228Y-124149703D01*
G37*
G36*
X121473567Y-120594959D02*
X121604072Y-120620918D01*
X121849939Y-120722759D01*
X122070464Y-120870110D01*
X122071215Y-120870612D01*
X122259388Y-121058785D01*
X122259390Y-121058788D01*
X122407241Y-121280061D01*
X122509082Y-121525928D01*
X122561000Y-121786938D01*
X122561000Y-122053062D01*
X122509082Y-122314072D01*
X122407241Y-122559939D01*
X122259890Y-122780464D01*
X122259388Y-122781215D01*
X122071215Y-122969388D01*
X122071212Y-122969390D01*
X121849939Y-123117241D01*
X121604072Y-123219082D01*
X121473567Y-123245041D01*
X121343063Y-123271000D01*
X121076937Y-123271000D01*
X120946433Y-123245041D01*
X120815928Y-123219082D01*
X120570061Y-123117241D01*
X120348788Y-122969390D01*
X120348785Y-122969388D01*
X120160612Y-122781215D01*
X120160110Y-122780464D01*
X120012759Y-122559939D01*
X119910918Y-122314072D01*
X119859000Y-122053062D01*
X119859000Y-121786938D01*
X119910918Y-121525928D01*
X120012759Y-121280061D01*
X120160610Y-121058788D01*
X120160612Y-121058785D01*
X120348785Y-120870612D01*
X120349536Y-120870110D01*
X120570061Y-120722759D01*
X120815928Y-120620918D01*
X120946433Y-120594959D01*
X121076937Y-120569000D01*
X121343063Y-120569000D01*
X121473567Y-120594959D01*
X121473567Y-120594959D01*
G37*
G36*
X126473567Y-120594959D02*
X126604072Y-120620918D01*
X126849939Y-120722759D01*
X127070464Y-120870110D01*
X127071215Y-120870612D01*
X127259388Y-121058785D01*
X127259390Y-121058788D01*
X127407241Y-121280061D01*
X127509082Y-121525928D01*
X127561000Y-121786938D01*
X127561000Y-122053062D01*
X127509082Y-122314072D01*
X127407241Y-122559939D01*
X127259890Y-122780464D01*
X127259388Y-122781215D01*
X127071215Y-122969388D01*
X127071212Y-122969390D01*
X126849939Y-123117241D01*
X126604072Y-123219082D01*
X126473567Y-123245041D01*
X126343063Y-123271000D01*
X126076937Y-123271000D01*
X125946433Y-123245041D01*
X125815928Y-123219082D01*
X125570061Y-123117241D01*
X125348788Y-122969390D01*
X125348785Y-122969388D01*
X125160612Y-122781215D01*
X125160110Y-122780464D01*
X125012759Y-122559939D01*
X124910918Y-122314072D01*
X124859000Y-122053062D01*
X124859000Y-121786938D01*
X124910918Y-121525928D01*
X125012759Y-121280061D01*
X125160610Y-121058788D01*
X125160612Y-121058785D01*
X125348785Y-120870612D01*
X125349536Y-120870110D01*
X125570061Y-120722759D01*
X125815928Y-120620918D01*
X125946433Y-120594959D01*
X126076937Y-120569000D01*
X126343063Y-120569000D01*
X126473567Y-120594959D01*
X126473567Y-120594959D01*
G37*
G36*
X114841000Y-123171000D02*
X112339000Y-123171000D01*
X112339000Y-120669000D01*
X114841000Y-120669000D01*
X114841000Y-123171000D01*
X114841000Y-123171000D01*
G37*
G36*
X144630565Y-115321389D02*
X144821834Y-115400615D01*
X144993976Y-115515637D01*
X145140363Y-115662024D01*
X145255385Y-115834166D01*
X145334611Y-116025435D01*
X145375000Y-116228484D01*
X145375000Y-116435516D01*
X145334611Y-116638565D01*
X145255385Y-116829834D01*
X145140363Y-117001976D01*
X144993976Y-117148363D01*
X144821834Y-117263385D01*
X144630565Y-117342611D01*
X144427516Y-117383000D01*
X144220484Y-117383000D01*
X144017435Y-117342611D01*
X143826166Y-117263385D01*
X143654024Y-117148363D01*
X143507637Y-117001976D01*
X143392615Y-116829834D01*
X143313389Y-116638565D01*
X143273000Y-116435516D01*
X143273000Y-116228484D01*
X143313389Y-116025435D01*
X143392615Y-115834166D01*
X143507637Y-115662024D01*
X143654024Y-115515637D01*
X143826166Y-115400615D01*
X144017435Y-115321389D01*
X144220484Y-115281000D01*
X144427516Y-115281000D01*
X144630565Y-115321389D01*
X144630565Y-115321389D01*
G37*
G36*
X99239294Y-113398633D02*
X99411694Y-113450931D01*
X99411696Y-113450932D01*
X99570583Y-113535859D01*
X99709849Y-113650151D01*
X99741310Y-113688486D01*
X99824140Y-113789416D01*
X99909069Y-113948306D01*
X99961367Y-114120706D01*
X99979025Y-114300000D01*
X99961367Y-114479294D01*
X99909069Y-114651694D01*
X99909068Y-114651696D01*
X99824141Y-114810583D01*
X99709849Y-114949849D01*
X99570583Y-115064141D01*
X99411696Y-115149068D01*
X99411694Y-115149069D01*
X99239294Y-115201367D01*
X99104931Y-115214600D01*
X99015069Y-115214600D01*
X98880706Y-115201367D01*
X98708306Y-115149069D01*
X98708304Y-115149068D01*
X98549417Y-115064141D01*
X98410151Y-114949849D01*
X98295859Y-114810583D01*
X98210932Y-114651696D01*
X98210931Y-114651694D01*
X98158633Y-114479294D01*
X98140975Y-114300000D01*
X98158633Y-114120706D01*
X98210931Y-113948306D01*
X98295860Y-113789416D01*
X98378691Y-113688486D01*
X98410151Y-113650151D01*
X98549417Y-113535859D01*
X98708304Y-113450932D01*
X98708306Y-113450931D01*
X98880706Y-113398633D01*
X99015069Y-113385400D01*
X99104931Y-113385400D01*
X99239294Y-113398633D01*
X99239294Y-113398633D01*
G37*
G36*
X96699294Y-113398633D02*
X96871694Y-113450931D01*
X96871696Y-113450932D01*
X97030583Y-113535859D01*
X97169849Y-113650151D01*
X97201310Y-113688486D01*
X97284140Y-113789416D01*
X97369069Y-113948306D01*
X97421367Y-114120706D01*
X97439025Y-114300000D01*
X97421367Y-114479294D01*
X97369069Y-114651694D01*
X97369068Y-114651696D01*
X97284141Y-114810583D01*
X97169849Y-114949849D01*
X97030583Y-115064141D01*
X96871696Y-115149068D01*
X96871694Y-115149069D01*
X96699294Y-115201367D01*
X96564931Y-115214600D01*
X96475069Y-115214600D01*
X96340706Y-115201367D01*
X96168306Y-115149069D01*
X96168304Y-115149068D01*
X96009417Y-115064141D01*
X95870151Y-114949849D01*
X95755859Y-114810583D01*
X95670932Y-114651696D01*
X95670931Y-114651694D01*
X95618633Y-114479294D01*
X95600975Y-114300000D01*
X95618633Y-114120706D01*
X95670931Y-113948306D01*
X95755860Y-113789416D01*
X95838691Y-113688486D01*
X95870151Y-113650151D01*
X96009417Y-113535859D01*
X96168304Y-113450932D01*
X96168306Y-113450931D01*
X96340706Y-113398633D01*
X96475069Y-113385400D01*
X96564931Y-113385400D01*
X96699294Y-113398633D01*
X96699294Y-113398633D01*
G37*
G36*
X144630565Y-112781389D02*
X144821834Y-112860615D01*
X144993976Y-112975637D01*
X145140363Y-113122024D01*
X145255385Y-113294166D01*
X145334611Y-113485435D01*
X145375000Y-113688484D01*
X145375000Y-113895516D01*
X145334611Y-114098565D01*
X145255385Y-114289834D01*
X145140363Y-114461976D01*
X144993976Y-114608363D01*
X144821834Y-114723385D01*
X144630565Y-114802611D01*
X144427516Y-114843000D01*
X144220484Y-114843000D01*
X144017435Y-114802611D01*
X143826166Y-114723385D01*
X143654024Y-114608363D01*
X143507637Y-114461976D01*
X143392615Y-114289834D01*
X143313389Y-114098565D01*
X143273000Y-113895516D01*
X143273000Y-113688484D01*
X143313389Y-113485435D01*
X143392615Y-113294166D01*
X143507637Y-113122024D01*
X143654024Y-112975637D01*
X143826166Y-112860615D01*
X144017435Y-112781389D01*
X144220484Y-112741000D01*
X144427516Y-112741000D01*
X144630565Y-112781389D01*
X144630565Y-112781389D01*
G37*
G36*
X113835239Y-110527101D02*
X114071053Y-110598634D01*
X114288381Y-110714799D01*
X114478871Y-110871129D01*
X114635201Y-111061619D01*
X114751366Y-111278947D01*
X114822899Y-111514761D01*
X114847053Y-111760000D01*
X114822899Y-112005239D01*
X114751366Y-112241053D01*
X114635201Y-112458381D01*
X114478871Y-112648871D01*
X114288381Y-112805201D01*
X114071053Y-112921366D01*
X113835239Y-112992899D01*
X113651457Y-113011000D01*
X113528543Y-113011000D01*
X113344761Y-112992899D01*
X113108947Y-112921366D01*
X112891619Y-112805201D01*
X112701129Y-112648871D01*
X112544799Y-112458381D01*
X112428634Y-112241053D01*
X112357101Y-112005239D01*
X112332947Y-111760000D01*
X112357101Y-111514761D01*
X112428634Y-111278947D01*
X112544799Y-111061619D01*
X112701129Y-110871129D01*
X112891619Y-110714799D01*
X113108947Y-110598634D01*
X113344761Y-110527101D01*
X113528543Y-110509000D01*
X113651457Y-110509000D01*
X113835239Y-110527101D01*
X113835239Y-110527101D01*
G37*
G36*
X99239294Y-110858633D02*
X99411694Y-110910931D01*
X99411696Y-110910932D01*
X99570583Y-110995859D01*
X99570585Y-110995860D01*
X99570584Y-110995860D01*
X99709849Y-111110151D01*
X99824140Y-111249416D01*
X99909069Y-111408306D01*
X99961367Y-111580706D01*
X99979025Y-111760000D01*
X99961367Y-111939294D01*
X99909069Y-112111694D01*
X99909068Y-112111696D01*
X99824141Y-112270583D01*
X99709849Y-112409849D01*
X99570583Y-112524141D01*
X99411696Y-112609068D01*
X99411694Y-112609069D01*
X99239294Y-112661367D01*
X99104931Y-112674600D01*
X99015069Y-112674600D01*
X98880706Y-112661367D01*
X98708306Y-112609069D01*
X98708304Y-112609068D01*
X98549417Y-112524141D01*
X98410151Y-112409849D01*
X98295859Y-112270583D01*
X98210932Y-112111696D01*
X98210931Y-112111694D01*
X98158633Y-111939294D01*
X98140975Y-111760000D01*
X98158633Y-111580706D01*
X98210931Y-111408306D01*
X98295860Y-111249416D01*
X98410151Y-111110151D01*
X98549416Y-110995860D01*
X98549415Y-110995860D01*
X98549417Y-110995859D01*
X98708304Y-110910932D01*
X98708306Y-110910931D01*
X98880706Y-110858633D01*
X99015069Y-110845400D01*
X99104931Y-110845400D01*
X99239294Y-110858633D01*
X99239294Y-110858633D01*
G37*
G36*
X96699294Y-110858633D02*
X96871694Y-110910931D01*
X96871696Y-110910932D01*
X97030583Y-110995859D01*
X97030585Y-110995860D01*
X97030584Y-110995860D01*
X97169849Y-111110151D01*
X97284140Y-111249416D01*
X97369069Y-111408306D01*
X97421367Y-111580706D01*
X97439025Y-111760000D01*
X97421367Y-111939294D01*
X97369069Y-112111694D01*
X97369068Y-112111696D01*
X97284141Y-112270583D01*
X97169849Y-112409849D01*
X97030583Y-112524141D01*
X96871696Y-112609068D01*
X96871694Y-112609069D01*
X96699294Y-112661367D01*
X96564931Y-112674600D01*
X96475069Y-112674600D01*
X96340706Y-112661367D01*
X96168306Y-112609069D01*
X96168304Y-112609068D01*
X96009417Y-112524141D01*
X95870151Y-112409849D01*
X95755859Y-112270583D01*
X95670932Y-112111696D01*
X95670931Y-112111694D01*
X95618633Y-111939294D01*
X95600975Y-111760000D01*
X95618633Y-111580706D01*
X95670931Y-111408306D01*
X95755860Y-111249416D01*
X95870151Y-111110151D01*
X96009416Y-110995860D01*
X96009415Y-110995860D01*
X96009417Y-110995859D01*
X96168304Y-110910932D01*
X96168306Y-110910931D01*
X96340706Y-110858633D01*
X96475069Y-110845400D01*
X96564931Y-110845400D01*
X96699294Y-110858633D01*
X96699294Y-110858633D01*
G37*
G36*
X145375000Y-112303000D02*
X143273000Y-112303000D01*
X143273000Y-110201000D01*
X145375000Y-110201000D01*
X145375000Y-112303000D01*
X145375000Y-112303000D01*
G37*
G36*
X99239294Y-108318633D02*
X99411694Y-108370931D01*
X99411696Y-108370932D01*
X99570583Y-108455859D01*
X99570585Y-108455860D01*
X99570584Y-108455860D01*
X99709849Y-108570151D01*
X99824140Y-108709416D01*
X99909069Y-108868306D01*
X99961367Y-109040706D01*
X99979025Y-109220000D01*
X99961367Y-109399294D01*
X99909069Y-109571694D01*
X99909068Y-109571696D01*
X99824141Y-109730583D01*
X99709849Y-109869849D01*
X99570583Y-109984141D01*
X99411696Y-110069068D01*
X99411694Y-110069069D01*
X99239294Y-110121367D01*
X99104931Y-110134600D01*
X99015069Y-110134600D01*
X98880706Y-110121367D01*
X98708306Y-110069069D01*
X98708304Y-110069068D01*
X98549417Y-109984141D01*
X98410151Y-109869849D01*
X98295859Y-109730583D01*
X98210932Y-109571696D01*
X98210931Y-109571694D01*
X98158633Y-109399294D01*
X98140975Y-109220000D01*
X98158633Y-109040706D01*
X98210931Y-108868306D01*
X98295860Y-108709416D01*
X98410151Y-108570151D01*
X98549416Y-108455860D01*
X98549415Y-108455860D01*
X98549417Y-108455859D01*
X98708304Y-108370932D01*
X98708306Y-108370931D01*
X98880706Y-108318633D01*
X99015069Y-108305400D01*
X99104931Y-108305400D01*
X99239294Y-108318633D01*
X99239294Y-108318633D01*
G37*
G36*
X97434600Y-110134600D02*
X95605400Y-110134600D01*
X95605400Y-108305400D01*
X97434600Y-108305400D01*
X97434600Y-110134600D01*
X97434600Y-110134600D01*
G37*
G36*
X129213643Y-103877781D02*
X129359415Y-103938162D01*
X129490611Y-104025824D01*
X129602176Y-104137389D01*
X129689838Y-104268585D01*
X129750219Y-104414357D01*
X129781000Y-104569107D01*
X129781000Y-104726893D01*
X129750219Y-104881643D01*
X129689838Y-105027415D01*
X129602176Y-105158611D01*
X129490611Y-105270176D01*
X129359415Y-105357838D01*
X129213643Y-105418219D01*
X129058893Y-105449000D01*
X128901107Y-105449000D01*
X128746357Y-105418219D01*
X128600585Y-105357838D01*
X128469389Y-105270176D01*
X128357824Y-105158611D01*
X128270162Y-105027415D01*
X128209781Y-104881643D01*
X128179000Y-104726893D01*
X128179000Y-104569107D01*
X128209781Y-104414357D01*
X128270162Y-104268585D01*
X128357824Y-104137389D01*
X128469389Y-104025824D01*
X128600585Y-103938162D01*
X128746357Y-103877781D01*
X128901107Y-103847000D01*
X129058893Y-103847000D01*
X129213643Y-103877781D01*
X129213643Y-103877781D01*
G37*
G36*
X122713643Y-103877781D02*
X122859415Y-103938162D01*
X122990611Y-104025824D01*
X123102176Y-104137389D01*
X123189838Y-104268585D01*
X123250219Y-104414357D01*
X123281000Y-104569107D01*
X123281000Y-104726893D01*
X123250219Y-104881643D01*
X123189838Y-105027415D01*
X123102176Y-105158611D01*
X122990611Y-105270176D01*
X122859415Y-105357838D01*
X122713643Y-105418219D01*
X122558893Y-105449000D01*
X122401107Y-105449000D01*
X122246357Y-105418219D01*
X122100585Y-105357838D01*
X121969389Y-105270176D01*
X121857824Y-105158611D01*
X121770162Y-105027415D01*
X121709781Y-104881643D01*
X121679000Y-104726893D01*
X121679000Y-104569107D01*
X121709781Y-104414357D01*
X121770162Y-104268585D01*
X121857824Y-104137389D01*
X121969389Y-104025824D01*
X122100585Y-103938162D01*
X122246357Y-103877781D01*
X122401107Y-103847000D01*
X122558893Y-103847000D01*
X122713643Y-103877781D01*
X122713643Y-103877781D01*
G37*
G36*
X112657643Y-103805781D02*
X112803415Y-103866162D01*
X112934611Y-103953824D01*
X113046176Y-104065389D01*
X113133838Y-104196585D01*
X113194219Y-104342357D01*
X113225000Y-104497107D01*
X113225000Y-104654893D01*
X113194219Y-104809643D01*
X113133838Y-104955415D01*
X113046176Y-105086611D01*
X112934611Y-105198176D01*
X112803415Y-105285838D01*
X112657643Y-105346219D01*
X112502893Y-105377000D01*
X112345107Y-105377000D01*
X112190357Y-105346219D01*
X112044585Y-105285838D01*
X111913389Y-105198176D01*
X111801824Y-105086611D01*
X111714162Y-104955415D01*
X111653781Y-104809643D01*
X111623000Y-104654893D01*
X111623000Y-104497107D01*
X111653781Y-104342357D01*
X111714162Y-104196585D01*
X111801824Y-104065389D01*
X111913389Y-103953824D01*
X112044585Y-103866162D01*
X112190357Y-103805781D01*
X112345107Y-103775000D01*
X112502893Y-103775000D01*
X112657643Y-103805781D01*
X112657643Y-103805781D01*
G37*
G36*
X119157643Y-103805781D02*
X119303415Y-103866162D01*
X119434611Y-103953824D01*
X119546176Y-104065389D01*
X119633838Y-104196585D01*
X119694219Y-104342357D01*
X119725000Y-104497107D01*
X119725000Y-104654893D01*
X119694219Y-104809643D01*
X119633838Y-104955415D01*
X119546176Y-105086611D01*
X119434611Y-105198176D01*
X119303415Y-105285838D01*
X119157643Y-105346219D01*
X119002893Y-105377000D01*
X118845107Y-105377000D01*
X118690357Y-105346219D01*
X118544585Y-105285838D01*
X118413389Y-105198176D01*
X118301824Y-105086611D01*
X118214162Y-104955415D01*
X118153781Y-104809643D01*
X118123000Y-104654893D01*
X118123000Y-104497107D01*
X118153781Y-104342357D01*
X118214162Y-104196585D01*
X118301824Y-104065389D01*
X118413389Y-103953824D01*
X118544585Y-103866162D01*
X118690357Y-103805781D01*
X118845107Y-103775000D01*
X119002893Y-103775000D01*
X119157643Y-103805781D01*
X119157643Y-103805781D01*
G37*
G36*
X145334228Y-102813703D02*
X145489100Y-102877853D01*
X145628481Y-102970985D01*
X145747015Y-103089519D01*
X145840147Y-103228900D01*
X145904297Y-103383772D01*
X145937000Y-103548184D01*
X145937000Y-103715816D01*
X145904297Y-103880228D01*
X145840147Y-104035100D01*
X145747015Y-104174481D01*
X145628481Y-104293015D01*
X145489100Y-104386147D01*
X145334228Y-104450297D01*
X145169816Y-104483000D01*
X145002184Y-104483000D01*
X144837772Y-104450297D01*
X144682900Y-104386147D01*
X144543519Y-104293015D01*
X144424985Y-104174481D01*
X144331853Y-104035100D01*
X144267703Y-103880228D01*
X144235000Y-103715816D01*
X144235000Y-103548184D01*
X144267703Y-103383772D01*
X144331853Y-103228900D01*
X144424985Y-103089519D01*
X144543519Y-102970985D01*
X144682900Y-102877853D01*
X144837772Y-102813703D01*
X145002184Y-102781000D01*
X145169816Y-102781000D01*
X145334228Y-102813703D01*
X145334228Y-102813703D01*
G37*
G36*
X143437000Y-104483000D02*
X141735000Y-104483000D01*
X141735000Y-102781000D01*
X143437000Y-102781000D01*
X143437000Y-104483000D01*
X143437000Y-104483000D01*
G37*
G36*
X122713643Y-99377781D02*
X122859415Y-99438162D01*
X122990611Y-99525824D01*
X123102176Y-99637389D01*
X123189838Y-99768585D01*
X123250219Y-99914357D01*
X123281000Y-100069107D01*
X123281000Y-100226893D01*
X123250219Y-100381643D01*
X123189838Y-100527415D01*
X123102176Y-100658611D01*
X122990611Y-100770176D01*
X122859415Y-100857838D01*
X122713643Y-100918219D01*
X122558893Y-100949000D01*
X122401107Y-100949000D01*
X122246357Y-100918219D01*
X122100585Y-100857838D01*
X121969389Y-100770176D01*
X121857824Y-100658611D01*
X121770162Y-100527415D01*
X121709781Y-100381643D01*
X121679000Y-100226893D01*
X121679000Y-100069107D01*
X121709781Y-99914357D01*
X121770162Y-99768585D01*
X121857824Y-99637389D01*
X121969389Y-99525824D01*
X122100585Y-99438162D01*
X122246357Y-99377781D01*
X122401107Y-99347000D01*
X122558893Y-99347000D01*
X122713643Y-99377781D01*
X122713643Y-99377781D01*
G37*
G36*
X129213643Y-99377781D02*
X129359415Y-99438162D01*
X129490611Y-99525824D01*
X129602176Y-99637389D01*
X129689838Y-99768585D01*
X129750219Y-99914357D01*
X129781000Y-100069107D01*
X129781000Y-100226893D01*
X129750219Y-100381643D01*
X129689838Y-100527415D01*
X129602176Y-100658611D01*
X129490611Y-100770176D01*
X129359415Y-100857838D01*
X129213643Y-100918219D01*
X129058893Y-100949000D01*
X128901107Y-100949000D01*
X128746357Y-100918219D01*
X128600585Y-100857838D01*
X128469389Y-100770176D01*
X128357824Y-100658611D01*
X128270162Y-100527415D01*
X128209781Y-100381643D01*
X128179000Y-100226893D01*
X128179000Y-100069107D01*
X128209781Y-99914357D01*
X128270162Y-99768585D01*
X128357824Y-99637389D01*
X128469389Y-99525824D01*
X128600585Y-99438162D01*
X128746357Y-99377781D01*
X128901107Y-99347000D01*
X129058893Y-99347000D01*
X129213643Y-99377781D01*
X129213643Y-99377781D01*
G37*
G36*
X112657643Y-99305781D02*
X112803415Y-99366162D01*
X112934611Y-99453824D01*
X113046176Y-99565389D01*
X113133838Y-99696585D01*
X113194219Y-99842357D01*
X113225000Y-99997107D01*
X113225000Y-100154893D01*
X113194219Y-100309643D01*
X113133838Y-100455415D01*
X113046176Y-100586611D01*
X112934611Y-100698176D01*
X112803415Y-100785838D01*
X112657643Y-100846219D01*
X112502893Y-100877000D01*
X112345107Y-100877000D01*
X112190357Y-100846219D01*
X112044585Y-100785838D01*
X111913389Y-100698176D01*
X111801824Y-100586611D01*
X111714162Y-100455415D01*
X111653781Y-100309643D01*
X111623000Y-100154893D01*
X111623000Y-99997107D01*
X111653781Y-99842357D01*
X111714162Y-99696585D01*
X111801824Y-99565389D01*
X111913389Y-99453824D01*
X112044585Y-99366162D01*
X112190357Y-99305781D01*
X112345107Y-99275000D01*
X112502893Y-99275000D01*
X112657643Y-99305781D01*
X112657643Y-99305781D01*
G37*
G36*
X119157643Y-99305781D02*
X119303415Y-99366162D01*
X119434611Y-99453824D01*
X119546176Y-99565389D01*
X119633838Y-99696585D01*
X119694219Y-99842357D01*
X119725000Y-99997107D01*
X119725000Y-100154893D01*
X119694219Y-100309643D01*
X119633838Y-100455415D01*
X119546176Y-100586611D01*
X119434611Y-100698176D01*
X119303415Y-100785838D01*
X119157643Y-100846219D01*
X119002893Y-100877000D01*
X118845107Y-100877000D01*
X118690357Y-100846219D01*
X118544585Y-100785838D01*
X118413389Y-100698176D01*
X118301824Y-100586611D01*
X118214162Y-100455415D01*
X118153781Y-100309643D01*
X118123000Y-100154893D01*
X118123000Y-99997107D01*
X118153781Y-99842357D01*
X118214162Y-99696585D01*
X118301824Y-99565389D01*
X118413389Y-99453824D01*
X118544585Y-99366162D01*
X118690357Y-99305781D01*
X118845107Y-99275000D01*
X119002893Y-99275000D01*
X119157643Y-99305781D01*
X119157643Y-99305781D01*
G37*
G36*
X124952000Y-91459000D02*
X123950000Y-91459000D01*
X123950000Y-89357000D01*
X124952000Y-89357000D01*
X124952000Y-91459000D01*
X124952000Y-91459000D01*
G37*
G36*
X123682000Y-91459000D02*
X122680000Y-91459000D01*
X122680000Y-89357000D01*
X123682000Y-89357000D01*
X123682000Y-91459000D01*
X123682000Y-91459000D01*
G37*
G36*
X122412000Y-91459000D02*
X121410000Y-91459000D01*
X121410000Y-89357000D01*
X122412000Y-89357000D01*
X122412000Y-91459000D01*
X122412000Y-91459000D01*
G37*
G36*
X126222000Y-91459000D02*
X125220000Y-91459000D01*
X125220000Y-89357000D01*
X126222000Y-89357000D01*
X126222000Y-91459000D01*
X126222000Y-91459000D01*
G37*
G36*
X127492000Y-91459000D02*
X126490000Y-91459000D01*
X126490000Y-89357000D01*
X127492000Y-89357000D01*
X127492000Y-91459000D01*
X127492000Y-91459000D01*
G37*
G36*
X128762000Y-91459000D02*
X127760000Y-91459000D01*
X127760000Y-89357000D01*
X128762000Y-89357000D01*
X128762000Y-91459000D01*
X128762000Y-91459000D01*
G37*
G36*
X133842000Y-91459000D02*
X132840000Y-91459000D01*
X132840000Y-89357000D01*
X133842000Y-89357000D01*
X133842000Y-91459000D01*
X133842000Y-91459000D01*
G37*
G36*
X132572000Y-91459000D02*
X131570000Y-91459000D01*
X131570000Y-89357000D01*
X132572000Y-89357000D01*
X132572000Y-91459000D01*
X132572000Y-91459000D01*
G37*
G36*
X131302000Y-91459000D02*
X130300000Y-91459000D01*
X130300000Y-89357000D01*
X131302000Y-89357000D01*
X131302000Y-91459000D01*
X131302000Y-91459000D01*
G37*
G36*
X130032000Y-91459000D02*
X129030000Y-91459000D01*
X129030000Y-89357000D01*
X130032000Y-89357000D01*
X130032000Y-91459000D01*
X130032000Y-91459000D01*
G37*
G36*
X120177000Y-89909000D02*
X118075000Y-89909000D01*
X118075000Y-88907000D01*
X120177000Y-88907000D01*
X120177000Y-89909000D01*
X120177000Y-89909000D01*
G37*
G36*
X137177000Y-89909000D02*
X135075000Y-89909000D01*
X135075000Y-88907000D01*
X137177000Y-88907000D01*
X137177000Y-89909000D01*
X137177000Y-89909000D01*
G37*
G36*
X142148443Y-87497519D02*
X142214627Y-87504037D01*
X142327853Y-87538384D01*
X142384467Y-87555557D01*
X142523087Y-87629652D01*
X142540991Y-87639222D01*
X142576729Y-87668552D01*
X142678186Y-87751814D01*
X142761448Y-87853271D01*
X142790778Y-87889009D01*
X142790779Y-87889011D01*
X142874443Y-88045533D01*
X142874443Y-88045534D01*
X142925963Y-88215373D01*
X142943359Y-88392000D01*
X142925963Y-88568627D01*
X142891616Y-88681853D01*
X142874443Y-88738467D01*
X142800348Y-88877087D01*
X142790778Y-88894991D01*
X142780922Y-88907000D01*
X142678186Y-89032186D01*
X142576729Y-89115448D01*
X142540991Y-89144778D01*
X142540989Y-89144779D01*
X142384467Y-89228443D01*
X142327853Y-89245616D01*
X142214627Y-89279963D01*
X142148443Y-89286481D01*
X142082260Y-89293000D01*
X141993740Y-89293000D01*
X141927557Y-89286481D01*
X141861373Y-89279963D01*
X141748147Y-89245616D01*
X141691533Y-89228443D01*
X141535011Y-89144779D01*
X141535009Y-89144778D01*
X141499271Y-89115448D01*
X141397814Y-89032186D01*
X141295078Y-88907000D01*
X141285222Y-88894991D01*
X141275652Y-88877087D01*
X141201557Y-88738467D01*
X141184384Y-88681853D01*
X141150037Y-88568627D01*
X141132641Y-88392000D01*
X141150037Y-88215373D01*
X141201557Y-88045534D01*
X141201557Y-88045533D01*
X141285221Y-87889011D01*
X141285222Y-87889009D01*
X141314552Y-87853271D01*
X141397814Y-87751814D01*
X141499271Y-87668552D01*
X141535009Y-87639222D01*
X141552913Y-87629652D01*
X141691533Y-87555557D01*
X141748147Y-87538384D01*
X141861373Y-87504037D01*
X141927557Y-87497519D01*
X141993740Y-87491000D01*
X142082260Y-87491000D01*
X142148443Y-87497519D01*
X142148443Y-87497519D01*
G37*
G36*
X137177000Y-88639000D02*
X135075000Y-88639000D01*
X135075000Y-87637000D01*
X137177000Y-87637000D01*
X137177000Y-88639000D01*
X137177000Y-88639000D01*
G37*
G36*
X120177000Y-88639000D02*
X118075000Y-88639000D01*
X118075000Y-87637000D01*
X120177000Y-87637000D01*
X120177000Y-88639000D01*
X120177000Y-88639000D01*
G37*
G36*
X137177000Y-87369000D02*
X135075000Y-87369000D01*
X135075000Y-86367000D01*
X137177000Y-86367000D01*
X137177000Y-87369000D01*
X137177000Y-87369000D01*
G37*
G36*
X120177000Y-87369000D02*
X118075000Y-87369000D01*
X118075000Y-86367000D01*
X120177000Y-86367000D01*
X120177000Y-87369000D01*
X120177000Y-87369000D01*
G37*
G36*
X142148442Y-84957518D02*
X142214627Y-84964037D01*
X142327853Y-84998384D01*
X142384467Y-85015557D01*
X142518904Y-85087416D01*
X142540991Y-85099222D01*
X142576729Y-85128552D01*
X142678186Y-85211814D01*
X142761448Y-85313271D01*
X142790778Y-85349009D01*
X142790779Y-85349011D01*
X142874443Y-85505533D01*
X142874443Y-85505534D01*
X142925963Y-85675373D01*
X142943359Y-85852000D01*
X142925963Y-86028627D01*
X142901708Y-86108584D01*
X142874443Y-86198467D01*
X142848047Y-86247849D01*
X142790778Y-86354991D01*
X142784910Y-86362141D01*
X142678186Y-86492186D01*
X142576729Y-86575448D01*
X142540991Y-86604778D01*
X142540989Y-86604779D01*
X142384467Y-86688443D01*
X142327853Y-86705616D01*
X142214627Y-86739963D01*
X142148443Y-86746481D01*
X142082260Y-86753000D01*
X141993740Y-86753000D01*
X141927557Y-86746481D01*
X141861373Y-86739963D01*
X141748147Y-86705616D01*
X141691533Y-86688443D01*
X141535011Y-86604779D01*
X141535009Y-86604778D01*
X141499271Y-86575448D01*
X141397814Y-86492186D01*
X141291090Y-86362141D01*
X141285222Y-86354991D01*
X141227953Y-86247849D01*
X141201557Y-86198467D01*
X141174292Y-86108584D01*
X141150037Y-86028627D01*
X141132641Y-85852000D01*
X141150037Y-85675373D01*
X141201557Y-85505534D01*
X141201557Y-85505533D01*
X141285221Y-85349011D01*
X141285222Y-85349009D01*
X141314552Y-85313271D01*
X141397814Y-85211814D01*
X141499271Y-85128552D01*
X141535009Y-85099222D01*
X141557096Y-85087416D01*
X141691533Y-85015557D01*
X141748147Y-84998384D01*
X141861373Y-84964037D01*
X141927558Y-84957518D01*
X141993740Y-84951000D01*
X142082260Y-84951000D01*
X142148442Y-84957518D01*
X142148442Y-84957518D01*
G37*
G36*
X98985294Y-84696633D02*
X99157694Y-84748931D01*
X99157696Y-84748932D01*
X99316583Y-84833859D01*
X99455849Y-84948151D01*
X99570141Y-85087417D01*
X99636633Y-85211814D01*
X99655069Y-85246306D01*
X99707367Y-85418706D01*
X99725025Y-85598000D01*
X99707367Y-85777294D01*
X99655069Y-85949694D01*
X99655068Y-85949696D01*
X99570141Y-86108583D01*
X99455849Y-86247849D01*
X99316583Y-86362141D01*
X99307492Y-86367000D01*
X99157694Y-86447069D01*
X98985294Y-86499367D01*
X98850931Y-86512600D01*
X98761069Y-86512600D01*
X98626706Y-86499367D01*
X98454306Y-86447069D01*
X98304508Y-86367000D01*
X98295417Y-86362141D01*
X98156151Y-86247849D01*
X98041859Y-86108583D01*
X97956932Y-85949696D01*
X97956931Y-85949694D01*
X97904633Y-85777294D01*
X97886975Y-85598000D01*
X97904633Y-85418706D01*
X97956931Y-85246306D01*
X97975367Y-85211814D01*
X98041859Y-85087417D01*
X98156151Y-84948151D01*
X98295417Y-84833859D01*
X98454304Y-84748932D01*
X98454306Y-84748931D01*
X98626706Y-84696633D01*
X98761069Y-84683400D01*
X98850931Y-84683400D01*
X98985294Y-84696633D01*
X98985294Y-84696633D01*
G37*
G36*
X96445294Y-84696633D02*
X96617694Y-84748931D01*
X96617696Y-84748932D01*
X96776583Y-84833859D01*
X96915849Y-84948151D01*
X97030141Y-85087417D01*
X97096633Y-85211814D01*
X97115069Y-85246306D01*
X97167367Y-85418706D01*
X97185025Y-85598000D01*
X97167367Y-85777294D01*
X97115069Y-85949694D01*
X97115068Y-85949696D01*
X97030141Y-86108583D01*
X96915849Y-86247849D01*
X96776583Y-86362141D01*
X96767492Y-86367000D01*
X96617694Y-86447069D01*
X96445294Y-86499367D01*
X96310931Y-86512600D01*
X96221069Y-86512600D01*
X96086706Y-86499367D01*
X95914306Y-86447069D01*
X95764508Y-86367000D01*
X95755417Y-86362141D01*
X95616151Y-86247849D01*
X95501859Y-86108583D01*
X95416932Y-85949696D01*
X95416931Y-85949694D01*
X95364633Y-85777294D01*
X95346975Y-85598000D01*
X95364633Y-85418706D01*
X95416931Y-85246306D01*
X95435367Y-85211814D01*
X95501859Y-85087417D01*
X95616151Y-84948151D01*
X95755417Y-84833859D01*
X95914304Y-84748932D01*
X95914306Y-84748931D01*
X96086706Y-84696633D01*
X96221069Y-84683400D01*
X96310931Y-84683400D01*
X96445294Y-84696633D01*
X96445294Y-84696633D01*
G37*
G36*
X137177000Y-86099000D02*
X135075000Y-86099000D01*
X135075000Y-85097000D01*
X137177000Y-85097000D01*
X137177000Y-86099000D01*
X137177000Y-86099000D01*
G37*
G36*
X120177000Y-86099000D02*
X118075000Y-86099000D01*
X118075000Y-85097000D01*
X120177000Y-85097000D01*
X120177000Y-86099000D01*
X120177000Y-86099000D01*
G37*
G36*
X137177000Y-84829000D02*
X135075000Y-84829000D01*
X135075000Y-83827000D01*
X137177000Y-83827000D01*
X137177000Y-84829000D01*
X137177000Y-84829000D01*
G37*
G36*
X120177000Y-84829000D02*
X118075000Y-84829000D01*
X118075000Y-83827000D01*
X120177000Y-83827000D01*
X120177000Y-84829000D01*
X120177000Y-84829000D01*
G37*
G36*
X142148443Y-82417519D02*
X142214627Y-82424037D01*
X142327853Y-82458384D01*
X142384467Y-82475557D01*
X142518904Y-82547416D01*
X142540991Y-82559222D01*
X142576729Y-82588552D01*
X142678186Y-82671814D01*
X142761448Y-82773271D01*
X142790778Y-82809009D01*
X142790779Y-82809011D01*
X142874443Y-82965533D01*
X142874443Y-82965534D01*
X142925963Y-83135373D01*
X142943359Y-83312000D01*
X142925963Y-83488627D01*
X142901708Y-83568584D01*
X142874443Y-83658467D01*
X142848047Y-83707849D01*
X142790778Y-83814991D01*
X142784910Y-83822141D01*
X142678186Y-83952186D01*
X142576729Y-84035448D01*
X142540991Y-84064778D01*
X142540989Y-84064779D01*
X142384467Y-84148443D01*
X142327853Y-84165616D01*
X142214627Y-84199963D01*
X142148442Y-84206482D01*
X142082260Y-84213000D01*
X141993740Y-84213000D01*
X141927558Y-84206482D01*
X141861373Y-84199963D01*
X141748147Y-84165616D01*
X141691533Y-84148443D01*
X141535011Y-84064779D01*
X141535009Y-84064778D01*
X141499271Y-84035448D01*
X141397814Y-83952186D01*
X141291090Y-83822141D01*
X141285222Y-83814991D01*
X141227953Y-83707849D01*
X141201557Y-83658467D01*
X141174292Y-83568584D01*
X141150037Y-83488627D01*
X141132641Y-83312000D01*
X141150037Y-83135373D01*
X141201557Y-82965534D01*
X141201557Y-82965533D01*
X141285221Y-82809011D01*
X141285222Y-82809009D01*
X141314552Y-82773271D01*
X141397814Y-82671814D01*
X141499271Y-82588552D01*
X141535009Y-82559222D01*
X141557096Y-82547416D01*
X141691533Y-82475557D01*
X141748147Y-82458384D01*
X141861373Y-82424037D01*
X141927557Y-82417519D01*
X141993740Y-82411000D01*
X142082260Y-82411000D01*
X142148443Y-82417519D01*
X142148443Y-82417519D01*
G37*
G36*
X98985294Y-82156633D02*
X99157694Y-82208931D01*
X99157696Y-82208932D01*
X99316583Y-82293859D01*
X99455849Y-82408151D01*
X99570141Y-82547417D01*
X99636633Y-82671814D01*
X99655069Y-82706306D01*
X99707367Y-82878706D01*
X99725025Y-83058000D01*
X99707367Y-83237294D01*
X99655069Y-83409694D01*
X99655068Y-83409696D01*
X99570141Y-83568583D01*
X99455849Y-83707849D01*
X99316583Y-83822141D01*
X99307492Y-83827000D01*
X99157694Y-83907069D01*
X98985294Y-83959367D01*
X98850931Y-83972600D01*
X98761069Y-83972600D01*
X98626706Y-83959367D01*
X98454306Y-83907069D01*
X98304508Y-83827000D01*
X98295417Y-83822141D01*
X98156151Y-83707849D01*
X98041859Y-83568583D01*
X97956932Y-83409696D01*
X97956931Y-83409694D01*
X97904633Y-83237294D01*
X97886975Y-83058000D01*
X97904633Y-82878706D01*
X97956931Y-82706306D01*
X97975367Y-82671814D01*
X98041859Y-82547417D01*
X98156151Y-82408151D01*
X98295417Y-82293859D01*
X98454304Y-82208932D01*
X98454306Y-82208931D01*
X98626706Y-82156633D01*
X98761069Y-82143400D01*
X98850931Y-82143400D01*
X98985294Y-82156633D01*
X98985294Y-82156633D01*
G37*
G36*
X96445294Y-82156633D02*
X96617694Y-82208931D01*
X96617696Y-82208932D01*
X96776583Y-82293859D01*
X96915849Y-82408151D01*
X97030141Y-82547417D01*
X97096633Y-82671814D01*
X97115069Y-82706306D01*
X97167367Y-82878706D01*
X97185025Y-83058000D01*
X97167367Y-83237294D01*
X97115069Y-83409694D01*
X97115068Y-83409696D01*
X97030141Y-83568583D01*
X96915849Y-83707849D01*
X96776583Y-83822141D01*
X96767492Y-83827000D01*
X96617694Y-83907069D01*
X96445294Y-83959367D01*
X96310931Y-83972600D01*
X96221069Y-83972600D01*
X96086706Y-83959367D01*
X95914306Y-83907069D01*
X95764508Y-83827000D01*
X95755417Y-83822141D01*
X95616151Y-83707849D01*
X95501859Y-83568583D01*
X95416932Y-83409696D01*
X95416931Y-83409694D01*
X95364633Y-83237294D01*
X95346975Y-83058000D01*
X95364633Y-82878706D01*
X95416931Y-82706306D01*
X95435367Y-82671814D01*
X95501859Y-82547417D01*
X95616151Y-82408151D01*
X95755417Y-82293859D01*
X95914304Y-82208932D01*
X95914306Y-82208931D01*
X96086706Y-82156633D01*
X96221069Y-82143400D01*
X96310931Y-82143400D01*
X96445294Y-82156633D01*
X96445294Y-82156633D01*
G37*
G36*
X120177000Y-83559000D02*
X118075000Y-83559000D01*
X118075000Y-82557000D01*
X120177000Y-82557000D01*
X120177000Y-83559000D01*
X120177000Y-83559000D01*
G37*
G36*
X137177000Y-83559000D02*
X135075000Y-83559000D01*
X135075000Y-82557000D01*
X137177000Y-82557000D01*
X137177000Y-83559000D01*
X137177000Y-83559000D01*
G37*
G36*
X137177000Y-82289000D02*
X135075000Y-82289000D01*
X135075000Y-81287000D01*
X137177000Y-81287000D01*
X137177000Y-82289000D01*
X137177000Y-82289000D01*
G37*
G36*
X120177000Y-82289000D02*
X118075000Y-82289000D01*
X118075000Y-81287000D01*
X120177000Y-81287000D01*
X120177000Y-82289000D01*
X120177000Y-82289000D01*
G37*
G36*
X129177000Y-81949000D02*
X124075000Y-81949000D01*
X124075000Y-76847000D01*
X129177000Y-76847000D01*
X129177000Y-81949000D01*
X129177000Y-81949000D01*
G37*
G36*
X142939000Y-81673000D02*
X141137000Y-81673000D01*
X141137000Y-79871000D01*
X142939000Y-79871000D01*
X142939000Y-81673000D01*
X142939000Y-81673000D01*
G37*
G36*
X96445294Y-79616633D02*
X96617694Y-79668931D01*
X96617696Y-79668932D01*
X96776583Y-79753859D01*
X96776585Y-79753860D01*
X96776584Y-79753860D01*
X96915849Y-79868151D01*
X97030140Y-80007416D01*
X97115069Y-80166306D01*
X97167367Y-80338706D01*
X97185025Y-80518000D01*
X97167367Y-80697294D01*
X97115069Y-80869694D01*
X97115068Y-80869696D01*
X97030141Y-81028583D01*
X96915849Y-81167849D01*
X96776583Y-81282141D01*
X96767492Y-81287000D01*
X96617694Y-81367069D01*
X96445294Y-81419367D01*
X96310931Y-81432600D01*
X96221069Y-81432600D01*
X96086706Y-81419367D01*
X95914306Y-81367069D01*
X95764508Y-81287000D01*
X95755417Y-81282141D01*
X95616151Y-81167849D01*
X95501859Y-81028583D01*
X95416932Y-80869696D01*
X95416931Y-80869694D01*
X95364633Y-80697294D01*
X95346975Y-80518000D01*
X95364633Y-80338706D01*
X95416931Y-80166306D01*
X95501860Y-80007416D01*
X95616151Y-79868151D01*
X95755416Y-79753860D01*
X95755415Y-79753860D01*
X95755417Y-79753859D01*
X95914304Y-79668932D01*
X95914306Y-79668931D01*
X96086706Y-79616633D01*
X96221069Y-79603400D01*
X96310931Y-79603400D01*
X96445294Y-79616633D01*
X96445294Y-79616633D01*
G37*
G36*
X98985294Y-79616633D02*
X99157694Y-79668931D01*
X99157696Y-79668932D01*
X99316583Y-79753859D01*
X99316585Y-79753860D01*
X99316584Y-79753860D01*
X99455849Y-79868151D01*
X99570140Y-80007416D01*
X99655069Y-80166306D01*
X99707367Y-80338706D01*
X99725025Y-80518000D01*
X99707367Y-80697294D01*
X99655069Y-80869694D01*
X99655068Y-80869696D01*
X99570141Y-81028583D01*
X99455849Y-81167849D01*
X99316583Y-81282141D01*
X99307492Y-81287000D01*
X99157694Y-81367069D01*
X98985294Y-81419367D01*
X98850931Y-81432600D01*
X98761069Y-81432600D01*
X98626706Y-81419367D01*
X98454306Y-81367069D01*
X98304508Y-81287000D01*
X98295417Y-81282141D01*
X98156151Y-81167849D01*
X98041859Y-81028583D01*
X97956932Y-80869696D01*
X97956931Y-80869694D01*
X97904633Y-80697294D01*
X97886975Y-80518000D01*
X97904633Y-80338706D01*
X97956931Y-80166306D01*
X98041860Y-80007416D01*
X98156151Y-79868151D01*
X98295416Y-79753860D01*
X98295415Y-79753860D01*
X98295417Y-79753859D01*
X98454304Y-79668932D01*
X98454306Y-79668931D01*
X98626706Y-79616633D01*
X98761069Y-79603400D01*
X98850931Y-79603400D01*
X98985294Y-79616633D01*
X98985294Y-79616633D01*
G37*
G36*
X120177000Y-81019000D02*
X118075000Y-81019000D01*
X118075000Y-80017000D01*
X120177000Y-80017000D01*
X120177000Y-81019000D01*
X120177000Y-81019000D01*
G37*
G36*
X137177000Y-81019000D02*
X135075000Y-81019000D01*
X135075000Y-80017000D01*
X137177000Y-80017000D01*
X137177000Y-81019000D01*
X137177000Y-81019000D01*
G37*
G36*
X137177000Y-79749000D02*
X135075000Y-79749000D01*
X135075000Y-78747000D01*
X137177000Y-78747000D01*
X137177000Y-79749000D01*
X137177000Y-79749000D01*
G37*
G36*
X120177000Y-79749000D02*
X118075000Y-79749000D01*
X118075000Y-78747000D01*
X120177000Y-78747000D01*
X120177000Y-79749000D01*
X120177000Y-79749000D01*
G37*
G36*
X98985294Y-77076633D02*
X99157694Y-77128931D01*
X99157696Y-77128932D01*
X99316583Y-77213859D01*
X99316585Y-77213860D01*
X99316584Y-77213860D01*
X99455849Y-77328151D01*
X99570140Y-77467416D01*
X99655069Y-77626306D01*
X99707367Y-77798706D01*
X99725025Y-77978000D01*
X99707367Y-78157294D01*
X99655069Y-78329694D01*
X99655068Y-78329696D01*
X99570141Y-78488583D01*
X99455849Y-78627849D01*
X99316583Y-78742141D01*
X99307492Y-78747000D01*
X99157694Y-78827069D01*
X98985294Y-78879367D01*
X98850931Y-78892600D01*
X98761069Y-78892600D01*
X98626706Y-78879367D01*
X98454306Y-78827069D01*
X98304508Y-78747000D01*
X98295417Y-78742141D01*
X98156151Y-78627849D01*
X98041859Y-78488583D01*
X97956932Y-78329696D01*
X97956931Y-78329694D01*
X97904633Y-78157294D01*
X97886975Y-77978000D01*
X97904633Y-77798706D01*
X97956931Y-77626306D01*
X98041860Y-77467416D01*
X98156151Y-77328151D01*
X98295416Y-77213860D01*
X98295415Y-77213860D01*
X98295417Y-77213859D01*
X98454304Y-77128932D01*
X98454306Y-77128931D01*
X98626706Y-77076633D01*
X98761069Y-77063400D01*
X98850931Y-77063400D01*
X98985294Y-77076633D01*
X98985294Y-77076633D01*
G37*
G36*
X96445294Y-77076633D02*
X96617694Y-77128931D01*
X96617696Y-77128932D01*
X96776583Y-77213859D01*
X96776585Y-77213860D01*
X96776584Y-77213860D01*
X96915849Y-77328151D01*
X97030140Y-77467416D01*
X97115069Y-77626306D01*
X97167367Y-77798706D01*
X97185025Y-77978000D01*
X97167367Y-78157294D01*
X97115069Y-78329694D01*
X97115068Y-78329696D01*
X97030141Y-78488583D01*
X96915849Y-78627849D01*
X96776583Y-78742141D01*
X96767492Y-78747000D01*
X96617694Y-78827069D01*
X96445294Y-78879367D01*
X96310931Y-78892600D01*
X96221069Y-78892600D01*
X96086706Y-78879367D01*
X95914306Y-78827069D01*
X95764508Y-78747000D01*
X95755417Y-78742141D01*
X95616151Y-78627849D01*
X95501859Y-78488583D01*
X95416932Y-78329696D01*
X95416931Y-78329694D01*
X95364633Y-78157294D01*
X95346975Y-77978000D01*
X95364633Y-77798706D01*
X95416931Y-77626306D01*
X95501860Y-77467416D01*
X95616151Y-77328151D01*
X95755416Y-77213860D01*
X95755415Y-77213860D01*
X95755417Y-77213859D01*
X95914304Y-77128932D01*
X95914306Y-77128931D01*
X96086706Y-77076633D01*
X96221069Y-77063400D01*
X96310931Y-77063400D01*
X96445294Y-77076633D01*
X96445294Y-77076633D01*
G37*
G36*
X120177000Y-78479000D02*
X118075000Y-78479000D01*
X118075000Y-77477000D01*
X120177000Y-77477000D01*
X120177000Y-78479000D01*
X120177000Y-78479000D01*
G37*
G36*
X137177000Y-78479000D02*
X135075000Y-78479000D01*
X135075000Y-77477000D01*
X137177000Y-77477000D01*
X137177000Y-78479000D01*
X137177000Y-78479000D01*
G37*
G36*
X120177000Y-77209000D02*
X118075000Y-77209000D01*
X118075000Y-76207000D01*
X120177000Y-76207000D01*
X120177000Y-77209000D01*
X120177000Y-77209000D01*
G37*
G36*
X137177000Y-77209000D02*
X135075000Y-77209000D01*
X135075000Y-76207000D01*
X137177000Y-76207000D01*
X137177000Y-77209000D01*
X137177000Y-77209000D01*
G37*
G36*
X98985294Y-74536633D02*
X99157694Y-74588931D01*
X99157696Y-74588932D01*
X99316583Y-74673859D01*
X99455849Y-74788151D01*
X99564693Y-74920778D01*
X99570140Y-74927416D01*
X99655069Y-75086306D01*
X99707367Y-75258706D01*
X99725025Y-75438000D01*
X99707367Y-75617294D01*
X99655069Y-75789694D01*
X99655068Y-75789696D01*
X99570141Y-75948583D01*
X99455849Y-76087849D01*
X99316583Y-76202141D01*
X99307492Y-76207000D01*
X99157694Y-76287069D01*
X98985294Y-76339367D01*
X98850931Y-76352600D01*
X98761069Y-76352600D01*
X98626706Y-76339367D01*
X98454306Y-76287069D01*
X98304508Y-76207000D01*
X98295417Y-76202141D01*
X98156151Y-76087849D01*
X98041859Y-75948583D01*
X97956932Y-75789696D01*
X97956931Y-75789694D01*
X97904633Y-75617294D01*
X97886975Y-75438000D01*
X97904633Y-75258706D01*
X97956931Y-75086306D01*
X98041860Y-74927416D01*
X98047308Y-74920778D01*
X98156151Y-74788151D01*
X98295417Y-74673859D01*
X98454304Y-74588932D01*
X98454306Y-74588931D01*
X98626706Y-74536633D01*
X98761069Y-74523400D01*
X98850931Y-74523400D01*
X98985294Y-74536633D01*
X98985294Y-74536633D01*
G37*
G36*
X96445294Y-74536633D02*
X96617694Y-74588931D01*
X96617696Y-74588932D01*
X96776583Y-74673859D01*
X96915849Y-74788151D01*
X97024693Y-74920778D01*
X97030140Y-74927416D01*
X97115069Y-75086306D01*
X97167367Y-75258706D01*
X97185025Y-75438000D01*
X97167367Y-75617294D01*
X97115069Y-75789694D01*
X97115068Y-75789696D01*
X97030141Y-75948583D01*
X96915849Y-76087849D01*
X96776583Y-76202141D01*
X96767492Y-76207000D01*
X96617694Y-76287069D01*
X96445294Y-76339367D01*
X96310931Y-76352600D01*
X96221069Y-76352600D01*
X96086706Y-76339367D01*
X95914306Y-76287069D01*
X95764508Y-76207000D01*
X95755417Y-76202141D01*
X95616151Y-76087849D01*
X95501859Y-75948583D01*
X95416932Y-75789696D01*
X95416931Y-75789694D01*
X95364633Y-75617294D01*
X95346975Y-75438000D01*
X95364633Y-75258706D01*
X95416931Y-75086306D01*
X95501860Y-74927416D01*
X95507308Y-74920778D01*
X95616151Y-74788151D01*
X95755417Y-74673859D01*
X95914304Y-74588932D01*
X95914306Y-74588931D01*
X96086706Y-74536633D01*
X96221069Y-74523400D01*
X96310931Y-74523400D01*
X96445294Y-74536633D01*
X96445294Y-74536633D01*
G37*
G36*
X137177000Y-75939000D02*
X135075000Y-75939000D01*
X135075000Y-74937000D01*
X137177000Y-74937000D01*
X137177000Y-75939000D01*
X137177000Y-75939000D01*
G37*
G36*
X120177000Y-75939000D02*
X118075000Y-75939000D01*
X118075000Y-74937000D01*
X120177000Y-74937000D01*
X120177000Y-75939000D01*
X120177000Y-75939000D01*
G37*
G36*
X142148443Y-73273519D02*
X142214627Y-73280037D01*
X142327853Y-73314384D01*
X142384467Y-73331557D01*
X142510642Y-73399000D01*
X142540991Y-73415222D01*
X142576729Y-73444552D01*
X142678186Y-73527814D01*
X142761448Y-73629271D01*
X142790778Y-73665009D01*
X142790779Y-73665011D01*
X142874443Y-73821533D01*
X142874443Y-73821534D01*
X142925963Y-73991373D01*
X142943359Y-74168000D01*
X142925963Y-74344627D01*
X142891616Y-74457853D01*
X142874443Y-74514467D01*
X142834640Y-74588932D01*
X142790778Y-74670991D01*
X142788424Y-74673859D01*
X142678186Y-74808186D01*
X142576729Y-74891448D01*
X142540991Y-74920778D01*
X142540989Y-74920779D01*
X142384467Y-75004443D01*
X142327853Y-75021616D01*
X142214627Y-75055963D01*
X142148443Y-75062481D01*
X142082260Y-75069000D01*
X141993740Y-75069000D01*
X141927557Y-75062481D01*
X141861373Y-75055963D01*
X141748147Y-75021616D01*
X141691533Y-75004443D01*
X141535011Y-74920779D01*
X141535009Y-74920778D01*
X141499271Y-74891448D01*
X141397814Y-74808186D01*
X141287576Y-74673859D01*
X141285222Y-74670991D01*
X141241360Y-74588932D01*
X141201557Y-74514467D01*
X141184384Y-74457853D01*
X141150037Y-74344627D01*
X141132641Y-74168000D01*
X141150037Y-73991373D01*
X141201557Y-73821534D01*
X141201557Y-73821533D01*
X141285221Y-73665011D01*
X141285222Y-73665009D01*
X141314552Y-73629271D01*
X141397814Y-73527814D01*
X141499271Y-73444552D01*
X141535009Y-73415222D01*
X141565358Y-73399000D01*
X141691533Y-73331557D01*
X141748147Y-73314384D01*
X141861373Y-73280037D01*
X141927557Y-73273519D01*
X141993740Y-73267000D01*
X142082260Y-73267000D01*
X142148443Y-73273519D01*
X142148443Y-73273519D01*
G37*
G36*
X120177000Y-74669000D02*
X118075000Y-74669000D01*
X118075000Y-73667000D01*
X120177000Y-73667000D01*
X120177000Y-74669000D01*
X120177000Y-74669000D01*
G37*
G36*
X137177000Y-74669000D02*
X135075000Y-74669000D01*
X135075000Y-73667000D01*
X137177000Y-73667000D01*
X137177000Y-74669000D01*
X137177000Y-74669000D01*
G37*
G36*
X96445294Y-71996633D02*
X96617694Y-72048931D01*
X96617696Y-72048932D01*
X96776583Y-72133859D01*
X96915849Y-72248151D01*
X97024693Y-72380778D01*
X97030140Y-72387416D01*
X97115069Y-72546306D01*
X97167367Y-72718706D01*
X97185025Y-72898000D01*
X97167367Y-73077294D01*
X97115069Y-73249694D01*
X97115068Y-73249696D01*
X97030141Y-73408583D01*
X96915849Y-73547849D01*
X96776583Y-73662141D01*
X96767492Y-73667000D01*
X96617694Y-73747069D01*
X96445294Y-73799367D01*
X96310931Y-73812600D01*
X96221069Y-73812600D01*
X96086706Y-73799367D01*
X95914306Y-73747069D01*
X95764508Y-73667000D01*
X95755417Y-73662141D01*
X95616151Y-73547849D01*
X95501859Y-73408583D01*
X95416932Y-73249696D01*
X95416931Y-73249694D01*
X95364633Y-73077294D01*
X95346975Y-72898000D01*
X95364633Y-72718706D01*
X95416931Y-72546306D01*
X95501860Y-72387416D01*
X95507308Y-72380778D01*
X95616151Y-72248151D01*
X95755417Y-72133859D01*
X95914304Y-72048932D01*
X95914306Y-72048931D01*
X96086706Y-71996633D01*
X96221069Y-71983400D01*
X96310931Y-71983400D01*
X96445294Y-71996633D01*
X96445294Y-71996633D01*
G37*
G36*
X98985294Y-71996633D02*
X99157694Y-72048931D01*
X99157696Y-72048932D01*
X99316583Y-72133859D01*
X99455849Y-72248151D01*
X99564693Y-72380778D01*
X99570140Y-72387416D01*
X99655069Y-72546306D01*
X99707367Y-72718706D01*
X99725025Y-72898000D01*
X99707367Y-73077294D01*
X99655069Y-73249694D01*
X99655068Y-73249696D01*
X99570141Y-73408583D01*
X99455849Y-73547849D01*
X99316583Y-73662141D01*
X99307492Y-73667000D01*
X99157694Y-73747069D01*
X98985294Y-73799367D01*
X98850931Y-73812600D01*
X98761069Y-73812600D01*
X98626706Y-73799367D01*
X98454306Y-73747069D01*
X98304508Y-73667000D01*
X98295417Y-73662141D01*
X98156151Y-73547849D01*
X98041859Y-73408583D01*
X97956932Y-73249696D01*
X97956931Y-73249694D01*
X97904633Y-73077294D01*
X97886975Y-72898000D01*
X97904633Y-72718706D01*
X97956931Y-72546306D01*
X98041860Y-72387416D01*
X98047308Y-72380778D01*
X98156151Y-72248151D01*
X98295417Y-72133859D01*
X98454304Y-72048932D01*
X98454306Y-72048931D01*
X98626706Y-71996633D01*
X98761069Y-71983400D01*
X98850931Y-71983400D01*
X98985294Y-71996633D01*
X98985294Y-71996633D01*
G37*
G36*
X120177000Y-73399000D02*
X118075000Y-73399000D01*
X118075000Y-72397000D01*
X120177000Y-72397000D01*
X120177000Y-73399000D01*
X120177000Y-73399000D01*
G37*
G36*
X137177000Y-73399000D02*
X135075000Y-73399000D01*
X135075000Y-72397000D01*
X137177000Y-72397000D01*
X137177000Y-73399000D01*
X137177000Y-73399000D01*
G37*
G36*
X142148442Y-70733518D02*
X142214627Y-70740037D01*
X142327853Y-70774384D01*
X142384467Y-70791557D01*
X142523087Y-70865652D01*
X142540991Y-70875222D01*
X142576729Y-70904552D01*
X142678186Y-70987814D01*
X142761448Y-71089271D01*
X142790778Y-71125009D01*
X142790779Y-71125011D01*
X142874443Y-71281533D01*
X142874443Y-71281534D01*
X142925963Y-71451373D01*
X142943359Y-71628000D01*
X142925963Y-71804627D01*
X142891616Y-71917853D01*
X142874443Y-71974467D01*
X142834640Y-72048932D01*
X142790778Y-72130991D01*
X142788424Y-72133859D01*
X142678186Y-72268186D01*
X142576729Y-72351448D01*
X142540991Y-72380778D01*
X142540989Y-72380779D01*
X142384467Y-72464443D01*
X142327853Y-72481616D01*
X142214627Y-72515963D01*
X142148442Y-72522482D01*
X142082260Y-72529000D01*
X141993740Y-72529000D01*
X141927558Y-72522482D01*
X141861373Y-72515963D01*
X141748147Y-72481616D01*
X141691533Y-72464443D01*
X141535011Y-72380779D01*
X141535009Y-72380778D01*
X141499271Y-72351448D01*
X141397814Y-72268186D01*
X141287576Y-72133859D01*
X141285222Y-72130991D01*
X141241360Y-72048932D01*
X141201557Y-71974467D01*
X141184384Y-71917853D01*
X141150037Y-71804627D01*
X141132641Y-71628000D01*
X141150037Y-71451373D01*
X141201557Y-71281534D01*
X141201557Y-71281533D01*
X141285221Y-71125011D01*
X141285222Y-71125009D01*
X141314552Y-71089271D01*
X141397814Y-70987814D01*
X141499271Y-70904552D01*
X141535009Y-70875222D01*
X141552913Y-70865652D01*
X141691533Y-70791557D01*
X141748147Y-70774384D01*
X141861373Y-70740037D01*
X141927558Y-70733518D01*
X141993740Y-70727000D01*
X142082260Y-70727000D01*
X142148442Y-70733518D01*
X142148442Y-70733518D01*
G37*
G36*
X97180600Y-71272600D02*
X95351400Y-71272600D01*
X95351400Y-69443400D01*
X97180600Y-69443400D01*
X97180600Y-71272600D01*
X97180600Y-71272600D01*
G37*
G36*
X98985294Y-69456633D02*
X99157694Y-69508931D01*
X99157696Y-69508932D01*
X99316583Y-69593859D01*
X99455849Y-69708151D01*
X99564693Y-69840778D01*
X99570140Y-69847416D01*
X99655069Y-70006306D01*
X99707367Y-70178706D01*
X99725025Y-70358000D01*
X99707367Y-70537294D01*
X99655069Y-70709694D01*
X99655068Y-70709696D01*
X99570141Y-70868583D01*
X99455849Y-71007849D01*
X99316583Y-71122141D01*
X99157696Y-71207068D01*
X99157694Y-71207069D01*
X98985294Y-71259367D01*
X98850931Y-71272600D01*
X98761069Y-71272600D01*
X98626706Y-71259367D01*
X98454306Y-71207069D01*
X98454304Y-71207068D01*
X98295417Y-71122141D01*
X98156151Y-71007849D01*
X98041859Y-70868583D01*
X97956932Y-70709696D01*
X97956931Y-70709694D01*
X97904633Y-70537294D01*
X97886975Y-70358000D01*
X97904633Y-70178706D01*
X97956931Y-70006306D01*
X98041860Y-69847416D01*
X98047308Y-69840778D01*
X98156151Y-69708151D01*
X98295417Y-69593859D01*
X98454304Y-69508932D01*
X98454306Y-69508931D01*
X98626706Y-69456633D01*
X98761069Y-69443400D01*
X98850931Y-69443400D01*
X98985294Y-69456633D01*
X98985294Y-69456633D01*
G37*
G36*
X115362228Y-68523703D02*
X115517100Y-68587853D01*
X115656481Y-68680985D01*
X115775015Y-68799519D01*
X115868147Y-68938900D01*
X115932297Y-69093772D01*
X115965000Y-69258184D01*
X115965000Y-69425816D01*
X115932297Y-69590228D01*
X115868147Y-69745100D01*
X115775015Y-69884481D01*
X115656481Y-70003015D01*
X115517100Y-70096147D01*
X115362228Y-70160297D01*
X115197816Y-70193000D01*
X115030184Y-70193000D01*
X114865772Y-70160297D01*
X114710900Y-70096147D01*
X114571519Y-70003015D01*
X114452985Y-69884481D01*
X114359853Y-69745100D01*
X114295703Y-69590228D01*
X114263000Y-69425816D01*
X114263000Y-69258184D01*
X114295703Y-69093772D01*
X114359853Y-68938900D01*
X114452985Y-68799519D01*
X114571519Y-68680985D01*
X114710900Y-68587853D01*
X114865772Y-68523703D01*
X115030184Y-68491000D01*
X115197816Y-68491000D01*
X115362228Y-68523703D01*
X115362228Y-68523703D01*
G37*
G36*
X142148443Y-68193519D02*
X142214627Y-68200037D01*
X142327853Y-68234384D01*
X142384467Y-68251557D01*
X142523087Y-68325652D01*
X142540991Y-68335222D01*
X142572141Y-68360786D01*
X142678186Y-68447814D01*
X142740466Y-68523704D01*
X142790778Y-68585009D01*
X142790779Y-68585011D01*
X142874443Y-68741533D01*
X142874443Y-68741534D01*
X142925963Y-68911373D01*
X142943359Y-69088000D01*
X142925963Y-69264627D01*
X142891616Y-69377853D01*
X142874443Y-69434467D01*
X142834640Y-69508932D01*
X142790778Y-69590991D01*
X142788424Y-69593859D01*
X142678186Y-69728186D01*
X142576729Y-69811448D01*
X142540991Y-69840778D01*
X142540989Y-69840779D01*
X142384467Y-69924443D01*
X142327853Y-69941616D01*
X142214627Y-69975963D01*
X142148443Y-69982481D01*
X142082260Y-69989000D01*
X141993740Y-69989000D01*
X141927557Y-69982481D01*
X141861373Y-69975963D01*
X141748147Y-69941616D01*
X141691533Y-69924443D01*
X141535011Y-69840779D01*
X141535009Y-69840778D01*
X141499271Y-69811448D01*
X141397814Y-69728186D01*
X141287576Y-69593859D01*
X141285222Y-69590991D01*
X141241360Y-69508932D01*
X141201557Y-69434467D01*
X141184384Y-69377853D01*
X141150037Y-69264627D01*
X141132641Y-69088000D01*
X141150037Y-68911373D01*
X141201557Y-68741534D01*
X141201557Y-68741533D01*
X141285221Y-68585011D01*
X141285222Y-68585009D01*
X141335534Y-68523704D01*
X141397814Y-68447814D01*
X141503859Y-68360786D01*
X141535009Y-68335222D01*
X141552913Y-68325652D01*
X141691533Y-68251557D01*
X141748147Y-68234384D01*
X141861373Y-68200037D01*
X141927557Y-68193519D01*
X141993740Y-68187000D01*
X142082260Y-68187000D01*
X142148443Y-68193519D01*
X142148443Y-68193519D01*
G37*
G36*
X105082600Y-67331867D02*
X105173059Y-67349860D01*
X105309732Y-67406472D01*
X105431079Y-67487554D01*
X105432738Y-67488662D01*
X105537338Y-67593262D01*
X105537340Y-67593265D01*
X105619528Y-67716268D01*
X105676140Y-67852941D01*
X105705000Y-67998033D01*
X105705000Y-68145967D01*
X105676140Y-68291059D01*
X105619528Y-68427732D01*
X105538446Y-68549079D01*
X105537338Y-68550738D01*
X105432738Y-68655338D01*
X105432735Y-68655340D01*
X105309732Y-68737528D01*
X105173059Y-68794140D01*
X105086004Y-68811456D01*
X105027969Y-68823000D01*
X104880031Y-68823000D01*
X104821996Y-68811456D01*
X104734941Y-68794140D01*
X104598268Y-68737528D01*
X104475265Y-68655340D01*
X104475262Y-68655338D01*
X104370662Y-68550738D01*
X104369554Y-68549079D01*
X104288472Y-68427732D01*
X104231860Y-68291059D01*
X104203000Y-68145967D01*
X104203000Y-67998033D01*
X104231860Y-67852941D01*
X104288472Y-67716268D01*
X104370660Y-67593265D01*
X104370662Y-67593262D01*
X104475262Y-67488662D01*
X104476921Y-67487554D01*
X104598268Y-67406472D01*
X104734941Y-67349860D01*
X104825400Y-67331867D01*
X104880031Y-67321000D01*
X105027969Y-67321000D01*
X105082600Y-67331867D01*
X105082600Y-67331867D01*
G37*
G36*
X110107665Y-67324622D02*
X110181222Y-67331867D01*
X110322786Y-67374810D01*
X110453252Y-67444546D01*
X110567606Y-67538394D01*
X110661454Y-67652748D01*
X110731190Y-67783214D01*
X110774133Y-67924778D01*
X110788633Y-68072000D01*
X110774133Y-68219222D01*
X110731190Y-68360786D01*
X110661454Y-68491252D01*
X110567606Y-68605606D01*
X110453252Y-68699454D01*
X110322786Y-68769190D01*
X110181222Y-68812133D01*
X110107665Y-68819378D01*
X110070888Y-68823000D01*
X109997112Y-68823000D01*
X109960335Y-68819378D01*
X109886778Y-68812133D01*
X109745214Y-68769190D01*
X109614748Y-68699454D01*
X109500394Y-68605606D01*
X109406546Y-68491252D01*
X109336810Y-68360786D01*
X109293867Y-68219222D01*
X109279367Y-68072000D01*
X109293867Y-67924778D01*
X109336810Y-67783214D01*
X109406546Y-67652748D01*
X109500394Y-67538394D01*
X109614748Y-67444546D01*
X109745214Y-67374810D01*
X109886778Y-67331867D01*
X109960335Y-67324622D01*
X109997112Y-67321000D01*
X110070888Y-67321000D01*
X110107665Y-67324622D01*
X110107665Y-67324622D01*
G37*
G36*
X115362228Y-66023703D02*
X115517100Y-66087853D01*
X115656481Y-66180985D01*
X115775015Y-66299519D01*
X115868147Y-66438900D01*
X115932297Y-66593772D01*
X115965000Y-66758184D01*
X115965000Y-66925816D01*
X115932297Y-67090228D01*
X115868147Y-67245100D01*
X115775015Y-67384481D01*
X115656481Y-67503015D01*
X115517100Y-67596147D01*
X115362228Y-67660297D01*
X115197816Y-67693000D01*
X115030184Y-67693000D01*
X114865772Y-67660297D01*
X114710900Y-67596147D01*
X114571519Y-67503015D01*
X114452985Y-67384481D01*
X114359853Y-67245100D01*
X114295703Y-67090228D01*
X114263000Y-66925816D01*
X114263000Y-66758184D01*
X114295703Y-66593772D01*
X114359853Y-66438900D01*
X114452985Y-66299519D01*
X114571519Y-66180985D01*
X114710900Y-66087853D01*
X114865772Y-66023703D01*
X115030184Y-65991000D01*
X115197816Y-65991000D01*
X115362228Y-66023703D01*
X115362228Y-66023703D01*
G37*
G36*
X142939000Y-67449000D02*
X141137000Y-67449000D01*
X141137000Y-65647000D01*
X142939000Y-65647000D01*
X142939000Y-67449000D01*
X142939000Y-67449000D01*
G37*
G36*
X100836228Y-48634091D02*
X101180829Y-48702636D01*
X102154649Y-49106005D01*
X102650926Y-49437607D01*
X103031067Y-49691609D01*
X103776391Y-50436933D01*
X103776393Y-50436936D01*
X104361995Y-51313351D01*
X104660154Y-52033172D01*
X104765364Y-52287172D01*
X104920477Y-53066973D01*
X104971000Y-53320973D01*
X104971000Y-54375027D01*
X104765364Y-55408829D01*
X104361995Y-56382649D01*
X103946110Y-57005064D01*
X103776391Y-57259067D01*
X103031067Y-58004391D01*
X103031064Y-58004393D01*
X102154649Y-58589995D01*
X101180829Y-58993364D01*
X100836228Y-59061909D01*
X100147029Y-59199000D01*
X99092971Y-59199000D01*
X98403772Y-59061909D01*
X98059171Y-58993364D01*
X97085351Y-58589995D01*
X96208936Y-58004393D01*
X96208933Y-58004391D01*
X95463609Y-57259067D01*
X95293890Y-57005064D01*
X94878005Y-56382649D01*
X94474636Y-55408829D01*
X94269000Y-54375027D01*
X94269000Y-53320973D01*
X94319524Y-53066973D01*
X94474636Y-52287172D01*
X94579846Y-52033172D01*
X94878005Y-51313351D01*
X95463607Y-50436936D01*
X95463609Y-50436933D01*
X96208933Y-49691609D01*
X96589074Y-49437607D01*
X97085351Y-49106005D01*
X98059171Y-48702636D01*
X98403772Y-48634091D01*
X99092971Y-48497000D01*
X100147029Y-48497000D01*
X100836228Y-48634091D01*
X100836228Y-48634091D01*
G37*
G36*
X140968228Y-48380091D02*
X141312829Y-48448636D01*
X142286649Y-48852005D01*
X143157157Y-49433660D01*
X143163067Y-49437609D01*
X143908391Y-50182933D01*
X143908393Y-50182936D01*
X144493995Y-51059351D01*
X144897364Y-52033171D01*
X144897364Y-52033172D01*
X145103000Y-53066971D01*
X145103000Y-54121029D01*
X145052476Y-54375029D01*
X144897364Y-55154829D01*
X144493995Y-56128649D01*
X143912340Y-56999157D01*
X143908391Y-57005067D01*
X143163067Y-57750391D01*
X143163064Y-57750393D01*
X142286649Y-58335995D01*
X141312829Y-58739364D01*
X140968228Y-58807909D01*
X140279029Y-58945000D01*
X139224971Y-58945000D01*
X138535772Y-58807909D01*
X138191171Y-58739364D01*
X137217351Y-58335995D01*
X136340936Y-57750393D01*
X136340933Y-57750391D01*
X135595609Y-57005067D01*
X135591660Y-56999157D01*
X135010005Y-56128649D01*
X134606636Y-55154829D01*
X134451524Y-54375029D01*
X134401000Y-54121029D01*
X134401000Y-53066971D01*
X134606636Y-52033172D01*
X134606636Y-52033171D01*
X135010005Y-51059351D01*
X135595607Y-50182936D01*
X135595609Y-50182933D01*
X136340933Y-49437609D01*
X136346843Y-49433660D01*
X137217351Y-48852005D01*
X138191171Y-48448636D01*
X138535772Y-48380091D01*
X139224971Y-48243000D01*
X140279029Y-48243000D01*
X140968228Y-48380091D01*
X140968228Y-48380091D01*
G37*
M02*
